<?xml version="1.0" standalone="no"?>
<!DOCTYPE svg PUBLIC "-//W3C//DTD SVG 1.1//EN" "http://www.w3.org/Graphics/SVG/1.1/DTD/svg11.dtd" >
<svg xmlns="http://www.w3.org/2000/svg" xmlns:xlink="http://www.w3.org/1999/xlink" version="1.1">
<metadata>
Created by FontForge 20190801 at Fri Aug 12 16:32:06 2016
 By Unknown
Copyright C 2006, 2014 Hoefler &#38; Co. http:www.typography.com
</metadata>
<defs>
<font id="Quarto-LightItalic" horiz-adv-x="500" >
  <font-face 
    font-family="Quarto"
    font-weight="300"
    font-style="italic"
    font-stretch="normal"
    units-per-em="1000"
    panose-1="0 0 0 0 0 0 0 0 0 0"
    ascent="800"
    descent="-200"
    x-height="453"
    cap-height="668"
    bbox="-192 -317 1119 1006"
    underline-thickness="0"
    underline-position="0"
    stemh="12"
    stemv="76"
    unicode-range="U+0020-FB04"
  />
<missing-glyph 
d="M0 -200v1000h500v-1000h-500zM71 750l179 -390l179 390h-358zM450 676l-172 -376l172 -376v752zM50 -76l172 376l-172 376v-752zM250 240l-179 -390h358z" />
    <glyph glyph-name="f_b" unicode="fb" horiz-adv-x="705" 
d="M248 553l-26 -109h187l56 160c-3 -1 -6 -2 -9 -2c-9 0 -17 3 -33 19l-56 54c-14 13 -21 17 -32 17c-24 0 -61 -30 -87 -139zM360 54c0 -26 9 -55 43 -55c18 0 50 11 76 37c72 72 139 226 139 315c0 53 -15 71 -41 71c-21 0 -39 -16 -54 -31c-29 -30 -88 -119 -110 -163
c-29 -59 -53 -124 -53 -174zM-78 -234c-42 0 -59 26 -59 48c0 25 21 43 40 43c9 0 14 -3 25 -17l29 -34c8 -9 13 -12 18 -12c11 0 27 20 60 159l98 416c4 17 8 33 11 47h-67l11 28h63c16 65 28 105 46 141c29 58 76 121 179 121c42 0 83 -17 101 -42l90 47l3 -2l-151 -432
l4 -2c31 53 66 103 100 138c28 27 59 46 94 46c33 0 77 -23 77 -104c0 -152 -161 -371 -310 -371c-67 0 -89 37 -89 90c0 37 15 88 31 135l73 207h-184l-95 -390c-21 -88 -70 -177 -120 -227c-20 -20 -45 -33 -78 -33z" />
    <glyph glyph-name="f_f" unicode="ff" horiz-adv-x="518" 
d="M243 532l-21 -88h175c16 65 28 105 46 141c-3 -1 -6 -2 -9 -2c-16 0 -27 13 -40 26l-43 45c-13 13 -16 17 -26 17c-24 0 -56 -30 -82 -139zM-78 -234c-42 0 -59 26 -59 48c0 25 21 43 40 43c9 0 14 -3 25 -17l29 -34c8 -9 13 -12 18 -12c11 0 27 20 60 159l93 395
c6 25 11 48 16 68h-67l11 28h63c14 53 25 88 41 120c29 58 76 121 161 121c57 0 115 -27 115 -58c29 43 72 79 136 79c57 0 99 -28 99 -61c0 -24 -20 -44 -41 -44c-11 0 -18 8 -28 22l-33 48c-10 14 -15 21 -25 21c-24 0 -56 -30 -82 -139l-27 -109h105l-11 -28h-100
l-89 -363c-21 -88 -70 -177 -120 -227c-20 -20 -45 -33 -78 -33c-42 0 -59 26 -59 48c0 25 21 43 40 43c9 0 14 -3 25 -17l29 -34c8 -9 13 -12 18 -12c11 0 27 20 60 159l92 389c4 17 8 33 11 47h-175l-95 -390c-21 -88 -70 -177 -120 -227c-20 -20 -45 -33 -78 -33z" />
    <glyph glyph-name="f_h" unicode="fh" horiz-adv-x="712" 
d="M248 553l-26 -109h192l57 159c-2 -1 -4 -1 -6 -1c-10 0 -18 1 -35 16l-63 57c-14 13 -21 17 -32 17c-24 0 -61 -30 -87 -139zM-78 -234c-42 0 -59 26 -59 48c0 25 21 43 40 43c9 0 14 -3 25 -17l29 -34c8 -9 13 -12 18 -12c11 0 27 20 60 159l98 416c4 17 8 33 11 47h-67
l11 28h63c16 65 28 105 46 141c29 58 76 121 179 121c44 0 88 -17 106 -42l92 47l3 -2l-172 -472l4 -2c46 84 88 155 125 191c23 24 45 33 70 33c33 0 54 -13 64 -23c23 -23 26 -53 26 -91c0 -47 -18 -194 -115 -291c-43 -43 -86 -70 -128 -70c-33 0 -43 19 -43 33
c0 27 28 47 49 47c8 0 11 -3 16 -15l10 -31c4 -12 5 -16 8 -16c7 0 30 19 61 80s70 186 70 269c0 22 -3 39 -16 52c-8 8 -23 15 -37 15c-11 0 -21 -2 -37 -18c-31 -31 -89 -124 -127 -200c-19 -38 -51 -108 -83 -200h-65l147 416h-189l-95 -390c-21 -88 -70 -177 -120 -227
c-20 -20 -45 -33 -78 -33z" />
    <glyph glyph-name="fi" unicode="fi" horiz-adv-x="499" 
d="M-78 -234c-42 0 -59 26 -59 48c0 25 21 43 40 43c9 0 14 -3 25 -17l29 -34c8 -9 13 -12 18 -12c11 0 27 20 60 159l98 416c4 17 8 33 11 47h-67l11 28h63c16 65 28 105 46 141c29 58 76 121 161 121c91 0 142 -34 142 -71c0 -24 -20 -42 -39 -42c-11 0 -20 8 -36 23
l-61 56c-13 12 -24 20 -34 20c-24 0 -56 -30 -82 -139l-26 -109h137c37 0 61 3 74 5s23 4 34 4c18 0 24 -6 24 -15c0 -7 -4 -16 -22 -64l-125 -306c-6 -15 -6 -19 1 -19c27 0 64 50 95 104l8 -4c-39 -68 -88 -153 -166 -153c-22 0 -26 7 -26 16c0 7 3 17 16 49l137 336
c6 14 6 19 -4 19h-190l-95 -390c-21 -88 -70 -177 -120 -227c-20 -20 -45 -33 -78 -33z" />
    <glyph glyph-name="f_j" unicode="fj" horiz-adv-x="496" 
d="M-78 -234c-42 0 -59 26 -59 48c0 25 21 43 40 43c9 0 14 -3 25 -17l29 -34c8 -9 13 -12 18 -12c11 0 27 20 60 159l98 416c4 17 8 33 11 47h-67l11 28h63c16 65 28 105 46 141c29 58 76 121 161 121c91 0 142 -34 142 -71c0 -24 -20 -42 -39 -42c-11 0 -20 8 -36 23
l-61 56c-13 12 -24 20 -34 20c-24 0 -56 -30 -82 -139l-26 -109h137c37 0 61 3 74 5s24 4 35 4c19 0 23 -6 23 -15c0 -7 -3 -14 -18 -64l-97 -328c-30 -101 -115 -253 -225 -253c-37 0 -51 23 -51 42c0 23 19 39 36 39c8 0 13 -2 23 -15l25 -33c7 -9 11 -12 14 -12
c12 0 51 40 100 205l113 378c4 14 5 19 -5 19h-191l-95 -390c-21 -88 -70 -177 -120 -227c-20 -20 -45 -33 -78 -33z" />
    <glyph glyph-name="f_k" unicode="fk" horiz-adv-x="698" 
d="M248 553l-26 -109h192l57 159c-2 -1 -4 -1 -6 -1c-10 0 -18 1 -35 16l-63 57c-14 13 -21 17 -32 17c-24 0 -61 -30 -87 -139zM522 378c-30 -30 -79 -91 -110 -147c142 19 225 52 225 123c0 35 -19 68 -45 68c-24 0 -47 -21 -70 -44zM-78 -234c-42 0 -59 26 -59 48
c0 25 21 43 40 43c9 0 14 -3 25 -17l29 -34c8 -9 13 -12 18 -12c11 0 27 20 60 159l98 416c4 17 8 33 11 47h-67l11 28h63c16 65 28 105 46 141c29 58 76 121 179 121c44 0 88 -17 106 -42l92 47l3 -2l-165 -451l4 -2c82 129 163 207 220 207c42 0 75 -40 75 -83
c0 -68 -62 -104 -204 -141l16 -54c33 -106 57 -138 72 -138c10 0 18 8 51 49l7 -5c-23 -33 -78 -107 -102 -107c-18 0 -57 55 -97 200c-11 40 -13 41 -44 41h-1c-1 -3 -3 -5 -4 -8c-30 -59 -50 -117 -83 -217h-65l147 416h-189l-95 -390c-21 -88 -70 -177 -120 -227
c-20 -20 -45 -33 -78 -33z" />
    <glyph glyph-name="fl" unicode="fl" horiz-adv-x="489" 
d="M248 553l-26 -109h192l56 159c-2 -1 -4 -1 -6 -1c-10 0 -18 1 -35 16l-62 57c-14 13 -21 17 -32 17c-24 0 -61 -30 -87 -139zM-78 -234c-42 0 -59 26 -59 48c0 25 21 43 40 43c9 0 14 -3 25 -17l29 -34c8 -9 13 -12 18 -12c11 0 27 20 60 159l98 416c4 17 8 33 11 47h-67
l11 28h63c16 65 28 105 46 141c29 58 76 121 179 121c44 0 87 -17 106 -42l90 47l3 -2l-224 -641c-5 -15 -6 -19 1 -19c27 0 64 50 95 104l8 -4c-39 -68 -88 -153 -164 -153c-22 0 -26 7 -26 16c0 7 3 16 13 45l126 359h-189l-95 -390c-21 -88 -70 -177 -120 -227
c-20 -20 -45 -33 -78 -33z" />
    <glyph glyph-name="f_t" unicode="ft" horiz-adv-x="550" 
d="M-78 -234c-42 0 -59 26 -59 48c0 25 21 43 40 43c9 0 14 -3 25 -17l29 -34c8 -9 13 -12 18 -12c11 0 27 20 60 159l98 416c4 17 8 33 11 47h-67l11 28h63c16 65 28 105 46 141c29 58 76 121 161 121c57 0 99 -28 99 -61c0 -24 -20 -44 -41 -44c-11 0 -18 8 -28 22l-33 48
c-10 14 -15 21 -25 21c-24 0 -56 -30 -82 -139l-26 -109h194l46 124h64l2 -4l-44 -120h118l-11 -28h-117l-122 -335c-3 -9 -11 -31 -11 -37c0 -3 1 -6 7 -6c47 0 102 69 134 126l11 -5c-28 -55 -114 -175 -208 -175c-22 0 -29 7 -29 18c0 12 6 26 26 80l124 334h-191
l-95 -390c-21 -88 -70 -177 -120 -227c-20 -20 -45 -33 -78 -33z" />
    <glyph glyph-name="f_f_b" unicode="ffb" horiz-adv-x="951" 
d="M494 553l-27 -109h188l56 160c-3 -1 -6 -2 -9 -2c-9 0 -17 3 -33 19l-56 54c-14 13 -21 17 -32 17c-24 0 -60 -30 -87 -139zM243 532l-21 -88h175c16 65 28 105 46 141c-3 -1 -6 -2 -9 -2c-16 0 -27 13 -40 26l-43 45c-13 13 -16 17 -26 17c-24 0 -56 -30 -82 -139z
M606 54c0 -26 9 -55 43 -55c18 0 50 11 76 37c72 72 139 226 139 315c0 53 -15 71 -41 71c-21 0 -39 -16 -54 -31c-29 -30 -88 -119 -110 -163c-29 -59 -53 -124 -53 -174zM-78 -234c-42 0 -59 26 -59 48c0 25 21 43 40 43c9 0 14 -3 25 -17l29 -34c8 -9 13 -12 18 -12
c11 0 27 20 60 159l93 395c6 25 11 48 16 68h-67l11 28h63c14 53 25 88 41 120c29 58 76 121 161 121c57 0 115 -27 115 -58c30 43 76 79 154 79c42 0 83 -17 101 -42l90 47l3 -2l-151 -432l4 -2c31 53 66 103 100 138c28 27 59 46 94 46c33 0 77 -23 77 -104
c0 -152 -161 -371 -310 -371c-67 0 -89 37 -89 90c0 37 15 88 31 135l73 207h-184l-89 -363c-21 -88 -70 -177 -120 -227c-20 -20 -45 -33 -78 -33c-42 0 -59 26 -59 48c0 25 21 43 40 43c9 0 14 -3 25 -17l29 -34c8 -9 13 -12 18 -12c11 0 27 20 60 159l92 389
c4 17 8 33 11 47h-175l-95 -390c-21 -88 -70 -177 -120 -227c-20 -20 -45 -33 -78 -33z" />
    <glyph glyph-name="f_f_h" unicode="ffh" horiz-adv-x="958" 
d="M494 553l-27 -109h193l57 159c-2 -1 -4 -1 -6 -1c-10 0 -18 1 -35 16l-63 57c-14 13 -21 17 -32 17c-24 0 -60 -30 -87 -139zM243 532l-21 -88h175c16 65 28 105 46 141c-3 -1 -6 -2 -9 -2c-16 0 -27 13 -40 26l-43 45c-13 13 -16 17 -26 17c-24 0 -56 -30 -82 -139z
M-78 -234c-42 0 -59 26 -59 48c0 25 21 43 40 43c9 0 14 -3 25 -17l29 -34c8 -9 13 -12 18 -12c11 0 27 20 60 159l93 395c6 25 11 48 16 68h-67l11 28h63c14 53 25 88 41 120c29 58 76 121 161 121c57 0 115 -27 115 -58c30 43 76 79 154 79c44 0 88 -17 106 -42l92 47
l3 -2l-172 -472l4 -2c46 84 88 155 125 191c23 24 45 33 70 33c33 0 54 -13 64 -23c23 -23 26 -53 26 -91c0 -47 -18 -194 -115 -291c-43 -43 -86 -70 -128 -70c-33 0 -43 19 -43 33c0 27 28 47 49 47c8 0 11 -3 16 -15l10 -31c4 -12 5 -16 8 -16c7 0 30 19 61 80
s70 186 70 269c0 22 -3 39 -16 52c-8 8 -23 15 -37 15c-11 0 -21 -2 -37 -18c-31 -31 -89 -124 -127 -200c-19 -38 -51 -108 -83 -200h-65l147 416h-189l-89 -363c-21 -88 -70 -177 -120 -227c-20 -20 -45 -33 -78 -33c-42 0 -59 26 -59 48c0 25 21 43 40 43
c9 0 14 -3 25 -17l29 -34c8 -9 13 -12 18 -12c11 0 27 20 60 159l92 389c4 17 8 33 11 47h-175l-95 -390c-21 -88 -70 -177 -120 -227c-20 -20 -45 -33 -78 -33z" />
    <glyph glyph-name="f_f_i" unicode="ffi" horiz-adv-x="745" 
d="M243 532l-21 -88h175c16 65 28 105 46 141c-3 -1 -6 -2 -9 -2c-16 0 -27 13 -40 26l-43 45c-13 13 -16 17 -26 17c-24 0 -56 -30 -82 -139zM-78 -234c-42 0 -59 26 -59 48c0 25 21 43 40 43c9 0 14 -3 25 -17l29 -34c8 -9 13 -12 18 -12c11 0 27 20 60 159l93 395
c6 25 11 48 16 68h-67l11 28h63c14 53 25 88 41 120c29 58 76 121 161 121c57 0 115 -27 115 -58c29 43 72 79 136 79c91 0 142 -34 142 -71c0 -24 -20 -42 -39 -42c-11 0 -20 8 -36 23l-61 56c-13 12 -24 20 -34 20c-24 0 -56 -30 -82 -139l-27 -109h138c37 0 61 3 74 5
s23 4 34 4c18 0 24 -6 24 -15c0 -7 -4 -16 -22 -64l-125 -306c-6 -15 -6 -19 1 -19c27 0 64 50 95 104l8 -4c-39 -68 -88 -153 -166 -153c-22 0 -26 7 -26 16c0 7 3 17 16 49l137 336c6 14 6 19 -4 19h-190l-89 -363c-21 -88 -70 -177 -120 -227c-20 -20 -45 -33 -78 -33
c-42 0 -59 26 -59 48c0 25 21 43 40 43c9 0 14 -3 25 -17l29 -34c8 -9 13 -12 18 -12c11 0 27 20 60 159l92 389c4 17 8 33 11 47h-175l-95 -390c-21 -88 -70 -177 -120 -227c-20 -20 -45 -33 -78 -33z" />
    <glyph glyph-name="f_f_j" unicode="ffj" horiz-adv-x="742" 
d="M243 532l-21 -88h175c16 65 28 105 46 141c-3 -1 -6 -2 -9 -2c-16 0 -27 13 -40 26l-43 45c-13 13 -16 17 -26 17c-24 0 -56 -30 -82 -139zM168 -234c-42 0 -59 26 -59 48c0 25 21 43 40 43c9 0 14 -3 25 -17l29 -34c8 -9 13 -12 18 -12c11 0 27 20 60 159l98 416
c4 17 8 33 11 47h-175l-95 -390c-21 -88 -70 -177 -120 -227c-20 -20 -45 -33 -78 -33c-42 0 -59 26 -59 48c0 25 21 43 40 43c9 0 14 -3 25 -17l29 -34c8 -9 13 -12 18 -12c11 0 27 20 60 159l93 395c6 25 11 48 16 68h-67l11 28h63c14 53 25 88 41 120
c29 58 76 121 161 121c57 0 115 -27 115 -58c29 43 72 79 136 79c91 0 142 -34 142 -71c0 -24 -20 -42 -39 -42c-11 0 -20 8 -36 23l-61 56c-13 12 -24 20 -34 20c-24 0 -56 -30 -82 -139l-26 -109h137c37 0 61 3 74 5s24 4 35 4c19 0 23 -6 23 -15c0 -7 -3 -14 -18 -64
l-97 -328c-30 -101 -115 -253 -225 -253c-37 0 -51 23 -51 42c0 23 19 39 36 39c8 0 13 -2 23 -15l25 -33c7 -9 11 -12 14 -12c12 0 51 40 100 205l113 378c4 14 5 19 -5 19h-191l-95 -390c-21 -88 -70 -177 -120 -227c-20 -20 -45 -33 -78 -33z" />
    <glyph glyph-name="f_f_k" unicode="ffk" horiz-adv-x="944" 
d="M494 553l-27 -109h193l57 159c-2 -1 -4 -1 -6 -1c-10 0 -18 1 -35 16l-63 57c-14 13 -21 17 -32 17c-24 0 -60 -30 -87 -139zM243 532l-21 -88h175c16 65 28 105 46 141c-3 -1 -6 -2 -9 -2c-16 0 -27 13 -40 26l-43 45c-13 13 -16 17 -26 17c-24 0 -56 -30 -82 -139z
M768 378c-30 -30 -79 -91 -110 -147c142 19 225 52 225 123c0 35 -19 68 -45 68c-24 0 -47 -21 -70 -44zM-78 -234c-42 0 -59 26 -59 48c0 25 21 43 40 43c9 0 14 -3 25 -17l29 -34c8 -9 13 -12 18 -12c11 0 27 20 60 159l93 395c6 25 11 48 16 68h-67l11 28h63
c14 53 25 88 41 120c29 58 76 121 161 121c57 0 115 -27 115 -58c30 43 76 79 154 79c44 0 88 -17 106 -42l92 47l3 -2l-165 -451l4 -2c82 129 163 207 220 207c42 0 75 -40 75 -83c0 -68 -62 -104 -204 -141l16 -54c33 -106 57 -138 72 -138c10 0 18 8 51 49l7 -5
c-23 -33 -78 -107 -102 -107c-18 0 -57 55 -97 200c-11 40 -13 41 -44 41h-1c-1 -3 -3 -5 -4 -8c-30 -59 -50 -117 -83 -217h-65l147 416h-189l-89 -363c-21 -88 -70 -177 -120 -227c-20 -20 -45 -33 -78 -33c-42 0 -59 26 -59 48c0 25 21 43 40 43c9 0 14 -3 25 -17l29 -34
c8 -9 13 -12 18 -12c11 0 27 20 60 159l92 389c4 17 8 33 11 47h-175l-95 -390c-21 -88 -70 -177 -120 -227c-20 -20 -45 -33 -78 -33z" />
    <glyph glyph-name="f_f_l" unicode="ffl" horiz-adv-x="735" 
d="M494 553l-27 -109h193l56 159c-2 -1 -4 -1 -6 -1c-10 0 -18 1 -35 16l-62 57c-14 13 -21 17 -32 17c-24 0 -61 -30 -87 -139zM243 532l-21 -88h175c16 65 28 105 46 141c-3 -1 -6 -2 -9 -2c-16 0 -27 13 -40 26l-43 45c-13 13 -16 17 -26 17c-24 0 -56 -30 -82 -139z
M-78 -234c-42 0 -59 26 -59 48c0 25 21 43 40 43c9 0 14 -3 25 -17l29 -34c8 -9 13 -12 18 -12c11 0 27 20 60 159l93 395c6 25 11 48 16 68h-67l11 28h63c14 53 25 88 41 120c29 58 76 121 161 121c57 0 115 -27 115 -58c30 43 76 79 154 79c44 0 87 -17 106 -42l90 47
l3 -2l-224 -641c-5 -15 -6 -19 1 -19c27 0 64 50 95 104l8 -4c-39 -68 -88 -153 -164 -153c-22 0 -26 7 -26 16c0 7 3 16 13 45l126 359h-189l-89 -363c-21 -88 -70 -177 -120 -227c-20 -20 -45 -33 -78 -33c-42 0 -59 26 -59 48c0 25 21 43 40 43c9 0 14 -3 25 -17l29 -34
c8 -9 13 -12 18 -12c11 0 27 20 60 159l92 389c4 17 8 33 11 47h-175l-95 -390c-21 -88 -70 -177 -120 -227c-20 -20 -45 -33 -78 -33z" />
    <glyph glyph-name="f_f_t" unicode="fft" horiz-adv-x="796" 
d="M243 532l-21 -88h175c16 65 28 105 46 141c-3 -1 -6 -2 -9 -2c-16 0 -27 13 -40 26l-43 45c-13 13 -16 17 -26 17c-24 0 -56 -30 -82 -139zM-78 -234c-42 0 -59 26 -59 48c0 25 21 43 40 43c9 0 14 -3 25 -17l29 -34c8 -9 13 -12 18 -12c11 0 27 20 60 159l93 395
c6 25 11 48 16 68h-67l11 28h63c14 53 25 88 41 120c29 58 76 121 161 121c57 0 115 -27 115 -58c30 43 76 79 154 79c64 0 120 -30 120 -68c0 -20 -15 -36 -27 -36c-10 0 -17 2 -35 16l-66 57c-15 12 -22 17 -33 17c-24 0 -61 -30 -87 -139l-27 -109h195l46 124h64l2 -4
l-44 -120h118l-11 -28h-117l-122 -335c-3 -9 -11 -31 -11 -37c0 -3 1 -6 7 -6c47 0 102 69 134 126l11 -5c-28 -55 -114 -175 -208 -175c-22 0 -29 7 -29 18c0 12 6 26 26 80l124 334h-191l-89 -363c-21 -88 -70 -177 -120 -227c-20 -20 -45 -33 -78 -33
c-42 0 -59 26 -59 48c0 25 21 43 40 43c9 0 14 -3 25 -17l29 -34c8 -9 13 -12 18 -12c11 0 27 20 60 159l92 389c4 17 8 33 11 47h-175l-95 -390c-21 -88 -70 -177 -120 -227c-20 -20 -45 -33 -78 -33z" />
    <glyph glyph-name=".notdef" 
d="M0 -200v1000h500v-1000h-500zM71 750l179 -390l179 390h-358zM450 676l-172 -376l172 -376v752zM50 -76l172 376l-172 376v-752zM250 240l-179 -390h358z" />
    <glyph glyph-name="A" unicode="A" horiz-adv-x="637" 
d="M476 624l-242 -343h203l17 123c16 116 24 182 27 220h-5zM148 6v-6h-237v6l27 4c68 10 75 18 123 83l112 150c141 186 295 390 310 417c16 4 59 18 84 35l5 -1l-76 -593c-11 -82 -9 -85 35 -89l40 -4v-8h-273v8l36 4c65 7 69 15 76 65l25 184h-215l-42 -59
c-92 -133 -106 -158 -106 -168c0 -6 3 -14 39 -21z" />
    <glyph glyph-name="B" unicode="B" horiz-adv-x="585" 
d="M200 0h-244v8l37 3c41 4 50 8 60 32c6 13 17 50 33 96l130 385c16 46 29 91 29 109c0 10 0 22 -51 22h-27v8c105 7 141 9 198 9c199 0 240 -76 240 -135c0 -85 -79 -138 -210 -173l-1 -3c92 -15 153 -68 153 -148c0 -115 -114 -213 -347 -213zM374 660h-24
c-12 -25 -27 -73 -40 -112l-65 -195h29c167 0 245 92 245 191c0 54 -24 116 -145 116zM240 340l-69 -204c-18 -53 -30 -88 -30 -102c0 -12 13 -22 64 -22c161 0 252 86 252 201c0 74 -51 128 -172 128c-15 0 -37 0 -45 -1z" />
    <glyph glyph-name="C" unicode="C" horiz-adv-x="649" 
d="M70 226c0 245 181 458 415 458c54 0 89 -10 154 -34c11 -4 19 -7 24 -7c6 0 10 3 15 10l7 9l8 -2c-11 -57 -29 -165 -44 -213h-7c-4 93 -14 130 -28 159c-19 37 -60 65 -119 65c-203 0 -336 -259 -336 -474c0 -127 55 -200 147 -200c75 0 163 53 274 214l8 -4
c-25 -67 -58 -136 -83 -182c-84 -34 -169 -41 -196 -41c-170 0 -239 112 -239 242z" />
    <glyph glyph-name="D" unicode="D" horiz-adv-x="697" 
d="M218 528c20 58 30 91 30 108c0 13 -7 19 -50 19h-32v8c100 7 163 9 206 9c249 0 326 -129 326 -263c0 -156 -109 -415 -494 -415c-79 0 -99 6 -249 6v8l38 3c41 4 50 8 60 32c6 13 17 50 33 96zM350 660c-12 -25 -27 -73 -40 -112l-140 -416c-18 -53 -30 -88 -30 -102
c0 -12 12 -22 53 -22h3c152 0 239 57 285 103c83 83 126 206 126 316c0 65 -16 127 -58 169c-38 38 -92 64 -199 64z" />
    <glyph glyph-name="E" unicode="E" horiz-adv-x="579" 
d="M537 161l-76 -161h-505v8l37 3c41 4 50 8 60 32c6 13 17 50 33 96l133 393c18 53 31 92 31 106c0 12 -10 16 -43 19l-39 3v8h479l-54 -163h-7c-1 78 -3 110 -18 125c-13 13 -38 17 -116 20l-106 4l-103 -305l105 3c44 2 65 4 91 30c9 9 23 25 47 65l9 16l8 -2l-88 -251
h-9l2 22c5 60 4 79 -6 89c-8 8 -17 10 -62 12l-101 3l-67 -200c-18 -53 -31 -90 -31 -104c0 -12 9 -17 40 -17c99 0 174 3 234 36c32 17 66 48 116 114z" />
    <glyph glyph-name="F" unicode="F" horiz-adv-x="549" 
d="M237 8v-8h-281v8l37 3c41 4 50 8 60 32c6 13 17 50 33 96l133 393c18 53 31 92 31 106c0 12 -10 16 -43 19l-39 3v8h479l-54 -163h-7c-1 78 -3 110 -18 125c-13 13 -38 17 -116 20l-106 4l-105 -313l104 3c44 2 65 4 91 30c9 9 23 25 47 65l9 16l8 -2l-88 -251h-9l2 22
c5 60 4 79 -6 89c-8 8 -17 10 -62 12l-101 3l-64 -192c-18 -53 -31 -90 -31 -104c0 -12 10 -18 51 -21z" />
    <glyph glyph-name="G" unicode="G" horiz-adv-x="673" 
d="M495 671c-203 0 -336 -251 -336 -449c0 -145 60 -220 195 -220c29 0 49 3 66 7c5 12 14 37 18 48l38 109c18 53 30 92 30 107c0 11 -10 15 -37 16l-56 3v8h269v-8l-21 -2c-47 -4 -60 -9 -69 -30c-7 -16 -17 -44 -33 -91l-29 -85c-6 -17 -11 -32 -11 -38c0 -3 1 -6 8 -6
c10 0 25 5 39 9v-9c-13 -8 -129 -54 -227 -54c-190 0 -269 114 -269 249c0 237 181 449 415 449c54 0 89 -10 154 -34c11 -4 19 -7 24 -7c6 0 10 3 15 10l7 9l8 -2c-11 -57 -29 -165 -44 -213h-7c-4 93 -13 131 -26 158c-20 41 -62 66 -121 66z" />
    <glyph glyph-name="H" unicode="H" horiz-adv-x="731" 
d="M227 8v-8h-271v8l37 3c41 4 50 8 60 32c6 13 17 50 33 96l133 393c18 53 31 92 31 106c0 12 -10 16 -43 19l-39 3v8h271v-8l-42 -3c-41 -4 -50 -8 -60 -32c-6 -13 -17 -50 -33 -96l-59 -173h331l60 176c18 53 31 92 31 106c0 12 -10 16 -43 19l-44 3v8h271v-8l-37 -3
c-41 -4 -50 -8 -60 -32c-6 -13 -17 -50 -33 -96l-133 -393c-18 -53 -31 -92 -31 -106c0 -12 10 -16 43 -19l39 -3v-8h-271v8l42 3c41 4 50 8 60 32c6 13 17 50 33 96l67 197h-331l-68 -200c-18 -53 -31 -92 -31 -106c0 -12 10 -16 43 -19z" />
    <glyph glyph-name="I" unicode="I" horiz-adv-x="338" 
d="M183 136c-18 -53 -31 -92 -31 -106c0 -12 10 -16 43 -19l39 -3v-8h-266v8l37 3c41 4 50 8 60 32c6 13 17 50 33 96l133 393c18 53 31 92 31 106c0 12 -10 16 -43 19l-39 3v8h266v-8l-37 -3c-41 -4 -50 -8 -60 -32c-6 -13 -17 -50 -33 -96z" />
    <glyph glyph-name="J" unicode="J" horiz-adv-x="512" 
d="M56 -199c-60 0 -82 30 -82 57c0 29 24 47 46 47c10 0 17 -3 28 -19l32 -44c11 -15 15 -22 23 -22c19 0 78 61 160 318c20 62 38 117 57 167h-141l7 20h142c48 120 100 211 175 302l-1 4c-70 -21 -139 -29 -174 -29c-64 0 -93 3 -118 3s-40 -5 -40 -10c0 -6 8 -15 15 -26
l17 -27c3 -4 5 -9 5 -14c0 -17 -23 -27 -43 -27c-27 0 -37 16 -37 33c0 14 7 39 36 74c40 46 67 66 104 66c79 0 195 -48 234 -32c5 2 12 7 17 17c19 42 26 52 35 52c16 0 32 -15 32 -26c0 -7 -8 -14 -16 -19l-37 -24c-12 -8 -16 -15 -24 -30c-37 -69 -73 -177 -104 -287
h120l-7 -20h-119c-16 -56 -32 -113 -46 -164c-17 -61 -34 -106 -50 -138c-55 -109 -142 -202 -246 -202z" />
    <glyph glyph-name="J.alt" horiz-adv-x="405" 
d="M191 147l123 385c17 53 30 92 30 106c0 12 -9 16 -42 19l-56 3v8h281v-8l-37 -3c-41 -4 -50 -8 -60 -32c-6 -13 -17 -50 -32 -96l-78 -238c-49 -151 -61 -201 -114 -254c-7 -7 -55 -53 -122 -53c-55 0 -97 27 -97 73c0 29 21 59 53 59c10 0 18 -4 29 -27l33 -69
c5 -10 11 -19 17 -19c4 0 7 2 10 5c13 13 33 50 62 141z" />
    <glyph glyph-name="K" unicode="K" horiz-adv-x="618" 
d="M479 -8c-35 0 -48 9 -76 60l-133 244c-16 27 -21 28 -32 28h-3l-64 -188c-18 -53 -31 -92 -31 -106c0 -12 10 -16 43 -19l39 -3v-8h-266v8l37 3c41 4 50 8 60 32c6 13 17 50 33 96l133 393c18 53 31 92 31 106c0 12 -10 16 -43 19l-39 3v8h266v-8l-37 -3
c-41 -4 -50 -8 -60 -32c-6 -13 -17 -50 -33 -96l-65 -193l53 41c79 60 300 247 300 263c0 5 -14 10 -49 16l-36 6v6h245v-6l-34 -6c-57 -10 -67 -19 -133 -70l-266 -206l151 -270c38 -68 49 -85 72 -93c12 -4 26 -7 60 -10v-7l-32 -2c-31 -2 -38 -3 -55 -4
c-13 -1 -22 -2 -36 -2z" />
    <glyph glyph-name="L" unicode="L" horiz-adv-x="544" 
d="M219 532c18 53 31 92 31 106c0 12 -10 16 -43 19l-39 3v8h266v-8l-37 -3c-41 -4 -50 -8 -60 -32c-6 -13 -17 -50 -33 -96l-132 -393c-18 -53 -31 -90 -31 -104c0 -12 9 -17 40 -17c92 0 147 2 201 29c40 20 69 46 129 129l6 -4l-76 -169h-485v8l37 3c41 4 50 8 60 32
c6 13 17 50 33 96z" />
    <glyph glyph-name="M" unicode="M" horiz-adv-x="814" 
d="M170 6v-6h-241v6l34 7c68 14 74 28 109 119l174 457c-8 38 -25 58 -68 67l-29 5v7h188c-4 -28 -9 -69 4 -179l42 -366l293 429c35 52 49 75 68 116h189v-8l-24 -4c-85 -15 -102 -47 -123 -134l-93 -383c-8 -33 -22 -94 -22 -109c0 -11 8 -16 41 -19l38 -3v-8h-264v8l38 3
c54 5 55 12 74 91l116 471l-390 -573h-6l-69 561l-129 -388c-14 -41 -37 -112 -37 -130c0 -16 17 -23 52 -30z" />
    <glyph glyph-name="N" unicode="N" horiz-adv-x="685" 
d="M490 -16h-5l-248 570l-117 -381c-13 -41 -33 -112 -33 -130c0 -16 17 -23 52 -30l35 -7v-6h-241v6l34 7c68 14 75 27 107 119l155 440l-16 38c-15 35 -29 42 -50 47l-18 4v7h133l240 -552h1l120 379c13 41 33 112 33 130c0 16 -17 23 -52 30l-35 7v6h241v-6l-34 -7
c-68 -14 -74 -27 -107 -119z" />
    <glyph glyph-name="O" unicode="O" horiz-adv-x="663" 
d="M277 -16c-102 0 -209 76 -209 259c0 158 133 441 394 441c102 0 209 -76 209 -259c0 -158 -133 -441 -394 -441zM272 -3c170 0 314 289 314 500c0 103 -34 174 -119 174c-170 0 -314 -289 -314 -500c0 -103 34 -174 119 -174z" />
    <glyph glyph-name="P" unicode="P" horiz-adv-x="559" 
d="M368 672c193 0 250 -77 250 -157c0 -150 -174 -229 -356 -229v6c172 16 262 108 262 241c0 65 -40 127 -155 127h-19c-12 -25 -27 -73 -40 -112l-139 -412c-18 -53 -31 -92 -31 -106c0 -12 10 -16 43 -19l44 -3v-8h-271v8l37 3c41 4 50 8 60 32c6 13 17 50 33 96l130 385
c16 46 29 91 29 109c0 10 0 22 -51 22h-27v8c99 7 135 9 201 9z" />
    <glyph glyph-name="Q" unicode="Q" horiz-adv-x="664" 
d="M282 67c59 0 103 20 152 65c100 108 159 273 159 403c0 92 -38 136 -121 136c-175 0 -310 -282 -310 -465c0 -93 35 -139 120 -139zM657 -317c-179 0 -530 268 -589 284c-25 -5 -31 -5 -37 -5c-22 0 -26 15 -26 26c0 21 13 58 43 58c21 0 51 -14 80 -29
c9 -4 19 -10 31 -17c93 8 160 37 215 78c-28 -13 -60 -23 -95 -23c-92 0 -200 66 -200 221c0 150 134 408 389 408c103 0 210 -64 210 -221c0 -150 -132 -431 -505 -471c128 -74 384 -245 531 -245c43 0 68 37 101 75l7 -5c-35 -49 -91 -134 -155 -134z" />
    <glyph glyph-name="Q.alt" horiz-adv-x="663" 
d="M468 -167c-58 0 -151 67 -225 134c-13 11 -28 26 -37 29c-4 1 -8 3 -11 5c-70 32 -127 109 -127 242c0 158 133 441 394 441c102 0 209 -76 209 -259c0 -147 -115 -401 -340 -437c73 -66 157 -106 193 -106c15 0 31 4 65 23l18 10l4 -5l-29 -22c-52 -39 -77 -55 -114 -55
zM272 -3c170 0 314 289 314 500c0 103 -34 174 -119 174c-170 0 -314 -289 -314 -500c0 -103 34 -174 119 -174z" />
    <glyph glyph-name="R" unicode="R" horiz-adv-x="607" 
d="M493 -6c-48 0 -62 14 -96 98c-21 52 -49 130 -67 186c-11 34 -14 36 -31 36h-68l-60 -178c-18 -53 -31 -92 -31 -106c0 -12 10 -16 43 -19l44 -3v-8h-271v8l37 3c41 4 50 8 60 32c6 13 17 50 33 96l130 385c16 46 29 91 29 109c0 10 0 22 -51 22h-27v8c99 7 145 9 211 9
c191 0 230 -75 230 -140c0 -97 -91 -161 -212 -192c8 -25 55 -145 84 -220c40 -103 42 -105 132 -113v-7l-57 -3c-21 -1 -40 -3 -62 -3zM516 540c0 54 -30 120 -138 120h-28c-12 -25 -27 -73 -40 -112l-75 -222h32c128 0 249 82 249 214z" />
    <glyph glyph-name="S" unicode="S" horiz-adv-x="489" 
d="M524 642c-2 -31 -20 -112 -29 -160h-9c2 163 -59 185 -124 185c-83 0 -130 -47 -130 -115c0 -54 40 -110 87 -173c58 -78 103 -126 103 -203c0 -112 -98 -188 -222 -188c-47 0 -115 12 -182 49c4 49 24 148 33 183h8c1 -172 49 -219 135 -219c87 0 151 46 151 132
c0 56 -36 112 -98 190c-51 65 -90 116 -90 184c0 82 75 173 208 173c55 0 117 -18 159 -38z" />
    <glyph glyph-name="T" unicode="T" horiz-adv-x="662" 
d="M516 644l-172 -508c-18 -53 -31 -92 -31 -106c0 -12 10 -17 48 -19l59 -3v-8h-316v8l57 3c46 2 55 8 65 32c6 13 17 50 33 96l171 505h-47c-55 0 -101 4 -140 -22c-34 -23 -68 -56 -135 -138l-6 3l97 209l7 -1l-2 -14c-3 -21 -2 -23 22 -23h490c28 0 32 3 43 20l11 18
l6 -1l-49 -210l-6 -1c-11 127 -16 147 -56 156c-20 4 -56 4 -94 4h-55z" />
    <glyph glyph-name="U" unicode="U" horiz-adv-x="674" 
d="M195 265c-20 -59 -24 -90 -24 -120c0 -65 36 -126 145 -126c76 0 129 24 181 102c38 57 79 183 99 254l33 116c16 57 33 123 33 139c0 15 -18 19 -48 25l-49 7v6h252v-6l-29 -5c-70 -12 -73 -16 -106 -111l-61 -178c-12 -35 -26 -74 -56 -155
c-73 -195 -184 -229 -284 -229c-124 0 -197 65 -197 161c0 35 7 68 24 119l89 268c18 53 31 92 31 106c0 12 -10 16 -43 19l-39 3v8h291v-8l-52 -3c-51 -3 -60 -8 -70 -32c-6 -13 -17 -50 -33 -96z" />
    <glyph glyph-name="V" unicode="V" horiz-adv-x="607" 
d="M640 575l-458 -591h-9l36 604c3 55 1 62 -51 69l-38 3v8h289v-8l-44 -3c-41 -4 -56 -8 -64 -24c-5 -10 -6 -29 -7 -42l-33 -473h4l260 354c95 131 103 155 103 164c0 7 -5 13 -40 19l-40 7v6h247v-6l-35 -5c-68 -10 -70 -18 -120 -82z" />
    <glyph glyph-name="W" unicode="W" horiz-adv-x="929" 
d="M531 -16l7 460l-333 -460h-9l-4 604c0 57 -3 64 -54 69l-38 3v8h289v-8l-45 -3c-41 -4 -55 -7 -63 -23c-5 -10 -5 -30 -5 -43l-3 -477h4l261 359l2 115c1 55 -1 64 -53 69l-38 3v8h289v-8l-45 -3c-41 -4 -55 -7 -63 -22c-5 -11 -6 -31 -6 -44l-14 -477h4l243 359
c89 132 100 153 100 163c0 7 -4 13 -40 19l-45 7v6h247v-6l-30 -5c-68 -11 -71 -16 -119 -82l-430 -591h-9z" />
    <glyph glyph-name="X" unicode="X" horiz-adv-x="639" 
d="M175 6v-6h-251v6l38 9c61 14 75 22 177 123l196 193l-58 198c-17 56 -26 88 -33 102c-9 18 -19 23 -56 26l-37 3v8h268v-8l-39 -3c-32 -2 -42 -9 -42 -21c0 -14 9 -50 24 -104l43 -154l90 96c66 71 133 147 133 162c0 6 -8 12 -44 19l-41 7v6h251v-6l-38 -9
c-61 -14 -75 -22 -177 -123l-170 -168l66 -223c17 -56 27 -88 34 -102c9 -18 19 -23 56 -26l37 -3v-8h-268v8l39 3c32 2 42 9 42 21c0 14 -10 50 -25 104l-51 181l-116 -123c-66 -71 -133 -147 -133 -162c0 -6 8 -12 44 -19z" />
    <glyph glyph-name="Y" unicode="Y" horiz-adv-x="596" 
d="M307 136c-18 -53 -31 -92 -31 -106c0 -12 10 -16 43 -19l39 -3v-8h-264v8l37 3c41 4 50 8 60 32c6 13 17 50 33 96l40 117c18 53 19 59 10 95l-43 178c-14 57 -21 87 -30 104s-18 20 -55 24l-39 3v8h267v-8l-39 -3c-32 -3 -42 -9 -42 -21c0 -14 9 -49 22 -104l45 -198h4
l97 114c112 136 134 168 134 182c0 9 -5 16 -41 24l-42 8v6h251v-6l-28 -5c-61 -14 -71 -20 -122 -75l-246 -269z" />
    <glyph glyph-name="Z" unicode="Z" horiz-adv-x="599" 
d="M245 599c-24 -27 -63 -76 -92 -116l-7 2l86 221h8l-1 -19c0 -19 4 -23 27 -23h425l1 -6l-597 -642l1 -3l177 5c87 2 144 11 184 49c35 33 70 77 97 106l6 -4l-76 -169h-504l-1 6l600 642l-1 3l-178 -1c-121 -1 -121 -12 -155 -51z" />
    <glyph glyph-name="a" unicode="a" horiz-adv-x="466" 
d="M253 -16c-18 0 -20 6 -20 13c0 10 4 21 61 168l19 50l-4 2c-32 -62 -94 -140 -124 -170c-35 -35 -75 -59 -115 -59c-27 0 -62 14 -62 75c0 94 66 218 146 298c51 51 107 84 156 84c38 0 63 -23 66 -56h3l28 70h63l2 -4l-142 -364c-7 -19 -16 -41 -16 -49c0 -2 0 -4 3 -4
c23 0 82 66 108 107l8 -4c-34 -60 -122 -157 -180 -157zM358 388c0 27 -16 43 -40 43c-23 0 -55 -17 -84 -47c-66 -66 -151 -222 -151 -313c0 -21 4 -49 30 -49c25 0 47 20 65 38c112 112 180 268 180 328z" />
    <glyph glyph-name="b" unicode="b" horiz-adv-x="434" 
d="M302 716l-154 -439l4 -2c31 53 66 103 100 138c28 27 59 46 94 46c33 0 77 -23 77 -104c0 -152 -161 -371 -310 -371c-67 0 -89 37 -89 90c0 37 15 88 31 135l147 416c5 15 12 39 12 48s-9 12 -32 15l-29 4v6l148 20zM89 54c0 -26 9 -55 43 -55c18 0 50 11 76 37
c72 72 139 226 139 315c0 53 -15 71 -41 71c-21 0 -39 -16 -54 -31c-29 -30 -88 -119 -110 -163c-29 -59 -53 -124 -53 -174z" />
    <glyph glyph-name="c" unicode="c" horiz-adv-x="325" 
d="M260 443c-81 0 -172 -194 -172 -323c0 -68 17 -104 54 -104c55 0 110 101 125 131l10 -6c-7 -15 -72 -157 -175 -157c-60 0 -92 53 -92 121c0 96 47 205 120 278c47 47 101 76 156 76c63 0 73 -35 73 -47c0 -33 -31 -49 -50 -49c-18 0 -22 8 -27 27l-8 35
c-3 18 -9 18 -14 18z" />
    <glyph glyph-name="d" unicode="d" horiz-adv-x="469" 
d="M362 400c0 15 -7 45 -46 45c-26 0 -50 -10 -81 -41c-72 -72 -150 -224 -150 -323c0 -19 6 -60 39 -60c19 0 36 15 51 30c40 40 103 137 140 210c28 57 47 100 47 139zM460 625c5 15 12 39 12 48s-9 12 -32 15l-29 4v6l148 20l1 -2l-224 -628c-3 -9 -11 -30 -11 -36
c0 -4 3 -6 9 -6c30 0 56 39 89 99l8 -4c-28 -54 -74 -149 -161 -149c-23 0 -27 6 -27 14s8 28 53 150l42 115l-3 2c-39 -81 -98 -180 -157 -239c-28 -28 -60 -50 -98 -50c-36 0 -73 22 -73 87c0 91 60 225 147 311c46 46 103 77 153 77c47 0 64 -24 77 -49z" />
    <glyph glyph-name="e" unicode="e" horiz-adv-x="356" 
d="M107 -16c-69 0 -98 53 -98 120c0 166 144 355 288 355c53 0 78 -27 78 -66c0 -41 -24 -85 -101 -123c-38 -19 -92 -38 -168 -55c-12 -41 -19 -82 -19 -121c0 -62 21 -82 53 -82c66 0 127 106 138 126l11 -6c-8 -15 -80 -148 -182 -148zM271 445
c-54 0 -125 -103 -161 -217c72 16 122 35 152 65c35 35 42 77 42 101c0 25 -7 51 -33 51z" />
    <glyph glyph-name="f" unicode="f" horiz-adv-x="272" 
d="M-78 -234c-42 0 -59 26 -59 48c0 25 21 43 40 43c9 0 14 -3 25 -17l29 -34c8 -9 13 -12 18 -12c11 0 27 20 60 159l98 416c4 17 8 33 11 47h-67l11 28h63c16 65 28 105 46 141c29 58 76 121 161 121c57 0 99 -28 99 -61c0 -24 -20 -44 -41 -44c-11 0 -18 8 -28 22l-33 48
c-10 14 -15 21 -25 21c-24 0 -56 -30 -82 -139l-26 -109h104l-11 -28h-100l-95 -390c-21 -88 -70 -177 -120 -227c-20 -20 -45 -33 -78 -33z" />
    <glyph glyph-name="g" unicode="g" horiz-adv-x="392" 
d="M287 390c0 36 -10 56 -34 56c-68 0 -142 -151 -142 -255c0 -35 11 -56 35 -56c68 0 141 151 141 255zM305 -191c-29 -29 -87 -43 -157 -43c-106 0 -216 28 -216 98c0 41 40 79 167 128c-32 16 -41 29 -41 56c0 29 12 43 30 62l23 24c-46 22 -59 76 -59 107
c0 146 116 216 193 216c37 0 62 -16 77 -38l11 14c30 39 52 58 73 58c22 0 32 -18 32 -35c0 -19 -15 -38 -28 -38c-5 0 -10 2 -17 8l-17 16c-5 3 -7 3 -10 3c-7 0 -18 -10 -38 -34c14 -23 19 -51 19 -69c0 -147 -115 -218 -191 -218c-14 0 -27 2 -37 6
c-13 -14 -31 -31 -31 -45c0 -34 149 -64 227 -142c24 -24 25 -43 25 -58c0 -22 -10 -52 -35 -76zM217 -203c66 0 92 18 92 39c0 54 -125 116 -174 139c-9 4 -18 8 -25 11c-109 -40 -127 -68 -127 -87c0 -49 115 -102 234 -102z" />
    <glyph glyph-name="g.alt" horiz-adv-x="392" 
d="M287 390c0 36 -10 56 -34 56c-68 0 -142 -151 -142 -255c0 -35 11 -56 35 -56c68 0 141 151 141 255zM260 -189c-28 -30 -86 -45 -158 -45c-82 0 -195 28 -195 98c0 43 42 79 170 129c-22 13 -27 27 -27 52s19 45 37 65l22 24c-44 23 -57 77 -57 107
c0 146 116 216 193 216c37 0 62 -16 77 -38l11 14c30 39 52 58 73 58c22 0 32 -18 32 -35c0 -19 -15 -38 -28 -38c-5 0 -10 2 -17 8l-17 16c-5 3 -7 3 -10 3c-7 0 -18 -10 -38 -34c14 -23 19 -51 19 -69c0 -147 -115 -218 -191 -218c-15 0 -28 2 -39 7
c-17 -19 -33 -37 -33 -49c0 -28 76 -49 154 -110c45 -35 58 -64 58 -80c0 -27 -14 -57 -36 -81zM168 -203c70 0 93 20 93 39c0 54 -130 130 -157 143c-6 3 -12 5 -16 8c-109 -40 -132 -69 -132 -85c0 -52 110 -105 212 -105z" />
    <glyph glyph-name="h" unicode="h" horiz-adv-x="439" 
d="M49 0h-65l221 625c7 19 12 39 12 48s-9 12 -32 15l-29 4v6l149 20l1 -2l-174 -479l4 -2c46 84 88 155 125 191c23 24 45 33 70 33c33 0 54 -13 64 -23c23 -23 26 -53 26 -91c0 -47 -18 -194 -115 -291c-43 -43 -86 -70 -128 -70c-33 0 -43 19 -43 33c0 27 28 47 49 47
c8 0 11 -3 16 -15l10 -31c4 -12 5 -16 8 -16c7 0 30 19 61 80s70 186 70 269c0 22 -3 39 -16 52c-8 8 -23 15 -37 15c-11 0 -21 -2 -37 -18c-31 -31 -89 -124 -127 -200c-19 -38 -51 -108 -83 -200z" />
    <glyph glyph-name="h.alt" horiz-adv-x="459" 
d="M246 -8c-22 0 -26 6 -26 15c0 7 2 17 22 64l88 210c21 51 38 92 38 108c0 15 -11 27 -35 27c-26 0 -42 -14 -55 -27c-27 -27 -125 -166 -179 -274c-20 -40 -32 -69 -50 -115h-65l221 625c7 19 12 39 12 48s-9 12 -32 15l-29 4v6l150 20l1 -2l-198 -546l4 -2
c25 41 112 189 163 240c33 33 66 51 107 51c48 0 63 -27 63 -48c0 -17 -10 -50 -32 -103l-99 -243c-6 -14 -6 -19 1 -19c25 0 63 50 94 101l8 -4c-39 -65 -94 -151 -172 -151z" />
    <glyph glyph-name="i" unicode="i" horiz-adv-x="254" 
d="M252 583c-29 0 -45 19 -45 41c0 31 26 53 55 53c28 0 44 -19 44 -42c0 -29 -26 -52 -54 -52zM99 68c-6 -15 -6 -19 1 -19c27 0 64 50 95 104l8 -4c-39 -68 -88 -153 -166 -153c-22 0 -26 7 -26 16c0 7 3 17 16 49l130 319c6 15 6 19 -1 19c-25 0 -63 -50 -98 -111l-8 4
c43 75 92 161 170 161c22 0 26 -6 26 -15c0 -7 -4 -16 -22 -64z" />
    <glyph glyph-name="j" unicode="j" horiz-adv-x="243" 
d="M252 583c-29 0 -45 19 -45 41c0 31 26 53 55 53c28 0 44 -19 44 -42c0 -29 -26 -52 -54 -52zM158 380c5 15 6 19 -1 19c-25 0 -64 -50 -99 -111l-8 4c43 75 92 161 170 161c22 0 26 -6 26 -15c0 -7 -4 -15 -20 -64l-118 -355c-33 -100 -116 -253 -226 -253
c-37 0 -51 23 -51 42c0 23 19 39 36 39c8 0 13 -2 23 -15l25 -33c7 -9 11 -12 14 -12c12 0 44 42 99 205z" />
    <glyph glyph-name="k" unicode="k" horiz-adv-x="425" 
d="M278 -16c-18 0 -57 55 -97 200c-11 40 -13 41 -44 41h-1c-1 -3 -3 -5 -4 -8c-30 -59 -50 -117 -83 -217h-65l221 625c7 19 12 39 12 48s-9 12 -32 15l-29 4v6l149 20l1 -2l-167 -458l4 -2c82 129 163 207 220 207c42 0 75 -40 75 -83c0 -68 -62 -104 -204 -141l16 -54
c33 -106 57 -138 72 -138c10 0 18 8 51 49l7 -5c-23 -33 -78 -107 -102 -107zM249 378c-30 -30 -79 -91 -110 -147c142 19 225 52 225 123c0 35 -19 68 -45 68c-24 0 -47 -21 -70 -44z" />
    <glyph glyph-name="l" unicode="l" horiz-adv-x="224" 
d="M85 68c-5 -15 -6 -19 1 -19c27 0 64 50 95 104l8 -4c-39 -68 -88 -153 -164 -153c-22 0 -26 7 -26 16c0 7 3 16 13 45l201 568c5 15 12 39 12 48s-9 12 -32 15l-29 4v6l148 20l1 -2z" />
    <glyph glyph-name="m" unicode="m" horiz-adv-x="701" 
d="M572 281c21 51 38 92 38 108c0 15 -10 27 -35 27c-22 0 -35 -10 -46 -21c-38 -38 -158 -223 -231 -395h-66l110 281c20 51 38 92 38 108c0 15 -10 27 -35 27c-22 0 -35 -10 -46 -21c-38 -38 -166 -223 -231 -395h-66l151 386c3 8 7 18 7 23c0 6 -5 8 -12 8
c-14 0 -25 -8 -35 -18c-18 -18 -43 -53 -75 -108l-8 2c27 51 58 100 87 129c21 21 40 31 74 31c18 0 45 -5 45 -25c0 -11 -2 -22 -54 -145l-31 -75l4 -2c25 43 92 158 142 208c29 29 61 45 100 45c47 0 61 -27 61 -48c0 -17 -11 -50 -33 -103l-42 -100l4 -2
c25 43 90 158 140 208c29 29 61 45 100 45c47 0 61 -27 61 -48c0 -17 -10 -50 -32 -103l-99 -243c-6 -14 -6 -19 1 -19c25 0 63 50 94 101l8 -4c-39 -65 -94 -151 -172 -151c-22 0 -26 6 -26 15c0 7 2 17 22 64z" />
    <glyph glyph-name="n" unicode="n" horiz-adv-x="487" 
d="M248 7c0 7 2 17 22 64l88 210c21 51 38 92 38 108c0 15 -11 27 -35 27c-26 0 -42 -14 -55 -27c-36 -36 -181 -247 -238 -389h-66l151 386c3 8 7 18 7 23c0 6 -5 8 -12 8c-14 0 -25 -8 -35 -18c-18 -18 -43 -53 -75 -108l-8 2c27 51 58 100 87 129c21 21 40 31 74 31
c18 0 45 -5 45 -25c0 -11 -2 -22 -54 -145l-47 -113l4 -2c25 41 114 189 165 240c33 33 66 51 107 51c48 0 63 -27 63 -48c0 -17 -10 -50 -32 -103l-99 -243c-6 -14 -6 -19 1 -19c25 0 63 50 94 101l8 -4c-39 -65 -94 -151 -172 -151c-22 0 -26 6 -26 15z" />
    <glyph glyph-name="o" unicode="o" horiz-adv-x="404" 
d="M130 -16c-72 0 -116 55 -116 132c0 144 110 343 260 343c72 0 116 -55 116 -132c0 -144 -110 -343 -260 -343zM278 448c-43 0 -93 -62 -135 -146c-38 -76 -62 -168 -62 -239c0 -56 22 -68 45 -68c43 0 93 62 135 146c38 76 62 168 62 239c0 56 -22 68 -45 68z" />
    <glyph glyph-name="p" unicode="p" horiz-adv-x="418" 
d="M137 7c114 0 192 226 192 340c0 45 -7 96 -55 96c-31 0 -62 -18 -75 -26l-131 -385c22 -21 51 -25 69 -25zM76 -217v-7h-205v7l16 2c24 3 29 5 36 24l190 555c-28 -22 -63 -51 -89 -73l-4 11c28 24 68 57 100 83l60 176h64l2 -4l-42 -124c29 19 65 37 100 37
c48 0 96 -29 96 -127c0 -179 -118 -357 -243 -357c-38 0 -66 10 -93 35l-58 -173c-6 -18 -13 -41 -13 -49c0 -9 7 -13 41 -14z" />
    <glyph glyph-name="q" unicode="q" horiz-adv-x="441" 
d="M386 406c27 11 57 40 77 70l7 -4c-24 -49 -38 -98 -52 -141l-154 -482c-6 -19 -15 -43 -15 -51c0 -9 9 -11 43 -13l37 -2v-7h-235v7l45 2c28 1 32 3 40 25l159 461l-3 2c-39 -81 -98 -180 -157 -239c-28 -28 -60 -50 -98 -50c-36 0 -73 22 -73 87c0 91 60 225 147 311
c46 46 103 77 153 77c47 0 65 -23 79 -53zM362 400c0 15 -7 45 -46 45c-26 0 -50 -10 -81 -41c-72 -72 -150 -224 -150 -323c0 -19 6 -60 39 -60c19 0 36 15 51 30c40 40 103 137 140 210c28 57 47 100 47 139z" />
    <glyph glyph-name="r" unicode="r" horiz-adv-x="318" 
d="M135 170l4 -2c21 37 75 166 127 248c17 26 34 43 60 43c20 0 38 -12 38 -40c0 -16 -10 -41 -27 -54c-12 9 -39 24 -54 24c-7 0 -12 -4 -16 -8c-15 -15 -41 -64 -71 -124c-33 -66 -72 -143 -121 -257h-63l133 384c3 8 7 20 7 25c0 6 -6 8 -13 8c-14 0 -25 -8 -35 -18
c-18 -18 -43 -53 -75 -108l-8 2c27 51 58 100 86 128c21 21 39 32 72 32c18 0 43 -5 43 -25c0 -11 -2 -20 -47 -145z" />
    <glyph glyph-name="s" unicode="s" horiz-adv-x="299" 
d="M226 456c56 0 93 -29 93 -60c0 -27 -24 -40 -40 -40c-14 0 -19 5 -26 21l-20 50c-6 15 -12 17 -20 17c-43 0 -70 -30 -70 -64c0 -71 84 -182 84 -263c0 -82 -76 -131 -151 -131c-71 0 -97 31 -97 61c0 25 20 44 41 44c12 0 19 -4 27 -25l17 -49c6 -17 11 -18 22 -18
c41 0 75 24 75 74c0 90 -79 180 -79 247c0 70 48 136 144 136z" />
    <glyph glyph-name="t" unicode="t" horiz-adv-x="304" 
d="M247 159c-28 -55 -114 -175 -208 -175c-22 0 -29 7 -29 18c0 12 6 26 26 80l124 334h-75l11 28h74l46 124h64l2 -4l-44 -120h118l-11 -28h-117l-122 -335c-3 -9 -11 -31 -11 -37c0 -3 1 -6 7 -6c47 0 102 69 134 126z" />
    <glyph glyph-name="u" unicode="u" horiz-adv-x="490" 
d="M344 68c-6 -15 -6 -19 1 -19c25 0 63 50 94 104l8 -4c-39 -68 -87 -153 -165 -153c-22 0 -26 6 -26 15c0 11 3 30 55 153l53 128l-4 2c-31 -56 -118 -201 -161 -244c-41 -41 -76 -62 -117 -62c-48 0 -63 27 -63 48c0 17 10 50 32 103l103 241c6 15 6 19 -1 19
c-25 0 -63 -50 -98 -111l-8 4c43 75 88 161 166 161c22 0 26 -6 26 -15c0 -7 -2 -17 -22 -64l-82 -208c-21 -51 -38 -92 -38 -108c0 -15 11 -27 35 -27c26 0 44 17 64 37c29 29 169 237 226 379h66z" />
    <glyph glyph-name="v" unicode="v" horiz-adv-x="410" 
d="M117 147c0 -66 47 -108 83 -108c29 0 69 28 117 123c46 90 53 156 53 173c0 15 -3 19 -22 29l-19 10c-15 8 -20 12 -20 27c0 19 14 58 48 58c21 0 43 -23 43 -67c0 -50 -27 -151 -71 -240c-46 -89 -108 -168 -176 -168c-51 0 -98 51 -96 115c1 54 25 95 116 226l36 52
l-1 2h-91c-38 0 -51 -5 -60 -24c-6 -12 -14 -35 -18 -59l-9 -1c3 29 14 108 44 138c12 12 20 13 101 13h81l1 -5l-71 -123c-36 -62 -69 -114 -69 -171z" />
    <glyph glyph-name="w" unicode="w" horiz-adv-x="597" 
d="M318 153c0 -47 28 -114 78 -114c34 0 74 31 114 114c31 65 46 140 46 178c0 17 -2 23 -21 33l-19 10c-15 8 -20 12 -20 27c0 19 14 58 48 58c19 0 43 -23 43 -66c0 -34 -19 -157 -68 -254c-48 -96 -103 -155 -166 -155c-49 0 -84 45 -87 108c-42 -64 -87 -108 -135 -108
c-57 0 -90 47 -90 108c0 16 4 38 17 66c18 35 69 105 125 181l28 38l-1 2h-94c-38 0 -51 -5 -60 -24c-6 -12 -13 -34 -17 -59l-9 -1c3 29 14 108 44 138c9 9 13 13 83 13h107l1 -5l-86 -134c-62 -97 -72 -135 -72 -171c0 -56 34 -97 70 -97s84 52 120 127
c21 44 37 89 49 170c4 28 9 58 13 88c3 26 11 31 24 31c18 0 32 -10 32 -24s-17 -54 -36 -95c-36 -80 -61 -137 -61 -183z" />
    <glyph glyph-name="x" unicode="x" horiz-adv-x="419" 
d="M83 52c-33 -47 -51 -66 -81 -66c-12 0 -33 9 -33 38c0 19 8 37 24 52c15 -10 34 -29 52 -29c11 0 27 12 52 47l83 110l-30 192c-3 16 -6 19 -14 19c-20 0 -45 -40 -78 -124l-8 3c44 144 97 159 130 159c26 0 35 -9 41 -50l23 -145l96 133c33 47 51 66 81 66
c12 0 33 -9 33 -38c0 -19 -8 -37 -24 -52c-15 10 -34 29 -52 29c-11 0 -27 -12 -52 -47l-80 -106l30 -194c2 -16 7 -19 14 -19c20 0 45 40 78 124l9 -3c-44 -144 -98 -159 -131 -159c-25 0 -35 9 -41 50l-23 147z" />
    <glyph glyph-name="y" unicode="y" horiz-adv-x="433" 
d="M252 63c0 -12 0 -24 -1 -44l5 -1c77 120 104 207 104 278c0 65 -14 110 -14 134c0 26 26 34 43 34c16 0 25 -13 25 -42c1 -183 -126 -414 -239 -531c-88 -88 -173 -125 -240 -125c-45 0 -63 22 -63 46c0 23 19 41 38 41c11 0 15 -5 26 -19l20 -26c12 -16 22 -20 29 -20
c29 0 134 47 173 129c24 49 25 82 25 132c0 124 -26 250 -58 317c-16 32 -29 46 -39 46c-12 0 -19 -33 -19 -83c0 -19 2 -35 4 -61l-9 -2c-4 23 -7 59 -7 71c0 32 2 63 14 86c14 26 44 44 61 44c16 0 37 -23 56 -61c37 -77 66 -197 66 -343z" />
    <glyph glyph-name="z" unicode="z" horiz-adv-x="411" 
d="M127 413c-18 0 -29 -11 -29 -16c0 -3 4 -10 7 -15l18 -30c6 -10 7 -13 7 -16c0 -12 -23 -29 -45 -29c-23 0 -32 14 -32 30c0 40 71 122 133 122c19 0 33 -4 55 -12c28 -11 117 -42 150 -42c4 0 8 1 10 3l42 42l15 -7v-5l-389 -342l1 -4c71 0 163 -59 237 -59
c22 0 27 11 27 14c0 4 -3 9 -8 15l-26 29c-9 10 -11 17 -11 21c0 11 20 24 41 24c27 0 39 -17 39 -36c0 -33 -31 -74 -53 -95c-19 -19 -33 -27 -55 -27c-79 0 -179 62 -252 62c-8 0 -10 -4 -11 -16v-13c0 -8 -4 -11 -10 -11c-8 0 -16 5 -16 12c0 15 28 42 63 72l298 263
l-1 4c-83 18 -169 62 -205 62z" />
    <glyph glyph-name="z.alt" horiz-adv-x="411" 
d="M67 89c48 -6 79 -22 119 -42c63 -32 115 -57 154 -57c12 0 22 4 22 11c0 3 -1 6 -6 16l-18 35c-5 10 -6 14 -6 19c0 13 19 25 40 25c24 0 42 -13 42 -36c0 -19 -15 -54 -76 -93c-28 -18 -45 -25 -64 -25c-65 0 -187 98 -265 98c-8 0 -10 -4 -11 -16v-13
c0 -8 -4 -11 -10 -11c-8 0 -16 5 -16 12c0 15 28 42 63 72l298 263l-1 4c-83 18 -169 62 -205 62c-18 0 -29 -11 -29 -16c0 -3 4 -10 7 -15l18 -30c6 -10 7 -13 7 -16c0 -12 -23 -29 -45 -29c-23 0 -32 14 -32 30c0 40 71 122 133 122c19 0 33 -4 55 -12
c28 -11 117 -42 150 -42c4 0 8 1 10 3l42 42l15 -7v-5l-392 -345z" />
    <glyph glyph-name="Aacute" unicode="&#xc1;" horiz-adv-x="637" 
d="M493 744l-3 4c32 26 62 54 93 83l53 49c29 27 49 45 67 45c24 0 38 -20 38 -39c0 -21 -15 -31 -65 -54l-69 -32c-38 -18 -78 -37 -114 -56zM476 624l-242 -343h203l17 123c16 116 24 182 27 220h-5zM148 6v-6h-237v6l27 4c68 10 75 18 123 83l112 150
c141 186 295 390 310 417c16 4 59 18 84 35l5 -1l-76 -593c-11 -82 -9 -85 35 -89l40 -4v-8h-273v8l36 4c65 7 69 15 76 65l25 184h-215l-42 -59c-92 -133 -106 -158 -106 -168c0 -6 3 -14 39 -21z" />
    <glyph glyph-name="aacute" unicode="&#xe1;" horiz-adv-x="466" 
d="M424 601c-34 -24 -70 -51 -101 -77l-4 3c26 32 54 70 77 104l42 62c26 38 38 53 59 53c22 0 41 -20 41 -42s-16 -35 -54 -61zM253 -16c-18 0 -20 6 -20 13c0 10 4 21 61 168l19 50l-4 2c-32 -62 -94 -140 -124 -170c-35 -35 -75 -59 -115 -59c-27 0 -62 14 -62 75
c0 94 66 218 146 298c51 51 107 84 156 84c38 0 63 -23 66 -56h3l28 70h63l2 -4l-142 -364c-7 -19 -16 -41 -16 -49c0 -2 0 -4 3 -4c23 0 82 66 108 107l8 -4c-34 -60 -122 -157 -180 -157zM358 388c0 27 -16 43 -40 43c-23 0 -55 -17 -84 -47c-66 -66 -151 -222 -151 -313
c0 -21 4 -49 30 -49c25 0 47 20 65 38c112 112 180 268 180 328z" />
    <glyph glyph-name="Abreve" unicode="&#x102;" horiz-adv-x="637" 
d="M719 906l4 -1c-31 -88 -86 -153 -182 -153c-93 0 -123 66 -100 153l4 1c-1 -69 60 -88 109 -88c50 0 127 15 165 88zM476 624l-242 -343h203l17 123c16 116 24 182 27 220h-5zM148 6v-6h-237v6l27 4c68 10 75 18 123 83l112 150c141 186 295 390 310 417
c16 4 59 18 84 35l5 -1l-76 -593c-11 -82 -9 -85 35 -89l40 -4v-8h-273v8l36 4c65 7 69 15 76 65l25 184h-215l-42 -59c-92 -133 -106 -158 -106 -168c0 -6 3 -14 39 -21z" />
    <glyph glyph-name="abreve" unicode="&#x103;" horiz-adv-x="466" 
d="M519 710l3 -1c-33 -107 -90 -177 -179 -177c-86 0 -114 71 -83 177l3 1c-8 -87 41 -112 93 -112c53 0 122 21 163 112zM253 -16c-18 0 -20 6 -20 13c0 10 4 21 61 168l19 50l-4 2c-32 -62 -94 -140 -124 -170c-35 -35 -75 -59 -115 -59c-27 0 -62 14 -62 75
c0 94 66 218 146 298c51 51 107 84 156 84c38 0 63 -23 66 -56h3l28 70h63l2 -4l-142 -364c-7 -19 -16 -41 -16 -49c0 -2 0 -4 3 -4c23 0 82 66 108 107l8 -4c-34 -60 -122 -157 -180 -157zM358 388c0 27 -16 43 -40 43c-23 0 -55 -17 -84 -47c-66 -66 -151 -222 -151 -313
c0 -21 4 -49 30 -49c25 0 47 20 65 38c112 112 180 268 180 328z" />
    <glyph glyph-name="Acircumflex" unicode="&#xc2;" horiz-adv-x="637" 
d="M685 746l-2 -2l-108 92l-184 -92l-3 2l203 170h8zM476 624l-242 -343h203l17 123c16 116 24 182 27 220h-5zM148 6v-6h-237v6l27 4c68 10 75 18 123 83l112 150c141 186 295 390 310 417c16 4 59 18 84 35l5 -1l-76 -593c-11 -82 -9 -85 35 -89l40 -4v-8h-273v8l36 4
c65 7 69 15 76 65l25 184h-215l-42 -59c-92 -133 -106 -158 -106 -168c0 -6 3 -14 39 -21z" />
    <glyph glyph-name="acircumflex" unicode="&#xe2;" horiz-adv-x="466" 
d="M467 526l-4 -2l-75 121l-173 -121l-5 2l200 220h8zM253 -16c-18 0 -20 6 -20 13c0 10 4 21 61 168l19 50l-4 2c-32 -62 -94 -140 -124 -170c-35 -35 -75 -59 -115 -59c-27 0 -62 14 -62 75c0 94 66 218 146 298c51 51 107 84 156 84c38 0 63 -23 66 -56h3l28 70h63l2 -4
l-142 -364c-7 -19 -16 -41 -16 -49c0 -2 0 -4 3 -4c23 0 82 66 108 107l8 -4c-34 -60 -122 -157 -180 -157zM358 388c0 27 -16 43 -40 43c-23 0 -55 -17 -84 -47c-66 -66 -151 -222 -151 -313c0 -21 4 -49 30 -49c25 0 47 20 65 38c112 112 180 268 180 328z" />
    <glyph glyph-name="Adieresis" unicode="&#xc4;" horiz-adv-x="637" 
d="M658 746c-25 0 -40 18 -40 37c0 30 25 51 53 51c25 0 40 -18 40 -37c0 -30 -25 -51 -53 -51zM460 746c-27 0 -41 18 -41 38c0 29 24 50 51 50c26 0 40 -18 40 -39c0 -28 -24 -49 -50 -49zM476 624l-242 -343h203l17 123c16 116 24 182 27 220h-5zM148 6v-6h-237v6l27 4
c68 10 75 18 123 83l112 150c141 186 295 390 310 417c16 4 59 18 84 35l5 -1l-76 -593c-11 -82 -9 -85 35 -89l40 -4v-8h-273v8l36 4c65 7 69 15 76 65l25 184h-215l-42 -59c-92 -133 -106 -158 -106 -168c0 -6 3 -14 39 -21z" />
    <glyph glyph-name="adieresis" unicode="&#xe4;" horiz-adv-x="466" 
d="M451 526c-25 0 -40 18 -40 37c0 30 25 51 53 51c25 0 40 -18 40 -37c0 -30 -25 -51 -53 -51zM273 526c-27 0 -41 18 -41 38c0 29 24 50 51 50c26 0 40 -18 40 -39c0 -28 -24 -49 -50 -49zM253 -16c-18 0 -20 6 -20 13c0 10 4 21 61 168l19 50l-4 2
c-32 -62 -94 -140 -124 -170c-35 -35 -75 -59 -115 -59c-27 0 -62 14 -62 75c0 94 66 218 146 298c51 51 107 84 156 84c38 0 63 -23 66 -56h3l28 70h63l2 -4l-142 -364c-7 -19 -16 -41 -16 -49c0 -2 0 -4 3 -4c23 0 82 66 108 107l8 -4c-34 -60 -122 -157 -180 -157z
M358 388c0 27 -16 43 -40 43c-23 0 -55 -17 -84 -47c-66 -66 -151 -222 -151 -313c0 -21 4 -49 30 -49c25 0 47 20 65 38c112 112 180 268 180 328z" />
    <glyph glyph-name="AE" unicode="&#xc6;" horiz-adv-x="904" 
d="M283 299c-5 -6 -11 -12 -16 -18h192l85 251c11 34 21 62 26 82zM124 6v-6h-237v6l27 4c62 9 65 14 126 76l535 552c0 12 -11 16 -43 19l-39 3v8h479l-54 -163h-7c-1 78 -3 110 -18 125c-13 13 -38 17 -116 20l-106 4l-103 -305l105 3c44 2 65 4 91 30c9 9 23 25 47 65
l9 16l8 -2l-88 -251h-9l2 22c5 60 4 79 -6 89c-8 8 -17 10 -62 12l-101 3l-67 -200c-18 -53 -31 -90 -31 -104c0 -12 9 -17 40 -17c99 0 174 3 234 36c32 17 66 48 116 114l6 -4l-76 -161h-505v8l37 3c41 4 50 8 60 32c6 13 17 50 33 96l41 122h-204
c-64 -70 -131 -143 -169 -187c-26 -30 -34 -41 -34 -46c0 -7 11 -11 47 -17z" />
    <glyph glyph-name="ae" unicode="&#xe6;" horiz-adv-x="585" 
d="M336 -16c-64 0 -94 46 -98 106c-53 -62 -107 -102 -163 -102c-37 0 -74 16 -74 85c0 86 73 228 246 319c89 47 199 67 279 67c53 0 78 -27 78 -66c0 -41 -24 -85 -101 -123c-38 -19 -92 -38 -168 -55c-12 -41 -19 -82 -19 -121c0 -62 21 -82 53 -82c66 0 127 106 138 126
l11 -6c-8 -15 -80 -148 -182 -148zM500 445c-54 0 -125 -103 -161 -217c72 16 122 35 152 65c35 35 42 77 42 101c0 25 -7 51 -33 51zM115 19c26 0 73 25 123 86c1 136 96 284 208 335c-38 -4 -85 -13 -131 -35c-139 -65 -238 -231 -238 -334c0 -31 12 -52 38 -52z" />
    <glyph glyph-name="AEacute" unicode="&#x1fc;" horiz-adv-x="904" 
d="M667 744l-3 4c32 26 62 54 93 83l53 49c29 27 49 45 67 45c24 0 38 -20 38 -39c0 -21 -15 -31 -65 -54l-69 -32c-38 -18 -78 -37 -114 -56zM283 299c-5 -6 -11 -12 -16 -18h192l85 251c11 34 21 62 26 82zM124 6v-6h-237v6l27 4c62 9 65 14 126 76l535 552
c0 12 -11 16 -43 19l-39 3v8h479l-54 -163h-7c-1 78 -3 110 -18 125c-13 13 -38 17 -116 20l-106 4l-103 -305l105 3c44 2 65 4 91 30c9 9 23 25 47 65l9 16l8 -2l-88 -251h-9l2 22c5 60 4 79 -6 89c-8 8 -17 10 -62 12l-101 3l-67 -200c-18 -53 -31 -90 -31 -104
c0 -12 9 -17 40 -17c99 0 174 3 234 36c32 17 66 48 116 114l6 -4l-76 -161h-505v8l37 3c41 4 50 8 60 32c6 13 17 50 33 96l41 122h-204c-64 -70 -131 -143 -169 -187c-26 -30 -34 -41 -34 -46c0 -7 11 -11 47 -17z" />
    <glyph glyph-name="aeacute" unicode="&#x1fd;" horiz-adv-x="585" 
d="M494 601c-34 -24 -70 -51 -101 -77l-4 3c26 32 54 70 77 104l42 62c26 38 38 53 59 53c22 0 41 -20 41 -42s-16 -35 -54 -61zM336 -16c-64 0 -94 46 -98 106c-53 -62 -107 -102 -163 -102c-37 0 -74 16 -74 85c0 86 73 228 246 319c89 47 199 67 279 67
c53 0 78 -27 78 -66c0 -41 -24 -85 -101 -123c-38 -19 -92 -38 -168 -55c-12 -41 -19 -82 -19 -121c0 -62 21 -82 53 -82c66 0 127 106 138 126l11 -6c-8 -15 -80 -148 -182 -148zM500 445c-54 0 -125 -103 -161 -217c72 16 122 35 152 65c35 35 42 77 42 101
c0 25 -7 51 -33 51zM115 19c26 0 73 25 123 86c1 136 96 284 208 335c-38 -4 -85 -13 -131 -35c-139 -65 -238 -231 -238 -334c0 -31 12 -52 38 -52z" />
    <glyph glyph-name="Agrave" unicode="&#xc0;" horiz-adv-x="637" 
d="M510 830c29 -31 51 -56 78 -82l-3 -4c-31 19 -62 35 -99 55l-61 32c-48 25 -58 34 -58 55c0 19 14 39 38 39c18 0 33 -17 60 -46zM476 624l-242 -343h203l17 123c16 116 24 182 27 220h-5zM148 6v-6h-237v6l27 4c68 10 75 18 123 83l112 150c141 186 295 390 310 417
c16 4 59 18 84 35l5 -1l-76 -593c-11 -82 -9 -85 35 -89l40 -4v-8h-273v8l36 4c65 7 69 15 76 65l25 184h-215l-42 -59c-92 -133 -106 -158 -106 -168c0 -6 3 -14 39 -21z" />
    <glyph glyph-name="agrave" unicode="&#xe0;" horiz-adv-x="466" 
d="M372 524c-27 26 -55 52 -86 78l-52 43c-28 24 -47 36 -47 57c0 23 20 44 44 44c21 0 31 -16 50 -53l33 -63c19 -36 41 -71 62 -103zM253 -16c-18 0 -20 6 -20 13c0 10 4 21 61 168l19 50l-4 2c-32 -62 -94 -140 -124 -170c-35 -35 -75 -59 -115 -59c-27 0 -62 14 -62 75
c0 94 66 218 146 298c51 51 107 84 156 84c38 0 63 -23 66 -56h3l28 70h63l2 -4l-142 -364c-7 -19 -16 -41 -16 -49c0 -2 0 -4 3 -4c23 0 82 66 108 107l8 -4c-34 -60 -122 -157 -180 -157zM358 388c0 27 -16 43 -40 43c-23 0 -55 -17 -84 -47c-66 -66 -151 -222 -151 -313
c0 -21 4 -49 30 -49c25 0 47 20 65 38c112 112 180 268 180 328z" />
    <glyph glyph-name="Amacron" unicode="&#x100;" horiz-adv-x="637" 
d="M715 760h-321l13 38h321zM476 624l-242 -343h203l17 123c16 116 24 182 27 220h-5zM148 6v-6h-237v6l27 4c68 10 75 18 123 83l112 150c141 186 295 390 310 417c16 4 59 18 84 35l5 -1l-76 -593c-11 -82 -9 -85 35 -89l40 -4v-8h-273v8l36 4c65 7 69 15 76 65l25 184
h-215l-42 -59c-92 -133 -106 -158 -106 -168c0 -6 3 -14 39 -21z" />
    <glyph glyph-name="amacron" unicode="&#x101;" horiz-adv-x="466" 
d="M498 540h-281l13 38h281zM253 -16c-18 0 -20 6 -20 13c0 10 4 21 61 168l19 50l-4 2c-32 -62 -94 -140 -124 -170c-35 -35 -75 -59 -115 -59c-27 0 -62 14 -62 75c0 94 66 218 146 298c51 51 107 84 156 84c38 0 63 -23 66 -56h3l28 70h63l2 -4l-142 -364
c-7 -19 -16 -41 -16 -49c0 -2 0 -4 3 -4c23 0 82 66 108 107l8 -4c-34 -60 -122 -157 -180 -157zM358 388c0 27 -16 43 -40 43c-23 0 -55 -17 -84 -47c-66 -66 -151 -222 -151 -313c0 -21 4 -49 30 -49c25 0 47 20 65 38c112 112 180 268 180 328z" />
    <glyph glyph-name="Aogonek" unicode="&#x104;" horiz-adv-x="637" 
d="M476 624l-242 -343h203l17 123c16 116 24 182 27 220h-5zM476 -177c-23 -25 -55 -63 -104 -63c-40 0 -72 29 -72 70c0 37 24 66 63 97c37 29 73 54 100 73h-165v8l36 4c65 7 69 15 76 65l25 184h-215l-42 -59c-92 -133 -106 -158 -106 -168c0 -6 3 -14 39 -21l37 -7v-6
h-237v6l27 4c68 10 75 18 123 83l112 150c141 186 295 390 310 417c16 4 59 18 84 35l5 -1l-76 -593c-11 -82 -9 -85 35 -89l40 -4v-8h-98c-87 -71 -116 -106 -116 -148s30 -55 55 -55c26 0 41 12 61 29z" />
    <glyph glyph-name="aogonek" unicode="&#x105;" horiz-adv-x="466" 
d="M253 -16c-18 0 -20 6 -20 13c0 10 4 21 61 168l19 50l-4 2c-32 -62 -94 -140 -124 -170c-35 -35 -75 -59 -115 -59c-27 0 -62 14 -62 75c0 94 66 218 146 298c51 51 107 84 156 84c38 0 63 -23 66 -56h3l28 70h63l2 -4l-142 -364c-7 -19 -16 -41 -16 -49c0 -2 0 -4 3 -4
c23 0 82 66 108 107l8 -4c-4 -7 -44 -75 -99 -153c-51 -73 -70 -105 -70 -136c0 -42 30 -55 55 -55c26 0 41 12 61 29l3 -3c-23 -25 -55 -63 -104 -63c-40 0 -72 29 -72 70c0 31 14 54 60 101c43 43 78 89 97 118l-2 1c-31 -32 -75 -66 -109 -66zM358 388
c0 27 -16 43 -40 43c-23 0 -55 -17 -84 -47c-66 -66 -151 -222 -151 -313c0 -21 4 -49 30 -49c25 0 47 20 65 38c112 112 180 268 180 328z" />
    <glyph glyph-name="Aring" unicode="&#xc5;" horiz-adv-x="637" 
d="M599 674c0 41 -33 74 -73 74s-73 -33 -73 -74c0 -42 33 -75 73 -75s73 33 73 75zM454 404c14 102 20 152 24 188c-6 3 -12 7 -16 12l-228 -323h203zM148 6v-6h-237v6l27 4c68 10 75 18 123 83l112 150c108 142 224 295 279 372c-13 16 -21 36 -21 59c0 52 42 94 95 94
s95 -42 95 -94c0 -42 -26 -77 -63 -90l-62 -483c-11 -82 -9 -85 35 -89l40 -4v-8h-273v8l36 4c65 7 69 15 76 65l25 184h-215l-42 -59c-93 -132 -106 -158 -106 -168c0 -6 3 -14 39 -21z" />
    <glyph glyph-name="aring" unicode="&#xe5;" horiz-adv-x="466" 
d="M289 619c0 52 42 94 95 94s95 -42 95 -94c0 -53 -42 -95 -95 -95s-95 42 -95 95zM457 619c0 41 -33 74 -73 74s-73 -33 -73 -74c0 -42 33 -75 73 -75s73 33 73 75zM253 -16c-18 0 -20 6 -20 13c0 10 4 21 61 168l19 50l-4 2c-32 -62 -94 -140 -124 -170
c-35 -35 -75 -59 -115 -59c-27 0 -62 14 -62 75c0 94 66 218 146 298c51 51 107 84 156 84c38 0 63 -23 66 -56h3l28 70h63l2 -4l-142 -364c-7 -19 -16 -41 -16 -49c0 -2 0 -4 3 -4c23 0 82 66 108 107l8 -4c-34 -60 -122 -157 -180 -157zM358 388c0 27 -16 43 -40 43
c-23 0 -55 -17 -84 -47c-66 -66 -151 -222 -151 -313c0 -21 4 -49 30 -49c25 0 47 20 65 38c112 112 180 268 180 328z" />
    <glyph glyph-name="Aringacute" unicode="&#x1fa;" horiz-adv-x="637" 
d="M552 812l-3 4c32 26 62 54 93 83l53 49c29 27 49 45 67 45c24 0 38 -20 38 -39c0 -21 -15 -31 -65 -54l-69 -32c-38 -18 -78 -37 -114 -56zM599 674c0 41 -33 74 -73 74s-73 -33 -73 -74c0 -42 33 -75 73 -75s73 33 73 75zM454 404c14 102 20 152 24 188
c-6 3 -12 7 -16 12l-228 -323h203zM148 6v-6h-237v6l27 4c68 10 75 18 123 83l112 150c108 142 224 295 279 372c-13 16 -21 36 -21 59c0 52 42 94 95 94s95 -42 95 -94c0 -42 -26 -77 -63 -90l-62 -483c-11 -82 -9 -85 35 -89l40 -4v-8h-273v8l36 4c65 7 69 15 76 65
l25 184h-215l-42 -59c-93 -132 -106 -158 -106 -168c0 -6 3 -14 39 -21z" />
    <glyph glyph-name="aringacute" unicode="&#x1fb;" horiz-adv-x="466" 
d="M525 830c-34 -24 -70 -51 -101 -77l-4 3c26 32 54 70 77 104l42 62c26 38 38 53 59 53c22 0 41 -20 41 -42s-16 -35 -54 -61zM289 619c0 52 42 94 95 94s95 -42 95 -94c0 -53 -42 -95 -95 -95s-95 42 -95 95zM457 619c0 41 -33 74 -73 74s-73 -33 -73 -74
c0 -42 33 -75 73 -75s73 33 73 75zM253 -16c-18 0 -20 6 -20 13c0 10 4 21 61 168l19 50l-4 2c-32 -62 -94 -140 -124 -170c-35 -35 -75 -59 -115 -59c-27 0 -62 14 -62 75c0 94 66 218 146 298c51 51 107 84 156 84c38 0 63 -23 66 -56h3l28 70h63l2 -4l-142 -364
c-7 -19 -16 -41 -16 -49c0 -2 0 -4 3 -4c23 0 82 66 108 107l8 -4c-34 -60 -122 -157 -180 -157zM358 388c0 27 -16 43 -40 43c-23 0 -55 -17 -84 -47c-66 -66 -151 -222 -151 -313c0 -21 4 -49 30 -49c25 0 47 20 65 38c112 112 180 268 180 328z" />
    <glyph glyph-name="Atilde" unicode="&#xc3;" horiz-adv-x="637" 
d="M402 744l-5 1c44 88 68 131 114 131c24 0 48 -16 80 -32c40 -20 56 -31 72 -31c23 0 41 14 81 72l5 -1c-44 -88 -68 -131 -114 -131c-24 0 -48 16 -80 32c-40 20 -57 31 -73 31c-23 0 -40 -14 -80 -72zM476 624l-242 -343h203l17 123c16 116 24 182 27 220h-5zM148 6v-6
h-237v6l27 4c68 10 75 18 123 83l112 150c141 186 295 390 310 417c16 4 59 18 84 35l5 -1l-76 -593c-11 -82 -9 -85 35 -89l40 -4v-8h-273v8l36 4c65 7 69 15 76 65l25 184h-215l-42 -59c-92 -133 -106 -158 -106 -168c0 -6 3 -14 39 -21z" />
    <glyph glyph-name="atilde" unicode="&#xe3;" horiz-adv-x="466" 
d="M225 524l-5 1c36 88 58 131 100 131c24 0 47 -16 74 -32c36 -21 53 -31 69 -31c19 0 32 14 64 72l5 -1c-36 -88 -58 -131 -100 -131c-24 0 -47 16 -74 32c-36 21 -53 31 -69 31c-19 0 -32 -14 -64 -72zM253 -16c-18 0 -20 6 -20 13c0 10 4 21 61 168l19 50l-4 2
c-32 -62 -94 -140 -124 -170c-35 -35 -75 -59 -115 -59c-27 0 -62 14 -62 75c0 94 66 218 146 298c51 51 107 84 156 84c38 0 63 -23 66 -56h3l28 70h63l2 -4l-142 -364c-7 -19 -16 -41 -16 -49c0 -2 0 -4 3 -4c23 0 82 66 108 107l8 -4c-34 -60 -122 -157 -180 -157z
M358 388c0 27 -16 43 -40 43c-23 0 -55 -17 -84 -47c-66 -66 -151 -222 -151 -313c0 -21 4 -49 30 -49c25 0 47 20 65 38c112 112 180 268 180 328z" />
    <glyph glyph-name="Cacute" unicode="&#x106;" horiz-adv-x="649" 
d="M437 744l-3 4c32 26 62 54 93 83l53 49c29 27 49 45 67 45c24 0 38 -20 38 -39c0 -21 -15 -31 -65 -54l-69 -32c-38 -18 -78 -37 -114 -56zM70 226c0 245 181 458 415 458c54 0 89 -10 154 -34c11 -4 19 -7 24 -7c6 0 10 3 15 10l7 9l8 -2c-11 -57 -29 -165 -44 -213h-7
c-4 93 -14 130 -28 159c-19 37 -60 65 -119 65c-203 0 -336 -259 -336 -474c0 -127 55 -200 147 -200c75 0 163 53 274 214l8 -4c-25 -67 -58 -136 -83 -182c-84 -34 -169 -41 -196 -41c-170 0 -239 112 -239 242z" />
    <glyph glyph-name="cacute" unicode="&#x107;" horiz-adv-x="325" 
d="M349 601c-34 -24 -70 -51 -101 -77l-4 3c26 32 54 70 77 104l42 62c26 38 38 53 59 53c22 0 41 -20 41 -42s-16 -35 -54 -61zM260 443c-81 0 -172 -194 -172 -323c0 -68 17 -104 54 -104c55 0 110 101 125 131l10 -6c-7 -15 -72 -157 -175 -157c-60 0 -92 53 -92 121
c0 96 47 205 120 278c47 47 101 76 156 76c63 0 73 -35 73 -47c0 -33 -31 -49 -50 -49c-18 0 -22 8 -27 27l-8 35c-3 18 -9 18 -14 18z" />
    <glyph glyph-name="Ccaron" unicode="&#x10c;" horiz-adv-x="649" 
d="M405 914l2 2l108 -92l184 92l3 -2l-203 -170h-8zM70 226c0 245 181 458 415 458c54 0 89 -10 154 -34c11 -4 19 -7 24 -7c6 0 10 3 15 10l7 9l8 -2c-11 -57 -29 -165 -44 -213h-7c-4 93 -14 130 -28 159c-19 37 -60 65 -119 65c-203 0 -336 -259 -336 -474
c0 -127 55 -200 147 -200c75 0 163 53 274 214l8 -4c-25 -67 -58 -136 -83 -182c-84 -34 -169 -41 -196 -41c-170 0 -239 112 -239 242z" />
    <glyph glyph-name="ccaron" unicode="&#x10d;" horiz-adv-x="325" 
d="M224 744l4 2l75 -121l173 121l5 -2l-200 -220h-8zM260 443c-81 0 -172 -194 -172 -323c0 -68 17 -104 54 -104c55 0 110 101 125 131l10 -6c-7 -15 -72 -157 -175 -157c-60 0 -92 53 -92 121c0 96 47 205 120 278c47 47 101 76 156 76c63 0 73 -35 73 -47
c0 -33 -31 -49 -50 -49c-18 0 -22 8 -27 27l-8 35c-3 18 -9 18 -14 18z" />
    <glyph glyph-name="Ccedilla" unicode="&#xc7;" horiz-adv-x="649" 
d="M202 -252c-29 0 -63 5 -85 13l4 8c17 -5 44 -8 70 -8c78 0 116 39 116 76c0 30 -22 54 -97 64v3l75 81c-152 10 -215 117 -215 241c0 245 181 458 415 458c54 0 89 -10 154 -34c11 -4 19 -7 24 -7c6 0 10 3 15 10l7 9l8 -2c-11 -57 -29 -165 -44 -213h-7
c-4 93 -14 130 -28 159c-19 37 -60 65 -119 65c-203 0 -336 -259 -336 -474c0 -127 55 -200 147 -200c75 0 163 53 274 214l8 -4c-25 -67 -58 -136 -83 -182c-84 -34 -169 -41 -196 -41h-10l-38 -42c85 -14 102 -49 102 -81c0 -63 -63 -113 -161 -113z" />
    <glyph glyph-name="ccedilla" unicode="&#xe7;" horiz-adv-x="325" 
d="M12 -252c-29 0 -63 5 -85 13l4 8c17 -5 44 -8 70 -8c78 0 116 39 116 76c0 30 -22 54 -97 64v3l75 80c-55 4 -85 56 -85 121c0 96 47 205 120 278c47 47 101 76 156 76c63 0 73 -35 73 -47c0 -33 -31 -49 -50 -49c-18 0 -22 8 -27 27l-8 35c-3 18 -9 18 -14 18
c-81 0 -172 -194 -172 -323c0 -68 17 -104 54 -104c55 0 110 101 125 131l10 -6c-7 -15 -69 -150 -167 -157l-39 -42c85 -14 102 -49 102 -81c0 -63 -63 -113 -161 -113z" />
    <glyph glyph-name="Cdotaccent" unicode="&#x10a;" horiz-adv-x="649" 
d="M505 746c-28 0 -42 18 -42 39c0 29 25 51 52 51s41 -18 41 -40c0 -28 -25 -50 -51 -50zM70 226c0 245 181 458 415 458c54 0 89 -10 154 -34c11 -4 19 -7 24 -7c6 0 10 3 15 10l7 9l8 -2c-11 -57 -29 -165 -44 -213h-7c-4 93 -14 130 -28 159c-19 37 -60 65 -119 65
c-203 0 -336 -259 -336 -474c0 -127 55 -200 147 -200c75 0 163 53 274 214l8 -4c-25 -67 -58 -136 -83 -182c-84 -34 -169 -41 -196 -41c-170 0 -239 112 -239 242z" />
    <glyph glyph-name="cdotaccent" unicode="&#x10b;" horiz-adv-x="325" 
d="M289 526c-28 0 -42 18 -42 39c0 29 25 51 52 51s41 -18 41 -40c0 -28 -25 -50 -51 -50zM260 443c-81 0 -172 -194 -172 -323c0 -68 17 -104 54 -104c55 0 110 101 125 131l10 -6c-7 -15 -72 -157 -175 -157c-60 0 -92 53 -92 121c0 96 47 205 120 278
c47 47 101 76 156 76c63 0 73 -35 73 -47c0 -33 -31 -49 -50 -49c-18 0 -22 8 -27 27l-8 35c-3 18 -9 18 -14 18z" />
    <glyph glyph-name="Dcaron" unicode="&#x10e;" horiz-adv-x="697" 
d="M369 914l2 2l108 -92l184 92l3 -2l-203 -170h-8zM218 528c20 58 30 91 30 108c0 13 -7 19 -50 19h-32v8c100 7 163 9 206 9c249 0 326 -129 326 -263c0 -156 -109 -415 -494 -415c-79 0 -99 6 -249 6v8l38 3c41 4 50 8 60 32c6 13 17 50 33 96zM350 660
c-12 -25 -27 -73 -40 -112l-140 -416c-18 -53 -30 -88 -30 -102c0 -12 12 -22 53 -22h3c152 0 239 57 285 103c83 83 126 206 126 316c0 65 -16 127 -58 169c-38 38 -92 64 -199 64z" />
    <glyph glyph-name="dcaron" unicode="&#x10f;" horiz-adv-x="469" 
d="M627 591c-23 -30 -43 -61 -62 -90l-3 1c10 33 21 71 30 105l18 66c10 35 24 54 44 54s39 -14 39 -32c0 -17 -13 -36 -31 -59zM362 400c0 15 -7 45 -46 45c-26 0 -50 -10 -81 -41c-72 -72 -150 -224 -150 -323c0 -19 6 -60 39 -60c19 0 36 15 51 30c40 40 103 137 140 210
c28 57 47 100 47 139zM460 625c5 15 12 39 12 48s-9 12 -32 15l-29 4v6l148 20l1 -2l-224 -628c-3 -9 -11 -30 -11 -36c0 -4 3 -6 9 -6c30 0 56 39 89 99l8 -4c-28 -54 -74 -149 -161 -149c-23 0 -27 6 -27 14s8 28 53 150l42 115l-3 2c-39 -81 -98 -180 -157 -239
c-28 -28 -60 -50 -98 -50c-36 0 -73 22 -73 87c0 91 60 225 147 311c46 46 103 77 153 77c47 0 64 -24 77 -49z" />
    <glyph glyph-name="Dcroat" unicode="&#x110;" horiz-adv-x="697" 
d="M204 -6c-79 0 -99 6 -249 6v8l38 3c41 4 50 8 60 32c6 13 17 50 33 96l68 199h-89v17h94l59 173c20 58 30 91 30 108c0 13 -7 19 -50 19h-32v8c100 7 163 9 206 9c249 0 326 -129 326 -263c0 -156 -109 -415 -494 -415zM193 8h3c152 0 239 57 285 103
c83 83 126 206 126 316c0 65 -16 127 -58 169c-38 38 -92 64 -199 64c-12 -25 -27 -73 -40 -112l-65 -193h164v-17h-170l-69 -206c-18 -53 -30 -88 -30 -102c0 -12 12 -22 53 -22z" />
    <glyph glyph-name="dcroat" unicode="&#x111;" horiz-adv-x="469" 
d="M362 400c0 15 -7 45 -46 45c-26 0 -50 -10 -81 -41c-72 -72 -150 -224 -150 -323c0 -19 6 -60 39 -60c19 0 36 15 51 30c40 40 103 137 140 210c28 57 47 100 47 139zM178 34c-28 -28 -60 -50 -98 -50c-36 0 -73 22 -73 87c0 91 60 225 147 311c46 46 103 77 153 77
c47 0 64 -24 77 -49l47 133h-137v15h142l24 67c5 15 12 39 12 48s-9 12 -32 15l-29 4v6l148 20l1 -2l-56 -158h50v-15h-56l-162 -455c-3 -9 -11 -30 -11 -36c0 -4 3 -6 9 -6c30 0 56 39 89 99l8 -4c-28 -54 -74 -149 -161 -149c-23 0 -27 6 -27 14s8 28 53 150l42 115l-3 2
c-39 -81 -98 -180 -157 -239z" />
    <glyph glyph-name="Eacute" unicode="&#xc9;" horiz-adv-x="579" 
d="M414 744l-3 4c32 26 62 54 93 83l53 49c29 27 49 45 67 45c24 0 38 -20 38 -39c0 -21 -15 -31 -65 -54l-69 -32c-38 -18 -78 -37 -114 -56zM537 161l-76 -161h-505v8l37 3c41 4 50 8 60 32c6 13 17 50 33 96l133 393c18 53 31 92 31 106c0 12 -10 16 -43 19l-39 3v8h479
l-54 -163h-7c-1 78 -3 110 -18 125c-13 13 -38 17 -116 20l-106 4l-103 -305l105 3c44 2 65 4 91 30c9 9 23 25 47 65l9 16l8 -2l-88 -251h-9l2 22c5 60 4 79 -6 89c-8 8 -17 10 -62 12l-101 3l-67 -200c-18 -53 -31 -90 -31 -104c0 -12 9 -17 40 -17c99 0 174 3 234 36
c32 17 66 48 116 114z" />
    <glyph glyph-name="eacute" unicode="&#xe9;" horiz-adv-x="356" 
d="M360 601c-34 -24 -70 -51 -101 -77l-4 3c26 32 54 70 77 104l42 62c26 38 38 53 59 53c22 0 41 -20 41 -42s-16 -35 -54 -61zM107 -16c-69 0 -98 53 -98 120c0 166 144 355 288 355c53 0 78 -27 78 -66c0 -41 -24 -85 -101 -123c-38 -19 -92 -38 -168 -55
c-12 -41 -19 -82 -19 -121c0 -62 21 -82 53 -82c66 0 127 106 138 126l11 -6c-8 -15 -80 -148 -182 -148zM271 445c-54 0 -125 -103 -161 -217c72 16 122 35 152 65c35 35 42 77 42 101c0 25 -7 51 -33 51z" />
    <glyph glyph-name="Ebreve" unicode="&#x114;" horiz-adv-x="579" 
d="M641 906l4 -1c-31 -88 -86 -153 -182 -153c-93 0 -123 66 -100 153l4 1c-1 -69 60 -88 109 -88c50 0 127 15 165 88zM537 161l-76 -161h-505v8l37 3c41 4 50 8 60 32c6 13 17 50 33 96l133 393c18 53 31 92 31 106c0 12 -10 16 -43 19l-39 3v8h479l-54 -163h-7
c-1 78 -3 110 -18 125c-13 13 -38 17 -116 20l-106 4l-103 -305l105 3c44 2 65 4 91 30c9 9 23 25 47 65l9 16l8 -2l-88 -251h-9l2 22c5 60 4 79 -6 89c-8 8 -17 10 -62 12l-101 3l-67 -200c-18 -53 -31 -90 -31 -104c0 -12 9 -17 40 -17c99 0 174 3 234 36
c32 17 66 48 116 114z" />
    <glyph glyph-name="ebreve" unicode="&#x115;" horiz-adv-x="356" 
d="M455 710l3 -1c-33 -107 -90 -177 -179 -177c-86 0 -114 71 -83 177l3 1c-8 -87 41 -112 93 -112c53 0 122 21 163 112zM107 -16c-69 0 -98 53 -98 120c0 166 144 355 288 355c53 0 78 -27 78 -66c0 -41 -24 -85 -101 -123c-38 -19 -92 -38 -168 -55
c-12 -41 -19 -82 -19 -121c0 -62 21 -82 53 -82c66 0 127 106 138 126l11 -6c-8 -15 -80 -148 -182 -148zM271 445c-54 0 -125 -103 -161 -217c72 16 122 35 152 65c35 35 42 77 42 101c0 25 -7 51 -33 51z" />
    <glyph glyph-name="Ecaron" unicode="&#x11a;" horiz-adv-x="579" 
d="M381 914l2 2l108 -92l184 92l3 -2l-203 -170h-8zM537 161l-76 -161h-505v8l37 3c41 4 50 8 60 32c6 13 17 50 33 96l133 393c18 53 31 92 31 106c0 12 -10 16 -43 19l-39 3v8h479l-54 -163h-7c-1 78 -3 110 -18 125c-13 13 -38 17 -116 20l-106 4l-103 -305l105 3
c44 2 65 4 91 30c9 9 23 25 47 65l9 16l8 -2l-88 -251h-9l2 22c5 60 4 79 -6 89c-8 8 -17 10 -62 12l-101 3l-67 -200c-18 -53 -31 -90 -31 -104c0 -12 9 -17 40 -17c99 0 174 3 234 36c32 17 66 48 116 114z" />
    <glyph glyph-name="ecaron" unicode="&#x11b;" horiz-adv-x="356" 
d="M235 744l4 2l75 -121l173 121l5 -2l-200 -220h-8zM107 -16c-69 0 -98 53 -98 120c0 166 144 355 288 355c53 0 78 -27 78 -66c0 -41 -24 -85 -101 -123c-38 -19 -92 -38 -168 -55c-12 -41 -19 -82 -19 -121c0 -62 21 -82 53 -82c66 0 127 106 138 126l11 -6
c-8 -15 -80 -148 -182 -148zM271 445c-54 0 -125 -103 -161 -217c72 16 122 35 152 65c35 35 42 77 42 101c0 25 -7 51 -33 51z" />
    <glyph glyph-name="Ecircumflex" unicode="&#xca;" horiz-adv-x="579" 
d="M606 746l-2 -2l-108 92l-184 -92l-3 2l203 170h8zM537 161l-76 -161h-505v8l37 3c41 4 50 8 60 32c6 13 17 50 33 96l133 393c18 53 31 92 31 106c0 12 -10 16 -43 19l-39 3v8h479l-54 -163h-7c-1 78 -3 110 -18 125c-13 13 -38 17 -116 20l-106 4l-103 -305l105 3
c44 2 65 4 91 30c9 9 23 25 47 65l9 16l8 -2l-88 -251h-9l2 22c5 60 4 79 -6 89c-8 8 -17 10 -62 12l-101 3l-67 -200c-18 -53 -31 -90 -31 -104c0 -12 9 -17 40 -17c99 0 174 3 234 36c32 17 66 48 116 114z" />
    <glyph glyph-name="ecircumflex" unicode="&#xea;" horiz-adv-x="356" 
d="M403 526l-4 -2l-75 121l-173 -121l-5 2l200 220h8zM107 -16c-69 0 -98 53 -98 120c0 166 144 355 288 355c53 0 78 -27 78 -66c0 -41 -24 -85 -101 -123c-38 -19 -92 -38 -168 -55c-12 -41 -19 -82 -19 -121c0 -62 21 -82 53 -82c66 0 127 106 138 126l11 -6
c-8 -15 -80 -148 -182 -148zM271 445c-54 0 -125 -103 -161 -217c72 16 122 35 152 65c35 35 42 77 42 101c0 25 -7 51 -33 51z" />
    <glyph glyph-name="Edieresis" unicode="&#xcb;" horiz-adv-x="579" 
d="M579 746c-25 0 -40 18 -40 37c0 30 25 51 53 51c25 0 40 -18 40 -37c0 -30 -25 -51 -53 -51zM381 746c-27 0 -41 18 -41 38c0 29 24 50 51 50c26 0 40 -18 40 -39c0 -28 -24 -49 -50 -49zM537 161l-76 -161h-505v8l37 3c41 4 50 8 60 32c6 13 17 50 33 96l133 393
c18 53 31 92 31 106c0 12 -10 16 -43 19l-39 3v8h479l-54 -163h-7c-1 78 -3 110 -18 125c-13 13 -38 17 -116 20l-106 4l-103 -305l105 3c44 2 65 4 91 30c9 9 23 25 47 65l9 16l8 -2l-88 -251h-9l2 22c5 60 4 79 -6 89c-8 8 -17 10 -62 12l-101 3l-67 -200
c-18 -53 -31 -90 -31 -104c0 -12 9 -17 40 -17c99 0 174 3 234 36c32 17 66 48 116 114z" />
    <glyph glyph-name="edieresis" unicode="&#xeb;" horiz-adv-x="356" 
d="M387 526c-25 0 -40 18 -40 37c0 30 25 51 53 51c25 0 40 -18 40 -37c0 -30 -25 -51 -53 -51zM209 526c-27 0 -41 18 -41 38c0 29 24 50 51 50c26 0 40 -18 40 -39c0 -28 -24 -49 -50 -49zM107 -16c-69 0 -98 53 -98 120c0 166 144 355 288 355c53 0 78 -27 78 -66
c0 -41 -24 -85 -101 -123c-38 -19 -92 -38 -168 -55c-12 -41 -19 -82 -19 -121c0 -62 21 -82 53 -82c66 0 127 106 138 126l11 -6c-8 -15 -80 -148 -182 -148zM271 445c-54 0 -125 -103 -161 -217c72 16 122 35 152 65c35 35 42 77 42 101c0 25 -7 51 -33 51z" />
    <glyph glyph-name="Edotaccent" unicode="&#x116;" horiz-adv-x="579" 
d="M482 746c-28 0 -42 18 -42 39c0 29 25 51 52 51s41 -18 41 -40c0 -28 -25 -50 -51 -50zM537 161l-76 -161h-505v8l37 3c41 4 50 8 60 32c6 13 17 50 33 96l133 393c18 53 31 92 31 106c0 12 -10 16 -43 19l-39 3v8h479l-54 -163h-7c-1 78 -3 110 -18 125
c-13 13 -38 17 -116 20l-106 4l-103 -305l105 3c44 2 65 4 91 30c9 9 23 25 47 65l9 16l8 -2l-88 -251h-9l2 22c5 60 4 79 -6 89c-8 8 -17 10 -62 12l-101 3l-67 -200c-18 -53 -31 -90 -31 -104c0 -12 9 -17 40 -17c99 0 174 3 234 36c32 17 66 48 116 114z" />
    <glyph glyph-name="edotaccent" unicode="&#x117;" horiz-adv-x="356" 
d="M300 526c-28 0 -42 18 -42 39c0 29 25 51 52 51s41 -18 41 -40c0 -28 -25 -50 -51 -50zM107 -16c-69 0 -98 53 -98 120c0 166 144 355 288 355c53 0 78 -27 78 -66c0 -41 -24 -85 -101 -123c-38 -19 -92 -38 -168 -55c-12 -41 -19 -82 -19 -121c0 -62 21 -82 53 -82
c66 0 127 106 138 126l11 -6c-8 -15 -80 -148 -182 -148zM271 445c-54 0 -125 -103 -161 -217c72 16 122 35 152 65c35 35 42 77 42 101c0 25 -7 51 -33 51z" />
    <glyph glyph-name="Egrave" unicode="&#xc8;" horiz-adv-x="579" 
d="M432 830c29 -31 51 -56 78 -82l-3 -4c-31 19 -62 35 -99 55l-61 32c-48 25 -58 34 -58 55c0 19 14 39 38 39c18 0 33 -17 60 -46zM537 161l-76 -161h-505v8l37 3c41 4 50 8 60 32c6 13 17 50 33 96l133 393c18 53 31 92 31 106c0 12 -10 16 -43 19l-39 3v8h479l-54 -163
h-7c-1 78 -3 110 -18 125c-13 13 -38 17 -116 20l-106 4l-103 -305l105 3c44 2 65 4 91 30c9 9 23 25 47 65l9 16l8 -2l-88 -251h-9l2 22c5 60 4 79 -6 89c-8 8 -17 10 -62 12l-101 3l-67 -200c-18 -53 -31 -90 -31 -104c0 -12 9 -17 40 -17c99 0 174 3 234 36
c32 17 66 48 116 114z" />
    <glyph glyph-name="egrave" unicode="&#xe8;" horiz-adv-x="356" 
d="M308 524c-27 26 -55 52 -86 78l-52 43c-28 24 -47 36 -47 57c0 23 20 44 44 44c21 0 31 -16 50 -53l33 -63c19 -36 41 -71 62 -103zM107 -16c-69 0 -98 53 -98 120c0 166 144 355 288 355c53 0 78 -27 78 -66c0 -41 -24 -85 -101 -123c-38 -19 -92 -38 -168 -55
c-12 -41 -19 -82 -19 -121c0 -62 21 -82 53 -82c66 0 127 106 138 126l11 -6c-8 -15 -80 -148 -182 -148zM271 445c-54 0 -125 -103 -161 -217c72 16 122 35 152 65c35 35 42 77 42 101c0 25 -7 51 -33 51z" />
    <glyph glyph-name="Emacron" unicode="&#x112;" horiz-adv-x="579" 
d="M637 760h-321l13 38h321zM537 161l-76 -161h-505v8l37 3c41 4 50 8 60 32c6 13 17 50 33 96l133 393c18 53 31 92 31 106c0 12 -10 16 -43 19l-39 3v8h479l-54 -163h-7c-1 78 -3 110 -18 125c-13 13 -38 17 -116 20l-106 4l-103 -305l105 3c44 2 65 4 91 30
c9 9 23 25 47 65l9 16l8 -2l-88 -251h-9l2 22c5 60 4 79 -6 89c-8 8 -17 10 -62 12l-101 3l-67 -200c-18 -53 -31 -90 -31 -104c0 -12 9 -17 40 -17c99 0 174 3 234 36c32 17 66 48 116 114z" />
    <glyph glyph-name="emacron" unicode="&#x113;" horiz-adv-x="356" 
d="M434 540h-281l13 38h281zM107 -16c-69 0 -98 53 -98 120c0 166 144 355 288 355c53 0 78 -27 78 -66c0 -41 -24 -85 -101 -123c-38 -19 -92 -38 -168 -55c-12 -41 -19 -82 -19 -121c0 -62 21 -82 53 -82c66 0 127 106 138 126l11 -6c-8 -15 -80 -148 -182 -148zM271 445
c-54 0 -125 -103 -161 -217c72 16 122 35 152 65c35 35 42 77 42 101c0 25 -7 51 -33 51z" />
    <glyph glyph-name="Eogonek" unicode="&#x118;" horiz-adv-x="579" 
d="M413 -177c-23 -25 -55 -63 -104 -63c-40 0 -72 29 -72 70c0 37 24 66 63 97c37 29 73 54 100 73h-444v8l37 3c41 4 50 8 60 32c6 13 17 50 33 96l133 393c18 53 31 92 31 106c0 12 -10 16 -43 19l-39 3v8h479l-54 -163h-7c-1 78 -3 110 -18 125c-13 13 -38 17 -116 20
l-106 4l-103 -305l105 3c44 2 65 4 91 30c9 9 23 25 47 65l9 16l8 -2l-88 -251h-9l2 22c5 60 4 79 -6 89c-8 8 -17 10 -62 12l-101 3l-67 -200c-18 -53 -31 -90 -31 -104c0 -12 9 -17 40 -17c99 0 174 3 234 36c32 17 66 48 116 114l6 -4l-76 -161h-51
c-87 -71 -116 -106 -116 -148s30 -55 55 -55c26 0 41 12 61 29z" />
    <glyph glyph-name="eogonek" unicode="&#x119;" horiz-adv-x="356" 
d="M126 -240c-40 0 -72 29 -72 70c0 33 18 58 47 84c71 64 83 81 105 109l-2 1c-23 -19 -57 -40 -97 -40c-69 0 -98 53 -98 120c0 166 144 355 288 355c53 0 78 -27 78 -66c0 -41 -24 -85 -101 -123c-38 -19 -92 -38 -168 -55c-12 -41 -19 -82 -19 -121c0 -62 21 -82 53 -82
c66 0 127 106 138 126l11 -6c-6 -12 -47 -77 -95 -138c-55 -70 -83 -101 -83 -142c0 -42 30 -55 55 -55c26 0 41 12 61 29l3 -3c-23 -25 -55 -63 -104 -63zM271 445c-54 0 -125 -103 -161 -217c72 16 122 35 152 65c35 35 42 77 42 101c0 25 -7 51 -33 51z" />
    <glyph glyph-name="Eth" unicode="&#xd0;" horiz-adv-x="697" 
d="M204 -6c-79 0 -99 6 -249 6v8l38 3c41 4 50 8 60 32c6 13 17 50 33 96l68 199h-89v17h94l59 173c20 58 30 91 30 108c0 13 -7 19 -50 19h-32v8c100 7 163 9 206 9c249 0 326 -129 326 -263c0 -156 -109 -415 -494 -415zM193 8h3c152 0 239 57 285 103
c83 83 126 206 126 316c0 65 -16 127 -58 169c-38 38 -92 64 -199 64c-12 -25 -27 -73 -40 -112l-65 -193h164v-17h-170l-69 -206c-18 -53 -30 -88 -30 -102c0 -12 12 -22 53 -22z" />
    <glyph glyph-name="eth" unicode="&#xf0;" horiz-adv-x="400" 
d="M131 -16c-81 0 -117 66 -117 145c0 150 107 323 252 323c17 0 35 -3 48 -8c-2 58 -11 112 -35 163l-100 -64l-9 14l101 65c-19 36 -47 71 -86 105l8 12c41 -30 76 -64 104 -101l109 70l9 -14l-108 -69c53 -76 80 -162 80 -252c0 -212 -128 -389 -256 -389zM126 -4
c98 0 189 245 189 411v26c-8 3 -15 4 -24 4c-122 0 -213 -229 -213 -362c0 -43 11 -79 48 -79z" />
    <glyph glyph-name="Gbreve" unicode="&#x11e;" horiz-adv-x="673" 
d="M663 906l4 -1c-31 -88 -86 -153 -182 -153c-93 0 -123 66 -100 153l4 1c-1 -69 60 -88 109 -88c50 0 127 15 165 88zM495 671c-203 0 -336 -251 -336 -449c0 -145 60 -220 195 -220c29 0 49 3 66 7c5 12 14 37 18 48l38 109c18 53 30 92 30 107c0 11 -10 15 -37 16l-56 3
v8h269v-8l-21 -2c-47 -4 -60 -9 -69 -30c-7 -16 -17 -44 -33 -91l-29 -85c-6 -17 -11 -32 -11 -38c0 -3 1 -6 8 -6c10 0 25 5 39 9v-9c-13 -8 -129 -54 -227 -54c-190 0 -269 114 -269 249c0 237 181 449 415 449c54 0 89 -10 154 -34c11 -4 19 -7 24 -7c6 0 10 3 15 10l7 9
l8 -2c-11 -57 -29 -165 -44 -213h-7c-4 93 -13 131 -26 158c-20 41 -62 66 -121 66z" />
    <glyph glyph-name="gbreve" unicode="&#x11f;" horiz-adv-x="392" 
d="M431 710l3 -1c-33 -107 -90 -177 -179 -177c-86 0 -114 71 -83 177l3 1c-8 -87 41 -112 93 -112c53 0 122 21 163 112zM287 390c0 36 -10 56 -34 56c-68 0 -142 -151 -142 -255c0 -35 11 -56 35 -56c68 0 141 151 141 255zM305 -191c-29 -29 -87 -43 -157 -43
c-106 0 -216 28 -216 98c0 41 40 79 167 128c-32 16 -41 29 -41 56c0 29 12 43 30 62l23 24c-46 22 -59 76 -59 107c0 146 116 216 193 216c37 0 62 -16 77 -38l11 14c30 39 52 58 73 58c22 0 32 -18 32 -35c0 -19 -15 -38 -28 -38c-5 0 -10 2 -17 8l-17 16c-5 3 -7 3 -10 3
c-7 0 -18 -10 -38 -34c14 -23 19 -51 19 -69c0 -147 -115 -218 -191 -218c-14 0 -27 2 -37 6c-13 -14 -31 -31 -31 -45c0 -34 149 -64 227 -142c24 -24 25 -43 25 -58c0 -22 -10 -52 -35 -76zM217 -203c66 0 92 18 92 39c0 54 -125 116 -174 139c-9 4 -18 8 -25 11
c-109 -40 -127 -68 -127 -87c0 -49 115 -102 234 -102z" />
    <glyph glyph-name="gbreve.alt" horiz-adv-x="392" 
d="M431 710l3 -1c-33 -107 -90 -177 -179 -177c-86 0 -114 71 -83 177l3 1c-8 -87 41 -112 93 -112c53 0 122 21 163 112zM287 390c0 36 -10 56 -34 56c-68 0 -142 -151 -142 -255c0 -35 11 -56 35 -56c68 0 141 151 141 255zM260 -189c-28 -30 -86 -45 -158 -45
c-82 0 -195 28 -195 98c0 43 42 79 170 129c-22 13 -27 27 -27 52s19 45 37 65l22 24c-44 23 -57 77 -57 107c0 146 116 216 193 216c37 0 62 -16 77 -38l11 14c30 39 52 58 73 58c22 0 32 -18 32 -35c0 -19 -15 -38 -28 -38c-5 0 -10 2 -17 8l-17 16c-5 3 -7 3 -10 3
c-7 0 -18 -10 -38 -34c14 -23 19 -51 19 -69c0 -147 -115 -218 -191 -218c-15 0 -28 2 -39 7c-17 -19 -33 -37 -33 -49c0 -28 76 -49 154 -110c45 -35 58 -64 58 -80c0 -27 -14 -57 -36 -81zM168 -203c70 0 93 20 93 39c0 54 -130 130 -157 143c-6 3 -12 5 -16 8
c-109 -40 -132 -69 -132 -85c0 -52 110 -105 212 -105z" />
    <glyph glyph-name="Gcommaaccent" unicode="&#x122;" horiz-adv-x="673" 
d="M495 671c-203 0 -336 -251 -336 -449c0 -145 60 -220 195 -220c29 0 49 3 66 7c5 12 14 37 18 48l38 109c18 53 30 92 30 107c0 11 -10 15 -37 16l-56 3v8h269v-8l-21 -2c-47 -4 -60 -9 -69 -30c-7 -16 -17 -44 -33 -91l-29 -85c-6 -17 -11 -32 -11 -38c0 -3 1 -6 8 -6
c10 0 25 5 39 9v-9c-13 -8 -129 -54 -227 -54c-190 0 -269 114 -269 249c0 237 181 449 415 449c54 0 89 -10 154 -34c11 -4 19 -7 24 -7c6 0 10 3 15 10l7 9l8 -2c-11 -57 -29 -165 -44 -213h-7c-4 93 -13 131 -26 158c-20 41 -62 66 -121 66zM168 -263
c71 11 108 51 108 86c0 10 -3 13 -19 16l-12 3c-22 5 -28 13 -28 28c0 27 20 50 50 50c25 0 54 -17 54 -64c0 -68 -55 -118 -153 -126v7z" />
    <glyph glyph-name="gcommaaccent" unicode="&#x123;" horiz-adv-x="392" 
d="M366 707c-71 -11 -108 -51 -108 -86c0 -10 3 -13 19 -16l12 -3c22 -5 28 -13 28 -28c0 -27 -20 -50 -50 -50c-25 0 -54 17 -54 64c0 68 55 118 153 126v-7zM287 390c0 36 -10 56 -34 56c-68 0 -142 -151 -142 -255c0 -35 11 -56 35 -56c68 0 141 151 141 255zM305 -191
c-29 -29 -87 -43 -157 -43c-106 0 -216 28 -216 98c0 41 40 79 167 128c-32 16 -41 29 -41 56c0 29 12 43 30 62l23 24c-46 22 -59 76 -59 107c0 146 116 216 193 216c37 0 62 -16 77 -38l11 14c30 39 52 58 73 58c22 0 32 -18 32 -35c0 -19 -15 -38 -28 -38
c-5 0 -10 2 -17 8l-17 16c-5 3 -7 3 -10 3c-7 0 -18 -10 -38 -34c14 -23 19 -51 19 -69c0 -147 -115 -218 -191 -218c-14 0 -27 2 -37 6c-13 -14 -31 -31 -31 -45c0 -34 149 -64 227 -142c24 -24 25 -43 25 -58c0 -22 -10 -52 -35 -76zM217 -203c66 0 92 18 92 39
c0 54 -125 116 -174 139c-9 4 -18 8 -25 11c-109 -40 -127 -68 -127 -87c0 -49 115 -102 234 -102z" />
    <glyph glyph-name="gcommaaccent.alt" horiz-adv-x="392" 
d="M366 707c-71 -11 -108 -51 -108 -86c0 -10 3 -13 19 -16l12 -3c22 -5 28 -13 28 -28c0 -27 -20 -50 -50 -50c-25 0 -54 17 -54 64c0 68 55 118 153 126v-7zM287 390c0 36 -10 56 -34 56c-68 0 -142 -151 -142 -255c0 -35 11 -56 35 -56c68 0 141 151 141 255zM260 -189
c-28 -30 -86 -45 -158 -45c-82 0 -195 28 -195 98c0 43 42 79 170 129c-22 13 -27 27 -27 52s19 45 37 65l22 24c-44 23 -57 77 -57 107c0 146 116 216 193 216c37 0 62 -16 77 -38l11 14c30 39 52 58 73 58c22 0 32 -18 32 -35c0 -19 -15 -38 -28 -38c-5 0 -10 2 -17 8
l-17 16c-5 3 -7 3 -10 3c-7 0 -18 -10 -38 -34c14 -23 19 -51 19 -69c0 -147 -115 -218 -191 -218c-15 0 -28 2 -39 7c-17 -19 -33 -37 -33 -49c0 -28 76 -49 154 -110c45 -35 58 -64 58 -80c0 -27 -14 -57 -36 -81zM168 -203c70 0 93 20 93 39c0 54 -130 130 -157 143
c-6 3 -12 5 -16 8c-109 -40 -132 -69 -132 -85c0 -52 110 -105 212 -105z" />
    <glyph glyph-name="Gdotaccent" unicode="&#x120;" horiz-adv-x="673" 
d="M505 746c-28 0 -42 18 -42 39c0 29 25 51 52 51s41 -18 41 -40c0 -28 -25 -50 -51 -50zM495 671c-203 0 -336 -251 -336 -449c0 -145 60 -220 195 -220c29 0 49 3 66 7c5 12 14 37 18 48l38 109c18 53 30 92 30 107c0 11 -10 15 -37 16l-56 3v8h269v-8l-21 -2
c-47 -4 -60 -9 -69 -30c-7 -16 -17 -44 -33 -91l-29 -85c-6 -17 -11 -32 -11 -38c0 -3 1 -6 8 -6c10 0 25 5 39 9v-9c-13 -8 -129 -54 -227 -54c-190 0 -269 114 -269 249c0 237 181 449 415 449c54 0 89 -10 154 -34c11 -4 19 -7 24 -7c6 0 10 3 15 10l7 9l8 -2
c-11 -57 -29 -165 -44 -213h-7c-4 93 -13 131 -26 158c-20 41 -62 66 -121 66z" />
    <glyph glyph-name="gdotaccent" unicode="&#x121;" horiz-adv-x="392" 
d="M276 526c-28 0 -42 18 -42 39c0 29 25 51 52 51s41 -18 41 -40c0 -28 -25 -50 -51 -50zM287 390c0 36 -10 56 -34 56c-68 0 -142 -151 -142 -255c0 -35 11 -56 35 -56c68 0 141 151 141 255zM305 -191c-29 -29 -87 -43 -157 -43c-106 0 -216 28 -216 98
c0 41 40 79 167 128c-32 16 -41 29 -41 56c0 29 12 43 30 62l23 24c-46 22 -59 76 -59 107c0 146 116 216 193 216c37 0 62 -16 77 -38l11 14c30 39 52 58 73 58c22 0 32 -18 32 -35c0 -19 -15 -38 -28 -38c-5 0 -10 2 -17 8l-17 16c-5 3 -7 3 -10 3c-7 0 -18 -10 -38 -34
c14 -23 19 -51 19 -69c0 -147 -115 -218 -191 -218c-14 0 -27 2 -37 6c-13 -14 -31 -31 -31 -45c0 -34 149 -64 227 -142c24 -24 25 -43 25 -58c0 -22 -10 -52 -35 -76zM217 -203c66 0 92 18 92 39c0 54 -125 116 -174 139c-9 4 -18 8 -25 11c-109 -40 -127 -68 -127 -87
c0 -49 115 -102 234 -102z" />
    <glyph glyph-name="gdotaccent.alt" horiz-adv-x="392" 
d="M276 526c-28 0 -42 18 -42 39c0 29 25 51 52 51s41 -18 41 -40c0 -28 -25 -50 -51 -50zM287 390c0 36 -10 56 -34 56c-68 0 -142 -151 -142 -255c0 -35 11 -56 35 -56c68 0 141 151 141 255zM260 -189c-28 -30 -86 -45 -158 -45c-82 0 -195 28 -195 98
c0 43 42 79 170 129c-22 13 -27 27 -27 52s19 45 37 65l22 24c-44 23 -57 77 -57 107c0 146 116 216 193 216c37 0 62 -16 77 -38l11 14c30 39 52 58 73 58c22 0 32 -18 32 -35c0 -19 -15 -38 -28 -38c-5 0 -10 2 -17 8l-17 16c-5 3 -7 3 -10 3c-7 0 -18 -10 -38 -34
c14 -23 19 -51 19 -69c0 -147 -115 -218 -191 -218c-15 0 -28 2 -39 7c-17 -19 -33 -37 -33 -49c0 -28 76 -49 154 -110c45 -35 58 -64 58 -80c0 -27 -14 -57 -36 -81zM168 -203c70 0 93 20 93 39c0 54 -130 130 -157 143c-6 3 -12 5 -16 8c-109 -40 -132 -69 -132 -85
c0 -52 110 -105 212 -105z" />
    <glyph glyph-name="Hbar" unicode="&#x126;" horiz-adv-x="731" 
d="M576 356l48 140h-331l-48 -140h331zM227 8v-8h-271v8l37 3c41 4 50 8 60 32c6 13 17 50 33 96l121 357h-85v17h91l6 19c18 53 31 92 31 106c0 12 -10 16 -43 19l-39 3v8h271v-8l-42 -3c-41 -4 -50 -8 -60 -32c-6 -13 -17 -50 -33 -96l-5 -16h331l6 19c18 53 31 92 31 106
c0 12 -10 16 -43 19l-44 3v8h271v-8l-37 -3c-41 -4 -50 -8 -60 -32c-6 -13 -17 -50 -33 -96l-5 -16h85v-17h-91l-122 -360c-18 -53 -31 -92 -31 -106c0 -12 10 -16 43 -19l39 -3v-8h-271v8l42 3c41 4 50 8 60 32c6 13 17 50 33 96l67 197h-331l-68 -200
c-18 -53 -31 -92 -31 -106c0 -12 10 -16 43 -19z" />
    <glyph glyph-name="hbar" unicode="&#x127;" horiz-adv-x="439" 
d="M306 54c-43 -43 -86 -70 -128 -70c-33 0 -43 19 -43 33c0 27 28 47 49 47c8 0 11 -3 16 -15l10 -31c4 -12 5 -16 8 -16c7 0 30 19 61 80s70 186 70 269c0 22 -3 39 -16 52c-8 8 -23 15 -37 15c-11 0 -21 -2 -37 -18c-31 -31 -89 -124 -127 -200
c-19 -38 -51 -108 -83 -200h-65l192 543h-51v15h56l24 67c7 19 12 39 12 48s-9 12 -32 15l-29 4v6l149 20l1 -2l-57 -158h136v-15h-142l-111 -306l4 -2c46 84 88 155 125 191c23 24 45 33 70 33c33 0 54 -13 64 -23c23 -23 26 -53 26 -91c0 -47 -18 -194 -115 -291z" />
    <glyph glyph-name="hbar.alt" horiz-adv-x="459" 
d="M418 143c-39 -65 -94 -151 -172 -151c-22 0 -26 6 -26 15c0 7 2 17 22 64l88 210c21 51 38 92 38 108c0 15 -11 27 -35 27c-26 0 -42 -14 -55 -27c-27 -27 -125 -166 -179 -274c-20 -40 -32 -69 -50 -115h-65l192 543h-51v15h56l24 67c7 19 12 39 12 48s-9 12 -32 15
l-29 4v6l150 20l1 -2l-57 -158h136v-15h-142l-135 -373l4 -2c25 41 112 189 163 240c33 33 66 51 107 51c48 0 63 -27 63 -48c0 -17 -10 -50 -32 -103l-99 -243c-6 -14 -6 -19 1 -19c25 0 63 50 94 101z" />
    <glyph glyph-name="Iacute" unicode="&#xcd;" horiz-adv-x="338" 
d="M289 744l-3 4c32 26 62 54 93 83l53 49c29 27 49 45 67 45c24 0 38 -20 38 -39c0 -21 -15 -31 -65 -54l-69 -32c-38 -18 -78 -37 -114 -56zM183 136c-18 -53 -31 -92 -31 -106c0 -12 10 -16 43 -19l39 -3v-8h-266v8l37 3c41 4 50 8 60 32c6 13 17 50 33 96l133 393
c18 53 31 92 31 106c0 12 -10 16 -43 19l-39 3v8h266v-8l-37 -3c-41 -4 -50 -8 -60 -32c-6 -13 -17 -50 -33 -96z" />
    <glyph glyph-name="iacute" unicode="&#xed;" horiz-adv-x="254" 
d="M301 601c-34 -24 -70 -51 -101 -77l-4 3c26 32 54 70 77 104l42 62c26 38 38 53 59 53c22 0 41 -20 41 -42s-16 -35 -54 -61zM99 68c-6 -15 -6 -19 1 -19c27 0 64 50 95 104l8 -4c-39 -68 -88 -153 -166 -153c-22 0 -26 7 -26 16c0 7 3 17 16 49l130 319c6 15 6 19 -1 19
c-25 0 -63 -50 -98 -111l-8 4c43 75 92 161 170 161c22 0 26 -6 26 -15c0 -7 -4 -16 -22 -64z" />
    <glyph glyph-name="Ibreve" unicode="&#x12c;" horiz-adv-x="338" 
d="M516 906l4 -1c-31 -88 -86 -153 -182 -153c-93 0 -123 66 -100 153l4 1c-1 -69 60 -88 109 -88c50 0 127 15 165 88zM183 136c-18 -53 -31 -92 -31 -106c0 -12 10 -16 43 -19l39 -3v-8h-266v8l37 3c41 4 50 8 60 32c6 13 17 50 33 96l133 393c18 53 31 92 31 106
c0 12 -10 16 -43 19l-39 3v8h266v-8l-37 -3c-41 -4 -50 -8 -60 -32c-6 -13 -17 -50 -33 -96z" />
    <glyph glyph-name="ibreve" unicode="&#x12d;" horiz-adv-x="254" 
d="M397 710l3 -1c-33 -107 -90 -177 -179 -177c-86 0 -114 71 -83 177l3 1c-8 -87 41 -112 93 -112c53 0 122 21 163 112zM99 68c-6 -15 -6 -19 1 -19c27 0 64 50 95 104l8 -4c-39 -68 -88 -153 -166 -153c-22 0 -26 7 -26 16c0 7 3 17 16 49l130 319c6 15 6 19 -1 19
c-25 0 -63 -50 -98 -111l-8 4c43 75 92 161 170 161c22 0 26 -6 26 -15c0 -7 -4 -16 -22 -64z" />
    <glyph glyph-name="Icircumflex" unicode="&#xce;" horiz-adv-x="338" 
d="M481 746l-2 -2l-108 92l-184 -92l-3 2l203 170h8zM183 136c-18 -53 -31 -92 -31 -106c0 -12 10 -16 43 -19l39 -3v-8h-266v8l37 3c41 4 50 8 60 32c6 13 17 50 33 96l133 393c18 53 31 92 31 106c0 12 -10 16 -43 19l-39 3v8h266v-8l-37 -3c-41 -4 -50 -8 -60 -32
c-6 -13 -17 -50 -33 -96z" />
    <glyph glyph-name="icircumflex" unicode="&#xee;" horiz-adv-x="254" 
d="M345 526l-4 -2l-75 121l-173 -121l-5 2l200 220h8zM99 68c-6 -15 -6 -19 1 -19c27 0 64 50 95 104l8 -4c-39 -68 -88 -153 -166 -153c-22 0 -26 7 -26 16c0 7 3 17 16 49l130 319c6 15 6 19 -1 19c-25 0 -63 -50 -98 -111l-8 4c43 75 92 161 170 161c22 0 26 -6 26 -15
c0 -7 -4 -16 -22 -64z" />
    <glyph glyph-name="Idieresis" unicode="&#xcf;" horiz-adv-x="338" 
d="M454 746c-25 0 -40 18 -40 37c0 30 25 51 53 51c25 0 40 -18 40 -37c0 -30 -25 -51 -53 -51zM256 746c-27 0 -41 18 -41 38c0 29 24 50 51 50c26 0 40 -18 40 -39c0 -28 -24 -49 -50 -49zM183 136c-18 -53 -31 -92 -31 -106c0 -12 10 -16 43 -19l39 -3v-8h-266v8l37 3
c41 4 50 8 60 32c6 13 17 50 33 96l133 393c18 53 31 92 31 106c0 12 -10 16 -43 19l-39 3v8h266v-8l-37 -3c-41 -4 -50 -8 -60 -32c-6 -13 -17 -50 -33 -96z" />
    <glyph glyph-name="idieresis" unicode="&#xef;" horiz-adv-x="254" 
d="M328 526c-25 0 -40 18 -40 37c0 30 25 51 53 51c25 0 40 -18 40 -37c0 -30 -25 -51 -53 -51zM150 526c-27 0 -41 18 -41 38c0 29 24 50 51 50c26 0 40 -18 40 -39c0 -28 -24 -49 -50 -49zM99 68c-6 -15 -6 -19 1 -19c27 0 64 50 95 104l8 -4c-39 -68 -88 -153 -166 -153
c-22 0 -26 7 -26 16c0 7 3 17 16 49l130 319c6 15 6 19 -1 19c-25 0 -63 -50 -98 -111l-8 4c43 75 92 161 170 161c22 0 26 -6 26 -15c0 -7 -4 -16 -22 -64z" />
    <glyph glyph-name="Idotaccent" unicode="&#x130;" horiz-adv-x="338" 
d="M357 746c-28 0 -42 18 -42 39c0 29 25 51 52 51s41 -18 41 -40c0 -28 -25 -50 -51 -50zM183 136c-18 -53 -31 -92 -31 -106c0 -12 10 -16 43 -19l39 -3v-8h-266v8l37 3c41 4 50 8 60 32c6 13 17 50 33 96l133 393c18 53 31 92 31 106c0 12 -10 16 -43 19l-39 3v8h266v-8
l-37 -3c-41 -4 -50 -8 -60 -32c-6 -13 -17 -50 -33 -96z" />
    <glyph glyph-name="dotlessi" unicode="&#x131;" horiz-adv-x="254" 
d="M99 68c-6 -15 -6 -19 1 -19c27 0 64 50 95 104l8 -4c-39 -68 -88 -153 -166 -153c-22 0 -26 7 -26 16c0 7 3 17 16 49l130 319c6 15 6 19 -1 19c-25 0 -63 -50 -98 -111l-8 4c43 75 92 161 170 161c22 0 26 -6 26 -15c0 -7 -4 -16 -22 -64z" />
    <glyph glyph-name="Igrave" unicode="&#xcc;" horiz-adv-x="338" 
d="M307 830c29 -31 51 -56 78 -82l-3 -4c-31 19 -62 35 -99 55l-61 32c-48 25 -58 34 -58 55c0 19 14 39 38 39c18 0 33 -17 60 -46zM183 136c-18 -53 -31 -92 -31 -106c0 -12 10 -16 43 -19l39 -3v-8h-266v8l37 3c41 4 50 8 60 32c6 13 17 50 33 96l133 393
c18 53 31 92 31 106c0 12 -10 16 -43 19l-39 3v8h266v-8l-37 -3c-41 -4 -50 -8 -60 -32c-6 -13 -17 -50 -33 -96z" />
    <glyph glyph-name="igrave" unicode="&#xec;" horiz-adv-x="254" 
d="M250 524c-27 26 -55 52 -86 78l-52 43c-28 24 -47 36 -47 57c0 23 20 44 44 44c21 0 31 -16 50 -53l33 -63c19 -36 41 -71 62 -103zM99 68c-6 -15 -6 -19 1 -19c27 0 64 50 95 104l8 -4c-39 -68 -88 -153 -166 -153c-22 0 -26 7 -26 16c0 7 3 17 16 49l130 319
c6 15 6 19 -1 19c-25 0 -63 -50 -98 -111l-8 4c43 75 92 161 170 161c22 0 26 -6 26 -15c0 -7 -4 -16 -22 -64z" />
    <glyph glyph-name="Imacron" unicode="&#x12a;" horiz-adv-x="338" 
d="M512 760h-321l13 38h321zM183 136c-18 -53 -31 -92 -31 -106c0 -12 10 -16 43 -19l39 -3v-8h-266v8l37 3c41 4 50 8 60 32c6 13 17 50 33 96l133 393c18 53 31 92 31 106c0 12 -10 16 -43 19l-39 3v8h266v-8l-37 -3c-41 -4 -50 -8 -60 -32c-6 -13 -17 -50 -33 -96z" />
    <glyph glyph-name="imacron" unicode="&#x12b;" horiz-adv-x="254" 
d="M376 540h-281l13 38h281zM99 68c-6 -15 -6 -19 1 -19c27 0 64 50 95 104l8 -4c-39 -68 -88 -153 -166 -153c-22 0 -26 7 -26 16c0 7 3 17 16 49l130 319c6 15 6 19 -1 19c-25 0 -63 -50 -98 -111l-8 4c43 75 92 161 170 161c22 0 26 -6 26 -15c0 -7 -4 -16 -22 -64z" />
    <glyph glyph-name="Iogonek" unicode="&#x12e;" horiz-adv-x="338" 
d="M139 -177c-23 -25 -55 -63 -104 -63c-40 0 -72 29 -72 70c0 37 24 66 63 97c37 29 73 54 100 73h-158v8l37 3c41 4 50 8 60 32c6 13 17 50 33 96l133 393c18 53 31 92 31 106c0 12 -10 16 -43 19l-39 3v8h266v-8l-37 -3c-41 -4 -50 -8 -60 -32c-6 -13 -17 -50 -33 -96
l-133 -393c-18 -53 -31 -92 -31 -106c0 -12 10 -16 43 -19l39 -3v-8h-98c-87 -71 -116 -106 -116 -148s30 -55 55 -55c26 0 41 12 61 29z" />
    <glyph glyph-name="iogonek" unicode="&#x12f;" horiz-adv-x="254" 
d="M252 583c-29 0 -45 19 -45 41c0 31 26 53 55 53c28 0 44 -19 44 -42c0 -29 -26 -52 -54 -52zM203 149c-7 -12 -32 -56 -75 -123c-66 -103 -81 -143 -81 -174c0 -42 30 -55 55 -55c26 0 41 12 61 29l3 -3c-23 -25 -55 -63 -104 -63c-40 0 -72 29 -72 70c0 33 12 48 65 111
c35 41 51 66 65 88l-2 1c-21 -18 -47 -34 -81 -34c-22 0 -26 7 -26 16c0 7 3 17 16 49l130 319c6 15 6 19 -1 19c-25 0 -63 -50 -98 -111l-8 4c43 75 92 161 170 161c22 0 26 -6 26 -15c0 -7 -4 -16 -22 -64l-125 -306c-6 -15 -6 -19 1 -19c27 0 64 50 95 104z" />
    <glyph glyph-name="Kcommaaccent" unicode="&#x136;" horiz-adv-x="618" 
d="M479 -8c-35 0 -48 9 -76 60l-133 244c-16 27 -21 28 -32 28h-3l-64 -188c-18 -53 -31 -92 -31 -106c0 -12 10 -16 43 -19l39 -3v-8h-266v8l37 3c41 4 50 8 60 32c6 13 17 50 33 96l133 393c18 53 31 92 31 106c0 12 -10 16 -43 19l-39 3v8h266v-8l-37 -3
c-41 -4 -50 -8 -60 -32c-6 -13 -17 -50 -33 -96l-65 -193l53 41c79 60 300 247 300 263c0 5 -14 10 -49 16l-36 6v6h245v-6l-34 -6c-57 -10 -67 -19 -133 -70l-266 -206l151 -270c38 -68 49 -85 72 -93c12 -4 26 -7 60 -10v-7l-32 -2c-31 -2 -38 -3 -55 -4
c-13 -1 -22 -2 -36 -2zM140 -263c71 11 108 51 108 86c0 10 -3 13 -19 16l-12 3c-22 5 -28 13 -28 28c0 27 20 50 50 50c25 0 54 -17 54 -64c0 -68 -55 -118 -153 -126v7z" />
    <glyph glyph-name="kcommaaccent" unicode="&#x137;" horiz-adv-x="425" 
d="M278 -16c-18 0 -57 55 -97 200c-11 40 -13 41 -44 41h-1c-1 -3 -3 -5 -4 -8c-30 -59 -50 -117 -83 -217h-65l221 625c7 19 12 39 12 48s-9 12 -32 15l-29 4v6l149 20l1 -2l-167 -458l4 -2c82 129 163 207 220 207c42 0 75 -40 75 -83c0 -68 -62 -104 -204 -141l16 -54
c33 -106 57 -138 72 -138c10 0 18 8 51 49l7 -5c-23 -33 -78 -107 -102 -107zM249 378c-30 -30 -79 -91 -110 -147c142 19 225 52 225 123c0 35 -19 68 -45 68c-24 0 -47 -21 -70 -44zM18 -263c71 11 108 51 108 86c0 10 -3 13 -19 16l-12 3c-22 5 -28 13 -28 28
c0 27 20 50 50 50c25 0 54 -17 54 -64c0 -68 -55 -118 -153 -126v7z" />
    <glyph glyph-name="Lacute" unicode="&#x139;" horiz-adv-x="544" 
d="M276 744l-3 4c32 26 62 54 93 83l53 49c29 27 49 45 67 45c24 0 38 -20 38 -39c0 -21 -15 -31 -65 -54l-69 -32c-38 -18 -78 -37 -114 -56zM219 532c18 53 31 92 31 106c0 12 -10 16 -43 19l-39 3v8h266v-8l-37 -3c-41 -4 -50 -8 -60 -32c-6 -13 -17 -50 -33 -96
l-132 -393c-18 -53 -31 -90 -31 -104c0 -12 9 -17 40 -17c92 0 147 2 201 29c40 20 69 46 129 129l6 -4l-76 -169h-485v8l37 3c41 4 50 8 60 32c6 13 17 50 33 96z" />
    <glyph glyph-name="lacute" unicode="&#x13a;" horiz-adv-x="224" 
d="M360 861c-34 -24 -70 -51 -101 -77l-4 3c26 32 54 70 77 104l42 62c26 38 38 53 59 53c22 0 41 -20 41 -42s-16 -35 -54 -61zM85 68c-5 -15 -6 -19 1 -19c27 0 64 50 95 104l8 -4c-39 -68 -88 -153 -164 -153c-22 0 -26 7 -26 16c0 7 3 16 13 45l201 568
c5 15 12 39 12 48s-9 12 -32 15l-29 4v6l148 20l1 -2z" />
    <glyph glyph-name="Lcaron" unicode="&#x13d;" horiz-adv-x="544" 
d="M514 557c-23 -30 -43 -61 -62 -90l-3 1c10 33 21 71 30 105l18 66c10 35 24 54 44 54s39 -14 39 -32c0 -17 -13 -36 -31 -59zM219 532c18 53 31 92 31 106c0 12 -10 16 -43 19l-39 3v8h266v-8l-37 -3c-41 -4 -50 -8 -60 -32c-6 -13 -17 -50 -33 -96l-132 -393
c-18 -53 -31 -90 -31 -104c0 -12 9 -17 40 -17c92 0 147 2 201 29c40 20 69 46 129 129l6 -4l-76 -169h-485v8l37 3c41 4 50 8 60 32c6 13 17 50 33 96z" />
    <glyph glyph-name="lcaron" unicode="&#x13e;" horiz-adv-x="224" 
d="M380 591c-23 -30 -43 -61 -62 -90l-3 1c10 33 21 71 30 105l18 66c10 35 24 54 44 54s39 -14 39 -32c0 -17 -13 -36 -31 -59zM85 68c-5 -15 -6 -19 1 -19c27 0 64 50 95 104l8 -4c-39 -68 -88 -153 -164 -153c-22 0 -26 7 -26 16c0 7 3 16 13 45l201 568
c5 15 12 39 12 48s-9 12 -32 15l-29 4v6l148 20l1 -2z" />
    <glyph glyph-name="Lcommaaccent" unicode="&#x13b;" horiz-adv-x="544" 
d="M219 532c18 53 31 92 31 106c0 12 -10 16 -43 19l-39 3v8h266v-8l-37 -3c-41 -4 -50 -8 -60 -32c-6 -13 -17 -50 -33 -96l-132 -393c-18 -53 -31 -90 -31 -104c0 -12 9 -17 40 -17c92 0 147 2 201 29c40 20 69 46 129 129l6 -4l-76 -169h-485v8l37 3c41 4 50 8 60 32
c6 13 17 50 33 96zM99 -263c71 11 108 51 108 86c0 10 -3 13 -19 16l-12 3c-22 5 -28 13 -28 28c0 27 20 50 50 50c25 0 54 -17 54 -64c0 -68 -55 -118 -153 -126v7z" />
    <glyph glyph-name="lcommaaccent" unicode="&#x13c;" horiz-adv-x="224" 
d="M85 68c-5 -15 -6 -19 1 -19c27 0 64 50 95 104l8 -4c-39 -68 -88 -153 -164 -153c-22 0 -26 7 -26 16c0 7 3 16 13 45l201 568c5 15 12 39 12 48s-9 12 -32 15l-29 4v6l148 20l1 -2zM-93 -263c71 11 108 51 108 86c0 10 -3 13 -19 16l-12 3c-22 5 -28 13 -28 28
c0 27 20 50 50 50c25 0 54 -17 54 -64c0 -68 -55 -118 -153 -126v7z" />
    <glyph glyph-name="Ldot" unicode="&#x13f;" horiz-adv-x="544" 
d="M219 532c18 53 31 92 31 106c0 12 -10 16 -43 19l-39 3v8h266v-8l-37 -3c-41 -4 -50 -8 -60 -32c-6 -13 -17 -50 -33 -96l-132 -393c-18 -53 -31 -90 -31 -104c0 -12 9 -17 40 -17c92 0 147 2 201 29c40 20 69 46 129 129l6 -4l-76 -169h-485v8l37 3c41 4 50 8 60 32
c6 13 17 50 33 96zM469 310c-28 0 -42 18 -42 39c0 29 25 51 52 51s41 -18 41 -40c0 -28 -25 -50 -51 -50z" />
    <glyph glyph-name="ldot" unicode="&#x140;" horiz-adv-x="279" 
d="M85 68c-5 -15 -6 -19 1 -19c27 0 64 50 95 104l8 -4c-39 -68 -88 -153 -164 -153c-22 0 -26 7 -26 16c0 7 3 16 13 45l201 568c5 15 12 39 12 48s-9 12 -32 15l-29 4v6l148 20l1 -2zM278 290c-28 0 -42 18 -42 39c0 29 25 51 52 51s41 -18 41 -40c0 -28 -25 -50 -51 -50z
" />
    <glyph glyph-name="Lslash" unicode="&#x141;" horiz-adv-x="544" 
d="M441 0h-485v8l37 3c41 4 50 8 60 32c6 13 17 50 33 96l53 156l-83 -39l-6 16l97 46l72 214c18 53 31 92 31 106c0 12 -10 16 -43 19l-39 3v8h266v-8l-37 -3c-41 -4 -50 -8 -60 -32c-6 -13 -17 -50 -33 -96l-54 -162l153 73l6 -16l-167 -79l-70 -209
c-18 -53 -31 -90 -31 -104c0 -12 9 -17 40 -17c92 0 147 2 201 29c40 20 69 46 129 129l6 -4z" />
    <glyph glyph-name="lslash" unicode="&#x142;" horiz-adv-x="224" 
d="M25 -4c-22 0 -26 7 -26 16c0 7 3 16 13 45l96 272l-92 -44l-5 14l104 50l98 276c5 15 12 39 12 48s-9 12 -32 15l-29 4v6l148 20l1 -2l-115 -328l88 42l5 -14l-100 -48l-106 -300c-5 -15 -6 -19 1 -19c27 0 64 50 95 104l8 -4c-39 -68 -88 -153 -164 -153z" />
    <glyph glyph-name="Nacute" unicode="&#x143;" horiz-adv-x="685" 
d="M440 744l-3 4c32 26 62 54 93 83l53 49c29 27 49 45 67 45c24 0 38 -20 38 -39c0 -21 -15 -31 -65 -54l-69 -32c-38 -18 -78 -37 -114 -56zM490 -16h-5l-248 570l-117 -381c-13 -41 -33 -112 -33 -130c0 -16 17 -23 52 -30l35 -7v-6h-241v6l34 7c68 14 75 27 107 119
l155 440l-16 38c-15 35 -29 42 -50 47l-18 4v7h133l240 -552h1l120 379c13 41 33 112 33 130c0 16 -17 23 -52 30l-35 7v6h241v-6l-34 -7c-68 -14 -74 -27 -107 -119z" />
    <glyph glyph-name="nacute" unicode="&#x144;" horiz-adv-x="487" 
d="M413 601c-34 -24 -70 -51 -101 -77l-4 3c26 32 54 70 77 104l42 62c26 38 38 53 59 53c22 0 41 -20 41 -42s-16 -35 -54 -61zM248 7c0 7 2 17 22 64l88 210c21 51 38 92 38 108c0 15 -11 27 -35 27c-26 0 -42 -14 -55 -27c-36 -36 -181 -247 -238 -389h-66l151 386
c3 8 7 18 7 23c0 6 -5 8 -12 8c-14 0 -25 -8 -35 -18c-18 -18 -43 -53 -75 -108l-8 2c27 51 58 100 87 129c21 21 40 31 74 31c18 0 45 -5 45 -25c0 -11 -2 -22 -54 -145l-47 -113l4 -2c25 41 114 189 165 240c33 33 66 51 107 51c48 0 63 -27 63 -48
c0 -17 -10 -50 -32 -103l-99 -243c-6 -14 -6 -19 1 -19c25 0 63 50 94 101l8 -4c-39 -65 -94 -151 -172 -151c-22 0 -26 6 -26 15z" />
    <glyph glyph-name="Ncaron" unicode="&#x147;" horiz-adv-x="685" 
d="M407 914l2 2l108 -92l184 92l3 -2l-203 -170h-8zM490 -16h-5l-248 570l-117 -381c-13 -41 -33 -112 -33 -130c0 -16 17 -23 52 -30l35 -7v-6h-241v6l34 7c68 14 75 27 107 119l155 440l-16 38c-15 35 -29 42 -50 47l-18 4v7h133l240 -552h1l120 379c13 41 33 112 33 130
c0 16 -17 23 -52 30l-35 7v6h241v-6l-34 -7c-68 -14 -74 -27 -107 -119z" />
    <glyph glyph-name="ncaron" unicode="&#x148;" horiz-adv-x="487" 
d="M288 744l4 2l75 -121l173 121l5 -2l-200 -220h-8zM248 7c0 7 2 17 22 64l88 210c21 51 38 92 38 108c0 15 -11 27 -35 27c-26 0 -42 -14 -55 -27c-36 -36 -181 -247 -238 -389h-66l151 386c3 8 7 18 7 23c0 6 -5 8 -12 8c-14 0 -25 -8 -35 -18c-18 -18 -43 -53 -75 -108
l-8 2c27 51 58 100 87 129c21 21 40 31 74 31c18 0 45 -5 45 -25c0 -11 -2 -22 -54 -145l-47 -113l4 -2c25 41 114 189 165 240c33 33 66 51 107 51c48 0 63 -27 63 -48c0 -17 -10 -50 -32 -103l-99 -243c-6 -14 -6 -19 1 -19c25 0 63 50 94 101l8 -4
c-39 -65 -94 -151 -172 -151c-22 0 -26 6 -26 15z" />
    <glyph glyph-name="Ncommaaccent" unicode="&#x145;" horiz-adv-x="685" 
d="M490 -16h-5l-248 570l-117 -381c-13 -41 -33 -112 -33 -130c0 -16 17 -23 52 -30l35 -7v-6h-241v6l34 7c68 14 75 27 107 119l155 440l-16 38c-15 35 -29 42 -50 47l-18 4v7h133l240 -552h1l120 379c13 41 33 112 33 130c0 16 -17 23 -52 30l-35 7v6h241v-6l-34 -7
c-68 -14 -74 -27 -107 -119zM141 -263c71 11 108 51 108 86c0 10 -3 13 -19 16l-12 3c-22 5 -28 13 -28 28c0 27 20 50 50 50c25 0 54 -17 54 -64c0 -68 -55 -118 -153 -126v7z" />
    <glyph glyph-name="ncommaaccent" unicode="&#x146;" horiz-adv-x="487" 
d="M248 7c0 7 2 17 22 64l88 210c21 51 38 92 38 108c0 15 -11 27 -35 27c-26 0 -42 -14 -55 -27c-36 -36 -181 -247 -238 -389h-66l151 386c3 8 7 18 7 23c0 6 -5 8 -12 8c-14 0 -25 -8 -35 -18c-18 -18 -43 -53 -75 -108l-8 2c27 51 58 100 87 129c21 21 40 31 74 31
c18 0 45 -5 45 -25c0 -11 -2 -22 -54 -145l-47 -113l4 -2c25 41 114 189 165 240c33 33 66 51 107 51c48 0 63 -27 63 -48c0 -17 -10 -50 -32 -103l-99 -243c-6 -14 -6 -19 1 -19c25 0 63 50 94 101l8 -4c-39 -65 -94 -151 -172 -151c-22 0 -26 6 -26 15zM36 -263
c71 11 108 51 108 86c0 10 -3 13 -19 16l-12 3c-22 5 -28 13 -28 28c0 27 20 50 50 50c25 0 54 -17 54 -64c0 -68 -55 -118 -153 -126v7z" />
    <glyph glyph-name="Ntilde" unicode="&#xd1;" horiz-adv-x="685" 
d="M349 744l-5 1c44 88 68 131 114 131c24 0 48 -16 80 -32c40 -20 56 -31 72 -31c23 0 41 14 81 72l5 -1c-44 -88 -68 -131 -114 -131c-24 0 -48 16 -80 32c-40 20 -57 31 -73 31c-23 0 -40 -14 -80 -72zM490 -16h-5l-248 570l-117 -381c-13 -41 -33 -112 -33 -130
c0 -16 17 -23 52 -30l35 -7v-6h-241v6l34 7c68 14 75 27 107 119l155 440l-16 38c-15 35 -29 42 -50 47l-18 4v7h133l240 -552h1l120 379c13 41 33 112 33 130c0 16 -17 23 -52 30l-35 7v6h241v-6l-34 -7c-68 -14 -74 -27 -107 -119z" />
    <glyph glyph-name="ntilde" unicode="&#xf1;" horiz-adv-x="487" 
d="M214 524l-5 1c36 88 58 131 100 131c24 0 47 -16 74 -32c36 -21 53 -31 69 -31c19 0 32 14 64 72l5 -1c-36 -88 -58 -131 -100 -131c-24 0 -47 16 -74 32c-36 21 -53 31 -69 31c-19 0 -32 -14 -64 -72zM248 7c0 7 2 17 22 64l88 210c21 51 38 92 38 108
c0 15 -11 27 -35 27c-26 0 -42 -14 -55 -27c-36 -36 -181 -247 -238 -389h-66l151 386c3 8 7 18 7 23c0 6 -5 8 -12 8c-14 0 -25 -8 -35 -18c-18 -18 -43 -53 -75 -108l-8 2c27 51 58 100 87 129c21 21 40 31 74 31c18 0 45 -5 45 -25c0 -11 -2 -22 -54 -145l-47 -113l4 -2
c25 41 114 189 165 240c33 33 66 51 107 51c48 0 63 -27 63 -48c0 -17 -10 -50 -32 -103l-99 -243c-6 -14 -6 -19 1 -19c25 0 63 50 94 101l8 -4c-39 -65 -94 -151 -172 -151c-22 0 -26 6 -26 15z" />
    <glyph glyph-name="Oacute" unicode="&#xd3;" horiz-adv-x="663" 
d="M451 744l-3 4c32 26 62 54 93 83l53 49c29 27 49 45 67 45c24 0 38 -20 38 -39c0 -21 -15 -31 -65 -54l-69 -32c-38 -18 -78 -37 -114 -56zM277 -16c-102 0 -209 76 -209 259c0 158 133 441 394 441c102 0 209 -76 209 -259c0 -158 -133 -441 -394 -441zM272 -3
c170 0 314 289 314 500c0 103 -34 174 -119 174c-170 0 -314 -289 -314 -500c0 -103 34 -174 119 -174z" />
    <glyph glyph-name="oacute" unicode="&#xf3;" horiz-adv-x="404" 
d="M376 601c-34 -24 -70 -51 -101 -77l-4 3c26 32 54 70 77 104l42 62c26 38 38 53 59 53c22 0 41 -20 41 -42s-16 -35 -54 -61zM130 -16c-72 0 -116 55 -116 132c0 144 110 343 260 343c72 0 116 -55 116 -132c0 -144 -110 -343 -260 -343zM278 448
c-43 0 -93 -62 -135 -146c-38 -76 -62 -168 -62 -239c0 -56 22 -68 45 -68c43 0 93 62 135 146c38 76 62 168 62 239c0 56 -22 68 -45 68z" />
    <glyph glyph-name="Obreve" unicode="&#x14e;" horiz-adv-x="663" 
d="M678 906l4 -1c-31 -88 -86 -153 -182 -153c-93 0 -123 66 -100 153l4 1c-1 -69 60 -88 109 -88c50 0 127 15 165 88zM277 -16c-102 0 -209 76 -209 259c0 158 133 441 394 441c102 0 209 -76 209 -259c0 -158 -133 -441 -394 -441zM272 -3c170 0 314 289 314 500
c0 103 -34 174 -119 174c-170 0 -314 -289 -314 -500c0 -103 34 -174 119 -174z" />
    <glyph glyph-name="obreve" unicode="&#x14f;" horiz-adv-x="404" 
d="M471 710l3 -1c-33 -107 -90 -177 -179 -177c-86 0 -114 71 -83 177l3 1c-8 -87 41 -112 93 -112c53 0 122 21 163 112zM130 -16c-72 0 -116 55 -116 132c0 144 110 343 260 343c72 0 116 -55 116 -132c0 -144 -110 -343 -260 -343zM278 448c-43 0 -93 -62 -135 -146
c-38 -76 -62 -168 -62 -239c0 -56 22 -68 45 -68c43 0 93 62 135 146c38 76 62 168 62 239c0 56 -22 68 -45 68z" />
    <glyph glyph-name="Ocircumflex" unicode="&#xd4;" horiz-adv-x="663" 
d="M643 746l-2 -2l-108 92l-184 -92l-3 2l203 170h8zM277 -16c-102 0 -209 76 -209 259c0 158 133 441 394 441c102 0 209 -76 209 -259c0 -158 -133 -441 -394 -441zM272 -3c170 0 314 289 314 500c0 103 -34 174 -119 174c-170 0 -314 -289 -314 -500
c0 -103 34 -174 119 -174z" />
    <glyph glyph-name="ocircumflex" unicode="&#xf4;" horiz-adv-x="404" 
d="M419 526l-4 -2l-75 121l-173 -121l-5 2l200 220h8zM130 -16c-72 0 -116 55 -116 132c0 144 110 343 260 343c72 0 116 -55 116 -132c0 -144 -110 -343 -260 -343zM278 448c-43 0 -93 -62 -135 -146c-38 -76 -62 -168 -62 -239c0 -56 22 -68 45 -68c43 0 93 62 135 146
c38 76 62 168 62 239c0 56 -22 68 -45 68z" />
    <glyph glyph-name="Odieresis" unicode="&#xd6;" horiz-adv-x="663" 
d="M616 746c-25 0 -40 18 -40 37c0 30 25 51 53 51c25 0 40 -18 40 -37c0 -30 -25 -51 -53 -51zM418 746c-27 0 -41 18 -41 38c0 29 24 50 51 50c26 0 40 -18 40 -39c0 -28 -24 -49 -50 -49zM277 -16c-102 0 -209 76 -209 259c0 158 133 441 394 441c102 0 209 -76 209 -259
c0 -158 -133 -441 -394 -441zM272 -3c170 0 314 289 314 500c0 103 -34 174 -119 174c-170 0 -314 -289 -314 -500c0 -103 34 -174 119 -174z" />
    <glyph glyph-name="odieresis" unicode="&#xf6;" horiz-adv-x="404" 
d="M403 526c-25 0 -40 18 -40 37c0 30 25 51 53 51c25 0 40 -18 40 -37c0 -30 -25 -51 -53 -51zM225 526c-27 0 -41 18 -41 38c0 29 24 50 51 50c26 0 40 -18 40 -39c0 -28 -24 -49 -50 -49zM130 -16c-72 0 -116 55 -116 132c0 144 110 343 260 343c72 0 116 -55 116 -132
c0 -144 -110 -343 -260 -343zM278 448c-43 0 -93 -62 -135 -146c-38 -76 -62 -168 -62 -239c0 -56 22 -68 45 -68c43 0 93 62 135 146c38 76 62 168 62 239c0 56 -22 68 -45 68z" />
    <glyph glyph-name="OE" unicode="&#x152;" horiz-adv-x="962" 
d="M425 12c12 25 27 73 40 112l138 410c18 53 30 88 30 102c0 12 -12 22 -53 22h-3c-152 0 -238 -55 -284 -101c-83 -83 -127 -205 -127 -315c0 -62 16 -124 58 -166c38 -38 94 -64 201 -64zM920 161l-76 -161h-441c-251 0 -328 129 -328 260c0 154 112 412 494 412
c79 0 129 -4 249 -4h212l-54 -163h-7c-1 78 -3 110 -18 125c-13 13 -38 17 -116 20l-106 4l-103 -305l105 3c44 2 65 4 91 30c9 9 23 25 47 65l9 16l8 -2l-88 -251h-9l2 22c5 60 4 79 -6 89c-8 8 -17 10 -62 12l-101 3l-67 -200c-18 -53 -31 -90 -31 -104
c0 -12 9 -17 40 -17c99 0 174 3 234 36c32 17 66 48 116 114z" />
    <glyph glyph-name="oe" unicode="&#x153;" horiz-adv-x="620" 
d="M371 -16c-54 0 -78 33 -85 84c-41 -50 -94 -84 -155 -84c-73 0 -117 45 -117 132c0 144 110 343 260 343c62 0 96 -38 104 -98c50 59 116 98 183 98c53 0 78 -27 78 -66c0 -41 -24 -85 -101 -123c-38 -19 -92 -38 -168 -55c-12 -41 -19 -82 -19 -121c0 -62 21 -82 53 -82
c66 0 127 106 138 126l11 -6c-8 -15 -80 -148 -182 -148zM278 448c-43 0 -93 -62 -135 -146c-38 -76 -62 -168 -62 -239c0 -56 22 -68 45 -68c43 0 93 62 135 146c38 76 62 168 62 239c0 56 -22 68 -45 68zM535 445c-54 0 -125 -103 -161 -217c72 16 122 35 152 65
c35 35 42 77 42 101c0 25 -7 51 -33 51z" />
    <glyph glyph-name="Ograve" unicode="&#xd2;" horiz-adv-x="663" 
d="M469 830c29 -31 51 -56 78 -82l-3 -4c-31 19 -62 35 -99 55l-61 32c-48 25 -58 34 -58 55c0 19 14 39 38 39c18 0 33 -17 60 -46zM277 -16c-102 0 -209 76 -209 259c0 158 133 441 394 441c102 0 209 -76 209 -259c0 -158 -133 -441 -394 -441zM272 -3
c170 0 314 289 314 500c0 103 -34 174 -119 174c-170 0 -314 -289 -314 -500c0 -103 34 -174 119 -174z" />
    <glyph glyph-name="ograve" unicode="&#xf2;" horiz-adv-x="404" 
d="M324 524c-27 26 -55 52 -86 78l-52 43c-28 24 -47 36 -47 57c0 23 20 44 44 44c21 0 31 -16 50 -53l33 -63c19 -36 41 -71 62 -103zM130 -16c-72 0 -116 55 -116 132c0 144 110 343 260 343c72 0 116 -55 116 -132c0 -144 -110 -343 -260 -343zM278 448
c-43 0 -93 -62 -135 -146c-38 -76 -62 -168 -62 -239c0 -56 22 -68 45 -68c43 0 93 62 135 146c38 76 62 168 62 239c0 56 -22 68 -45 68z" />
    <glyph glyph-name="Ohungarumlaut" unicode="&#x150;" horiz-adv-x="663" 
d="M411 747l-3 4c27 27 54 54 81 85l43 48c23 26 37 42 57 42c19 0 35 -18 35 -36c0 -22 -17 -33 -58 -55l-52 -28c-35 -19 -70 -40 -103 -60zM570 747l-3 4c27 27 54 54 81 85l43 48c23 26 37 42 57 42c19 0 35 -18 35 -36c0 -22 -17 -33 -58 -55l-52 -28
c-35 -19 -70 -40 -103 -60zM277 -16c-102 0 -209 76 -209 259c0 158 133 441 394 441c102 0 209 -76 209 -259c0 -158 -133 -441 -394 -441zM272 -3c170 0 314 289 314 500c0 103 -34 174 -119 174c-170 0 -314 -289 -314 -500c0 -103 34 -174 119 -174z" />
    <glyph glyph-name="ohungarumlaut" unicode="&#x151;" horiz-adv-x="404" 
d="M313 610c-31 -25 -58 -54 -85 -81l-4 3c20 32 40 64 59 100l32 56c19 36 29 55 52 55c20 0 36 -16 36 -34c0 -20 -17 -37 -47 -62zM452 610c-31 -25 -58 -54 -85 -81l-4 3c20 32 40 64 59 100l32 56c19 36 29 55 52 55c20 0 36 -16 36 -34c0 -20 -17 -37 -47 -62z
M130 -16c-72 0 -116 55 -116 132c0 144 110 343 260 343c72 0 116 -55 116 -132c0 -144 -110 -343 -260 -343zM278 448c-43 0 -93 -62 -135 -146c-38 -76 -62 -168 -62 -239c0 -56 22 -68 45 -68c43 0 93 62 135 146c38 76 62 168 62 239c0 56 -22 68 -45 68z" />
    <glyph glyph-name="Omacron" unicode="&#x14c;" horiz-adv-x="663" 
d="M674 760h-321l13 38h321zM277 -16c-102 0 -209 76 -209 259c0 158 133 441 394 441c102 0 209 -76 209 -259c0 -158 -133 -441 -394 -441zM272 -3c170 0 314 289 314 500c0 103 -34 174 -119 174c-170 0 -314 -289 -314 -500c0 -103 34 -174 119 -174z" />
    <glyph glyph-name="omacron" unicode="&#x14d;" horiz-adv-x="404" 
d="M450 540h-281l13 38h281zM130 -16c-72 0 -116 55 -116 132c0 144 110 343 260 343c72 0 116 -55 116 -132c0 -144 -110 -343 -260 -343zM278 448c-43 0 -93 -62 -135 -146c-38 -76 -62 -168 -62 -239c0 -56 22 -68 45 -68c43 0 93 62 135 146c38 76 62 168 62 239
c0 56 -22 68 -45 68z" />
    <glyph glyph-name="Oslash" unicode="&#xd8;" horiz-adv-x="663" 
d="M153 171c0 -13 1 -25 2 -37l426 424c-12 69 -47 113 -114 113c-170 0 -314 -289 -314 -500zM272 -3c170 0 314 289 314 500c0 13 -1 25 -2 37l-426 -424c12 -69 47 -113 114 -113zM277 -16c-60 0 -121 26 -162 84l-97 -97l-14 13l101 100c-23 40 -37 93 -37 159
c0 158 133 441 394 441c60 0 121 -26 162 -84l97 97l14 -13l-101 -100c23 -40 37 -93 37 -159c0 -158 -133 -441 -394 -441z" />
    <glyph glyph-name="oslash" unicode="&#xf8;" horiz-adv-x="404" 
d="M143 302c-31 -61 -52 -133 -59 -195l238 252c1 7 1 14 1 21c0 56 -22 68 -45 68c-43 0 -93 -62 -135 -146zM126 -5c43 0 93 62 135 146c30 61 52 131 59 194l-238 -253c-1 -6 -1 -13 -1 -19c0 -56 22 -68 45 -68zM130 -16c-45 0 -79 21 -98 56l-67 -67l-10 11l70 70
c-7 18 -11 39 -11 62c0 144 110 343 260 343c45 0 79 -22 98 -57l68 67l9 -10l-70 -71c7 -18 11 -38 11 -61c0 -144 -110 -343 -260 -343z" />
    <glyph glyph-name="Oslashacute" unicode="&#x1fe;" horiz-adv-x="663" 
d="M451 744l-3 4c32 26 62 54 93 83l53 49c29 27 49 45 67 45c24 0 38 -20 38 -39c0 -21 -15 -31 -65 -54l-69 -32c-38 -18 -78 -37 -114 -56zM153 171c0 -13 1 -25 2 -37l426 424c-12 69 -47 113 -114 113c-170 0 -314 -289 -314 -500zM272 -3c170 0 314 289 314 500
c0 13 -1 25 -2 37l-426 -424c12 -69 47 -113 114 -113zM277 -16c-60 0 -121 26 -162 84l-97 -97l-14 13l101 100c-23 40 -37 93 -37 159c0 158 133 441 394 441c60 0 121 -26 162 -84l97 97l14 -13l-101 -100c23 -40 37 -93 37 -159c0 -158 -133 -441 -394 -441z" />
    <glyph glyph-name="oslashacute" unicode="&#x1ff;" horiz-adv-x="404" 
d="M376 601c-34 -24 -70 -51 -101 -77l-4 3c26 32 54 70 77 104l42 62c26 38 38 53 59 53c22 0 41 -20 41 -42s-16 -35 -54 -61zM143 302c-31 -61 -52 -133 -59 -195l238 252c1 7 1 14 1 21c0 56 -22 68 -45 68c-43 0 -93 -62 -135 -146zM126 -5c43 0 93 62 135 146
c30 61 52 131 59 194l-238 -253c-1 -6 -1 -13 -1 -19c0 -56 22 -68 45 -68zM130 -16c-45 0 -79 21 -98 56l-67 -67l-10 11l70 70c-7 18 -11 39 -11 62c0 144 110 343 260 343c45 0 79 -22 98 -57l68 67l9 -10l-70 -71c7 -18 11 -38 11 -61c0 -144 -110 -343 -260 -343z" />
    <glyph glyph-name="Otilde" unicode="&#xd5;" horiz-adv-x="663" 
d="M361 744l-5 1c44 88 68 131 114 131c24 0 48 -16 80 -32c40 -20 56 -31 72 -31c23 0 41 14 81 72l5 -1c-44 -88 -68 -131 -114 -131c-24 0 -48 16 -80 32c-40 20 -57 31 -73 31c-23 0 -40 -14 -80 -72zM277 -16c-102 0 -209 76 -209 259c0 158 133 441 394 441
c102 0 209 -76 209 -259c0 -158 -133 -441 -394 -441zM272 -3c170 0 314 289 314 500c0 103 -34 174 -119 174c-170 0 -314 -289 -314 -500c0 -103 34 -174 119 -174z" />
    <glyph glyph-name="otilde" unicode="&#xf5;" horiz-adv-x="404" 
d="M177 524l-5 1c36 88 58 131 100 131c24 0 47 -16 74 -32c36 -21 53 -31 69 -31c19 0 32 14 64 72l5 -1c-36 -88 -58 -131 -100 -131c-24 0 -47 16 -74 32c-36 21 -53 31 -69 31c-19 0 -32 -14 -64 -72zM130 -16c-72 0 -116 55 -116 132c0 144 110 343 260 343
c72 0 116 -55 116 -132c0 -144 -110 -343 -260 -343zM278 448c-43 0 -93 -62 -135 -146c-38 -76 -62 -168 -62 -239c0 -56 22 -68 45 -68c43 0 93 62 135 146c38 76 62 168 62 239c0 56 -22 68 -45 68z" />
    <glyph glyph-name="Racute" unicode="&#x154;" horiz-adv-x="607" 
d="M382 744l-3 4c32 26 62 54 93 83l53 49c29 27 49 45 67 45c24 0 38 -20 38 -39c0 -21 -15 -31 -65 -54l-69 -32c-38 -18 -78 -37 -114 -56zM493 -6c-48 0 -62 14 -96 98c-21 52 -49 130 -67 186c-11 34 -14 36 -31 36h-68l-60 -178c-18 -53 -31 -92 -31 -106
c0 -12 10 -16 43 -19l44 -3v-8h-271v8l37 3c41 4 50 8 60 32c6 13 17 50 33 96l130 385c16 46 29 91 29 109c0 10 0 22 -51 22h-27v8c99 7 145 9 211 9c191 0 230 -75 230 -140c0 -97 -91 -161 -212 -192c8 -25 55 -145 84 -220c40 -103 42 -105 132 -113v-7l-57 -3
c-21 -1 -40 -3 -62 -3zM516 540c0 54 -30 120 -138 120h-28c-12 -25 -27 -73 -40 -112l-75 -222h32c128 0 249 82 249 214z" />
    <glyph glyph-name="racute" unicode="&#x155;" horiz-adv-x="318" 
d="M324 601c-34 -24 -70 -51 -101 -77l-4 3c26 32 54 70 77 104l42 62c26 38 38 53 59 53c22 0 41 -20 41 -42s-16 -35 -54 -61zM135 170l4 -2c21 37 75 166 127 248c17 26 34 43 60 43c20 0 38 -12 38 -40c0 -16 -10 -41 -27 -54c-12 9 -39 24 -54 24c-7 0 -12 -4 -16 -8
c-15 -15 -41 -64 -71 -124c-33 -66 -72 -143 -121 -257h-63l133 384c3 8 7 20 7 25c0 6 -6 8 -13 8c-14 0 -25 -8 -35 -18c-18 -18 -43 -53 -75 -108l-8 2c27 51 58 100 86 128c21 21 39 32 72 32c18 0 43 -5 43 -25c0 -11 -2 -20 -47 -145z" />
    <glyph glyph-name="Rcaron" unicode="&#x158;" horiz-adv-x="607" 
d="M349 914l2 2l108 -92l184 92l3 -2l-203 -170h-8zM493 -6c-48 0 -62 14 -96 98c-21 52 -49 130 -67 186c-11 34 -14 36 -31 36h-68l-60 -178c-18 -53 -31 -92 -31 -106c0 -12 10 -16 43 -19l44 -3v-8h-271v8l37 3c41 4 50 8 60 32c6 13 17 50 33 96l130 385
c16 46 29 91 29 109c0 10 0 22 -51 22h-27v8c99 7 145 9 211 9c191 0 230 -75 230 -140c0 -97 -91 -161 -212 -192c8 -25 55 -145 84 -220c40 -103 42 -105 132 -113v-7l-57 -3c-21 -1 -40 -3 -62 -3zM516 540c0 54 -30 120 -138 120h-28c-12 -25 -27 -73 -40 -112l-75 -222
h32c128 0 249 82 249 214z" />
    <glyph glyph-name="rcaron" unicode="&#x159;" horiz-adv-x="318" 
d="M200 744l4 2l75 -121l173 121l5 -2l-200 -220h-8zM135 170l4 -2c21 37 75 166 127 248c17 26 34 43 60 43c20 0 38 -12 38 -40c0 -16 -10 -41 -27 -54c-12 9 -39 24 -54 24c-7 0 -12 -4 -16 -8c-15 -15 -41 -64 -71 -124c-33 -66 -72 -143 -121 -257h-63l133 384
c3 8 7 20 7 25c0 6 -6 8 -13 8c-14 0 -25 -8 -35 -18c-18 -18 -43 -53 -75 -108l-8 2c27 51 58 100 86 128c21 21 39 32 72 32c18 0 43 -5 43 -25c0 -11 -2 -20 -47 -145z" />
    <glyph glyph-name="Rcommaaccent" unicode="&#x156;" horiz-adv-x="607" 
d="M493 -6c-48 0 -62 14 -96 98c-21 52 -49 130 -67 186c-11 34 -14 36 -31 36h-68l-60 -178c-18 -53 -31 -92 -31 -106c0 -12 10 -16 43 -19l44 -3v-8h-271v8l37 3c41 4 50 8 60 32c6 13 17 50 33 96l130 385c16 46 29 91 29 109c0 10 0 22 -51 22h-27v8c99 7 145 9 211 9
c191 0 230 -75 230 -140c0 -97 -91 -161 -212 -192c8 -25 55 -145 84 -220c40 -103 42 -105 132 -113v-7l-57 -3c-21 -1 -40 -3 -62 -3zM516 540c0 54 -30 120 -138 120h-28c-12 -25 -27 -73 -40 -112l-75 -222h32c128 0 249 82 249 214zM149 -263c71 11 108 51 108 86
c0 10 -3 13 -19 16l-12 3c-22 5 -28 13 -28 28c0 27 20 50 50 50c25 0 54 -17 54 -64c0 -68 -55 -118 -153 -126v7z" />
    <glyph glyph-name="rcommaaccent" unicode="&#x157;" horiz-adv-x="318" 
d="M135 170l4 -2c21 37 75 166 127 248c17 26 34 43 60 43c20 0 38 -12 38 -40c0 -16 -10 -41 -27 -54c-12 9 -39 24 -54 24c-7 0 -12 -4 -16 -8c-15 -15 -41 -64 -71 -124c-33 -66 -72 -143 -121 -257h-63l133 384c3 8 7 20 7 25c0 6 -6 8 -13 8c-14 0 -25 -8 -35 -18
c-18 -18 -43 -53 -75 -108l-8 2c27 51 58 100 86 128c21 21 39 32 72 32c18 0 43 -5 43 -25c0 -11 -2 -20 -47 -145zM-78 -263c71 11 108 51 108 86c0 10 -3 13 -19 16l-12 3c-22 5 -28 13 -28 28c0 27 20 50 50 50c25 0 54 -17 54 -64c0 -68 -55 -118 -153 -126v7z" />
    <glyph glyph-name="Sacute" unicode="&#x15a;" horiz-adv-x="489" 
d="M342 744l-3 4c32 26 62 54 93 83l53 49c29 27 49 45 67 45c24 0 38 -20 38 -39c0 -21 -15 -31 -65 -54l-69 -32c-38 -18 -78 -37 -114 -56zM524 642c-2 -31 -20 -112 -29 -160h-9c2 163 -59 185 -124 185c-83 0 -130 -47 -130 -115c0 -54 40 -110 87 -173
c58 -78 103 -126 103 -203c0 -112 -98 -188 -222 -188c-47 0 -115 12 -182 49c4 49 24 148 33 183h8c1 -172 49 -219 135 -219c87 0 151 46 151 132c0 56 -36 112 -98 190c-51 65 -90 116 -90 184c0 82 75 173 208 173c55 0 117 -18 159 -38z" />
    <glyph glyph-name="sacute" unicode="&#x15b;" horiz-adv-x="299" 
d="M309 601c-34 -24 -70 -51 -101 -77l-4 3c26 32 54 70 77 104l42 62c26 38 38 53 59 53c22 0 41 -20 41 -42s-16 -35 -54 -61zM226 456c56 0 93 -29 93 -60c0 -27 -24 -40 -40 -40c-14 0 -19 5 -26 21l-20 50c-6 15 -12 17 -20 17c-43 0 -70 -30 -70 -64
c0 -71 84 -182 84 -263c0 -82 -76 -131 -151 -131c-71 0 -97 31 -97 61c0 25 20 44 41 44c12 0 19 -4 27 -25l17 -49c6 -17 11 -18 22 -18c41 0 75 24 75 74c0 90 -79 180 -79 247c0 70 48 136 144 136z" />
    <glyph glyph-name="Scaron" unicode="&#x160;" horiz-adv-x="489" 
d="M309 914l2 2l108 -92l184 92l3 -2l-203 -170h-8zM524 642c-2 -31 -20 -112 -29 -160h-9c2 163 -59 185 -124 185c-83 0 -130 -47 -130 -115c0 -54 40 -110 87 -173c58 -78 103 -126 103 -203c0 -112 -98 -188 -222 -188c-47 0 -115 12 -182 49c4 49 24 148 33 183h8
c1 -172 49 -219 135 -219c87 0 151 46 151 132c0 56 -36 112 -98 190c-51 65 -90 116 -90 184c0 82 75 173 208 173c55 0 117 -18 159 -38z" />
    <glyph glyph-name="scaron" unicode="&#x161;" horiz-adv-x="299" 
d="M185 744l4 2l75 -121l173 121l5 -2l-200 -220h-8zM226 456c56 0 93 -29 93 -60c0 -27 -24 -40 -40 -40c-14 0 -19 5 -26 21l-20 50c-6 15 -12 17 -20 17c-43 0 -70 -30 -70 -64c0 -71 84 -182 84 -263c0 -82 -76 -131 -151 -131c-71 0 -97 31 -97 61c0 25 20 44 41 44
c12 0 19 -4 27 -25l17 -49c6 -17 11 -18 22 -18c41 0 75 24 75 74c0 90 -79 180 -79 247c0 70 48 136 144 136z" />
    <glyph glyph-name="Scedilla" unicode="&#x15e;" horiz-adv-x="489" 
d="M77 -252c-29 0 -63 5 -85 13l4 8c17 -5 44 -8 70 -8c78 0 116 39 116 76c0 30 -22 54 -97 64v3l81 86c-43 5 -96 18 -148 47c4 49 24 148 33 183h8c1 -172 49 -219 135 -219c87 0 151 46 151 132c0 56 -36 112 -98 190c-51 65 -90 116 -90 184c0 82 75 173 208 173
c55 0 117 -18 159 -38c-2 -31 -20 -112 -29 -160h-9c2 163 -59 185 -124 185c-83 0 -130 -47 -130 -115c0 -54 40 -110 87 -173c58 -78 103 -126 103 -203c0 -112 -98 -188 -222 -188c-7 0 -14 0 -21 1l-43 -47c85 -14 102 -49 102 -81c0 -63 -63 -113 -161 -113z" />
    <glyph glyph-name="scedilla" unicode="&#x15f;" horiz-adv-x="299" 
d="M-16 -252c-29 0 -63 5 -85 13l4 8c17 -5 44 -8 70 -8c78 0 116 39 116 76c0 30 -22 54 -97 64v3l77 82c-66 2 -90 32 -90 61c0 25 20 44 41 44c12 0 19 -4 27 -25l17 -49c6 -17 11 -18 22 -18c41 0 75 24 75 74c0 90 -79 180 -79 247c0 70 48 136 144 136
c56 0 93 -29 93 -60c0 -27 -24 -40 -40 -40c-14 0 -19 5 -26 21l-20 50c-6 15 -12 17 -20 17c-43 0 -70 -30 -70 -64c0 -71 84 -182 84 -263c0 -79 -71 -128 -144 -131l-40 -44c85 -14 102 -49 102 -81c0 -63 -63 -113 -161 -113z" />
    <glyph glyph-name="Scommaaccent" unicode="&#x218;" horiz-adv-x="489" 
d="M524 642c-2 -31 -20 -112 -29 -160h-9c2 163 -59 185 -124 185c-83 0 -130 -47 -130 -115c0 -54 40 -110 87 -173c58 -78 103 -126 103 -203c0 -112 -98 -188 -222 -188c-47 0 -115 12 -182 49c4 49 24 148 33 183h8c1 -172 49 -219 135 -219c87 0 151 46 151 132
c0 56 -36 112 -98 190c-51 65 -90 116 -90 184c0 82 75 173 208 173c55 0 117 -18 159 -38zM54 -263c71 11 108 51 108 86c0 10 -3 13 -19 16l-12 3c-22 5 -28 13 -28 28c0 27 20 50 50 50c25 0 54 -17 54 -64c0 -68 -55 -118 -153 -126v7z" />
    <glyph glyph-name="scommaaccent" unicode="&#x219;" horiz-adv-x="299" 
d="M226 456c56 0 93 -29 93 -60c0 -27 -24 -40 -40 -40c-14 0 -19 5 -26 21l-20 50c-6 15 -12 17 -20 17c-43 0 -70 -30 -70 -64c0 -71 84 -182 84 -263c0 -82 -76 -131 -151 -131c-71 0 -97 31 -97 61c0 25 20 44 41 44c12 0 19 -4 27 -25l17 -49c6 -17 11 -18 22 -18
c41 0 75 24 75 74c0 90 -79 180 -79 247c0 70 48 136 144 136zM-58 -263c71 11 108 51 108 86c0 10 -3 13 -19 16l-12 3c-22 5 -28 13 -28 28c0 27 20 50 50 50c25 0 54 -17 54 -64c0 -68 -55 -118 -153 -126v7z" />
    <glyph glyph-name="Tcaron" unicode="&#x164;" horiz-adv-x="662" 
d="M417 914l2 2l108 -92l184 92l3 -2l-203 -170h-8zM516 644l-172 -508c-18 -53 -31 -92 -31 -106c0 -12 10 -17 48 -19l59 -3v-8h-316v8l57 3c46 2 55 8 65 32c6 13 17 50 33 96l171 505h-47c-55 0 -101 4 -140 -22c-34 -23 -68 -56 -135 -138l-6 3l97 209l7 -1l-2 -14
c-3 -21 -2 -23 22 -23h490c28 0 32 3 43 20l11 18l6 -1l-49 -210l-6 -1c-11 127 -16 147 -56 156c-20 4 -56 4 -94 4h-55z" />
    <glyph glyph-name="tcaron" unicode="&#x165;" horiz-adv-x="304" 
d="M384 591c-23 -30 -43 -61 -62 -90l-3 1c10 33 21 71 30 105l18 66c10 35 24 54 44 54s39 -14 39 -32c0 -17 -13 -36 -31 -59zM247 159c-28 -55 -114 -175 -208 -175c-22 0 -29 7 -29 18c0 12 6 26 26 80l124 334h-75l11 28h74l46 124h64l2 -4l-44 -120h118l-11 -28h-117
l-122 -335c-3 -9 -11 -31 -11 -37c0 -3 1 -6 7 -6c47 0 102 69 134 126z" />
    <glyph glyph-name="Tcommaaccent" unicode="&#x162;" horiz-adv-x="662" 
d="M516 644l-172 -508c-18 -53 -31 -92 -31 -106c0 -12 10 -17 48 -19l59 -3v-8h-316v8l57 3c46 2 55 8 65 32c6 13 17 50 33 96l171 505h-47c-55 0 -101 4 -140 -22c-34 -23 -68 -56 -135 -138l-6 3l97 209l7 -1l-2 -14c-3 -21 -2 -23 22 -23h490c28 0 32 3 43 20l11 18
l6 -1l-49 -210l-6 -1c-11 127 -16 147 -56 156c-20 4 -56 4 -94 4h-55zM127 -263c71 11 108 51 108 86c0 10 -3 13 -19 16l-12 3c-22 5 -28 13 -28 28c0 27 20 50 50 50c25 0 54 -17 54 -64c0 -68 -55 -118 -153 -126v7z" />
    <glyph glyph-name="Tcommaaccent" unicode="&#x21a;" horiz-adv-x="662" 
d="M516 644l-172 -508c-18 -53 -31 -92 -31 -106c0 -12 10 -17 48 -19l59 -3v-8h-316v8l57 3c46 2 55 8 65 32c6 13 17 50 33 96l171 505h-47c-55 0 -101 4 -140 -22c-34 -23 -68 -56 -135 -138l-6 3l97 209l7 -1l-2 -14c-3 -21 -2 -23 22 -23h490c28 0 32 3 43 20l11 18
l6 -1l-49 -210l-6 -1c-11 127 -16 147 -56 156c-20 4 -56 4 -94 4h-55zM127 -263c71 11 108 51 108 86c0 10 -3 13 -19 16l-12 3c-22 5 -28 13 -28 28c0 27 20 50 50 50c25 0 54 -17 54 -64c0 -68 -55 -118 -153 -126v7z" />
    <glyph glyph-name="tcommaaccent" unicode="&#x163;" horiz-adv-x="304" 
d="M247 159c-28 -55 -114 -175 -208 -175c-22 0 -29 7 -29 18c0 12 6 26 26 80l124 334h-75l11 28h74l46 124h64l2 -4l-44 -120h118l-11 -28h-117l-122 -335c-3 -9 -11 -31 -11 -37c0 -3 1 -6 7 -6c47 0 102 69 134 126zM-57 -263c71 11 108 51 108 86c0 10 -3 13 -19 16
l-12 3c-22 5 -28 13 -28 28c0 27 20 50 50 50c25 0 54 -17 54 -64c0 -68 -55 -118 -153 -126v7z" />
    <glyph glyph-name="tcommaaccent" unicode="&#x21b;" horiz-adv-x="304" 
d="M247 159c-28 -55 -114 -175 -208 -175c-22 0 -29 7 -29 18c0 12 6 26 26 80l124 334h-75l11 28h74l46 124h64l2 -4l-44 -120h118l-11 -28h-117l-122 -335c-3 -9 -11 -31 -11 -37c0 -3 1 -6 7 -6c47 0 102 69 134 126zM-57 -263c71 11 108 51 108 86c0 10 -3 13 -19 16
l-12 3c-22 5 -28 13 -28 28c0 27 20 50 50 50c25 0 54 -17 54 -64c0 -68 -55 -118 -153 -126v7z" />
    <glyph glyph-name="Thorn" unicode="&#xde;" horiz-adv-x="553" 
d="M222 8v-8h-266v8l37 3c41 4 50 8 60 32c6 13 17 50 33 96l133 393c18 53 31 92 31 106c0 12 -10 16 -43 19l-39 3v8h266v-8l-37 -3c-41 -4 -50 -8 -60 -32c-6 -13 -17 -50 -32 -93h16c196 0 254 -77 254 -147c0 -140 -168 -219 -353 -219v6c175 16 259 108 259 231
c0 55 -41 117 -159 117h-21l-130 -384c-18 -53 -31 -92 -31 -106c0 -12 10 -16 43 -19z" />
    <glyph glyph-name="thorn" unicode="&#xfe;" horiz-adv-x="434" 
d="M104 135c-20 -55 -23 -74 -23 -92c0 -15 7 -45 46 -45c26 0 51 9 81 38c73 71 139 226 139 315c0 53 -15 71 -41 71c-21 0 -39 -16 -54 -31c-29 -30 -84 -119 -106 -163c-14 -28 -36 -77 -42 -93zM65 21l-59 -173c-6 -18 -13 -41 -13 -49c0 -9 7 -13 41 -14l42 -2v-7
h-205v7l16 2c24 3 29 5 36 24l277 816c5 15 12 39 12 48s-9 12 -32 15l-29 4v6l148 20l1 -2l-148 -439l4 -2c31 52 62 103 98 139c26 26 57 45 92 45c33 0 77 -23 77 -104c0 -152 -166 -371 -294 -371c-36 0 -53 17 -64 37z" />
    <glyph glyph-name="Uacute" unicode="&#xda;" horiz-adv-x="674" 
d="M465 744l-3 4c32 26 62 54 93 83l53 49c29 27 49 45 67 45c24 0 38 -20 38 -39c0 -21 -15 -31 -65 -54l-69 -32c-38 -18 -78 -37 -114 -56zM195 265c-20 -59 -24 -90 -24 -120c0 -65 36 -126 145 -126c76 0 129 24 181 102c38 57 79 183 99 254l33 116
c16 57 33 123 33 139c0 15 -18 19 -48 25l-49 7v6h252v-6l-29 -5c-70 -12 -73 -16 -106 -111l-61 -178c-12 -35 -26 -74 -56 -155c-73 -195 -184 -229 -284 -229c-124 0 -197 65 -197 161c0 35 7 68 24 119l89 268c18 53 31 92 31 106c0 12 -10 16 -43 19l-39 3v8h291v-8
l-52 -3c-51 -3 -60 -8 -70 -32c-6 -13 -17 -50 -33 -96z" />
    <glyph glyph-name="uacute" unicode="&#xfa;" horiz-adv-x="490" 
d="M419 601c-34 -24 -70 -51 -101 -77l-4 3c26 32 54 70 77 104l42 62c26 38 38 53 59 53c22 0 41 -20 41 -42s-16 -35 -54 -61zM344 68c-6 -15 -6 -19 1 -19c25 0 63 50 94 104l8 -4c-39 -68 -87 -153 -165 -153c-22 0 -26 6 -26 15c0 11 3 30 55 153l53 128l-4 2
c-31 -56 -118 -201 -161 -244c-41 -41 -76 -62 -117 -62c-48 0 -63 27 -63 48c0 17 10 50 32 103l103 241c6 15 6 19 -1 19c-25 0 -63 -50 -98 -111l-8 4c43 75 88 161 166 161c22 0 26 -6 26 -15c0 -7 -2 -17 -22 -64l-82 -208c-21 -51 -38 -92 -38 -108
c0 -15 11 -27 35 -27c26 0 44 17 64 37c29 29 169 237 226 379h66z" />
    <glyph glyph-name="Ubreve" unicode="&#x16c;" horiz-adv-x="674" 
d="M691 906l4 -1c-31 -88 -86 -153 -182 -153c-93 0 -123 66 -100 153l4 1c-1 -69 60 -88 109 -88c50 0 127 15 165 88zM195 265c-20 -59 -24 -90 -24 -120c0 -65 36 -126 145 -126c76 0 129 24 181 102c38 57 79 183 99 254l33 116c16 57 33 123 33 139c0 15 -18 19 -48 25
l-49 7v6h252v-6l-29 -5c-70 -12 -73 -16 -106 -111l-61 -178c-12 -35 -26 -74 -56 -155c-73 -195 -184 -229 -284 -229c-124 0 -197 65 -197 161c0 35 7 68 24 119l89 268c18 53 31 92 31 106c0 12 -10 16 -43 19l-39 3v8h291v-8l-52 -3c-51 -3 -60 -8 -70 -32
c-6 -13 -17 -50 -33 -96z" />
    <glyph glyph-name="ubreve" unicode="&#x16d;" horiz-adv-x="490" 
d="M515 710l3 -1c-33 -107 -90 -177 -179 -177c-86 0 -114 71 -83 177l3 1c-8 -87 41 -112 93 -112c53 0 122 21 163 112zM344 68c-6 -15 -6 -19 1 -19c25 0 63 50 94 104l8 -4c-39 -68 -87 -153 -165 -153c-22 0 -26 6 -26 15c0 11 3 30 55 153l53 128l-4 2
c-31 -56 -118 -201 -161 -244c-41 -41 -76 -62 -117 -62c-48 0 -63 27 -63 48c0 17 10 50 32 103l103 241c6 15 6 19 -1 19c-25 0 -63 -50 -98 -111l-8 4c43 75 88 161 166 161c22 0 26 -6 26 -15c0 -7 -2 -17 -22 -64l-82 -208c-21 -51 -38 -92 -38 -108
c0 -15 11 -27 35 -27c26 0 44 17 64 37c29 29 169 237 226 379h66z" />
    <glyph glyph-name="Ucircumflex" unicode="&#xdb;" horiz-adv-x="674" 
d="M657 746l-2 -2l-108 92l-184 -92l-3 2l203 170h8zM195 265c-20 -59 -24 -90 -24 -120c0 -65 36 -126 145 -126c76 0 129 24 181 102c38 57 79 183 99 254l33 116c16 57 33 123 33 139c0 15 -18 19 -48 25l-49 7v6h252v-6l-29 -5c-70 -12 -73 -16 -106 -111l-61 -178
c-12 -35 -26 -74 -56 -155c-73 -195 -184 -229 -284 -229c-124 0 -197 65 -197 161c0 35 7 68 24 119l89 268c18 53 31 92 31 106c0 12 -10 16 -43 19l-39 3v8h291v-8l-52 -3c-51 -3 -60 -8 -70 -32c-6 -13 -17 -50 -33 -96z" />
    <glyph glyph-name="ucircumflex" unicode="&#xfb;" horiz-adv-x="490" 
d="M463 526l-4 -2l-75 121l-173 -121l-5 2l200 220h8zM344 68c-6 -15 -6 -19 1 -19c25 0 63 50 94 104l8 -4c-39 -68 -87 -153 -165 -153c-22 0 -26 6 -26 15c0 11 3 30 55 153l53 128l-4 2c-31 -56 -118 -201 -161 -244c-41 -41 -76 -62 -117 -62c-48 0 -63 27 -63 48
c0 17 10 50 32 103l103 241c6 15 6 19 -1 19c-25 0 -63 -50 -98 -111l-8 4c43 75 88 161 166 161c22 0 26 -6 26 -15c0 -7 -2 -17 -22 -64l-82 -208c-21 -51 -38 -92 -38 -108c0 -15 11 -27 35 -27c26 0 44 17 64 37c29 29 169 237 226 379h66z" />
    <glyph glyph-name="Udieresis" unicode="&#xdc;" horiz-adv-x="674" 
d="M630 746c-25 0 -40 18 -40 37c0 30 25 51 53 51c25 0 40 -18 40 -37c0 -30 -25 -51 -53 -51zM432 746c-27 0 -41 18 -41 38c0 29 24 50 51 50c26 0 40 -18 40 -39c0 -28 -24 -49 -50 -49zM195 265c-20 -59 -24 -90 -24 -120c0 -65 36 -126 145 -126c76 0 129 24 181 102
c38 57 79 183 99 254l33 116c16 57 33 123 33 139c0 15 -18 19 -48 25l-49 7v6h252v-6l-29 -5c-70 -12 -73 -16 -106 -111l-61 -178c-12 -35 -26 -74 -56 -155c-73 -195 -184 -229 -284 -229c-124 0 -197 65 -197 161c0 35 7 68 24 119l89 268c18 53 31 92 31 106
c0 12 -10 16 -43 19l-39 3v8h291v-8l-52 -3c-51 -3 -60 -8 -70 -32c-6 -13 -17 -50 -33 -96z" />
    <glyph glyph-name="udieresis" unicode="&#xfc;" horiz-adv-x="490" 
d="M447 526c-25 0 -40 18 -40 37c0 30 25 51 53 51c25 0 40 -18 40 -37c0 -30 -25 -51 -53 -51zM269 526c-27 0 -41 18 -41 38c0 29 24 50 51 50c26 0 40 -18 40 -39c0 -28 -24 -49 -50 -49zM344 68c-6 -15 -6 -19 1 -19c25 0 63 50 94 104l8 -4c-39 -68 -87 -153 -165 -153
c-22 0 -26 6 -26 15c0 11 3 30 55 153l53 128l-4 2c-31 -56 -118 -201 -161 -244c-41 -41 -76 -62 -117 -62c-48 0 -63 27 -63 48c0 17 10 50 32 103l103 241c6 15 6 19 -1 19c-25 0 -63 -50 -98 -111l-8 4c43 75 88 161 166 161c22 0 26 -6 26 -15c0 -7 -2 -17 -22 -64
l-82 -208c-21 -51 -38 -92 -38 -108c0 -15 11 -27 35 -27c26 0 44 17 64 37c29 29 169 237 226 379h66z" />
    <glyph glyph-name="Ugrave" unicode="&#xd9;" horiz-adv-x="674" 
d="M482 830c29 -31 51 -56 78 -82l-3 -4c-31 19 -62 35 -99 55l-61 32c-48 25 -58 34 -58 55c0 19 14 39 38 39c18 0 33 -17 60 -46zM195 265c-20 -59 -24 -90 -24 -120c0 -65 36 -126 145 -126c76 0 129 24 181 102c38 57 79 183 99 254l33 116c16 57 33 123 33 139
c0 15 -18 19 -48 25l-49 7v6h252v-6l-29 -5c-70 -12 -73 -16 -106 -111l-61 -178c-12 -35 -26 -74 -56 -155c-73 -195 -184 -229 -284 -229c-124 0 -197 65 -197 161c0 35 7 68 24 119l89 268c18 53 31 92 31 106c0 12 -10 16 -43 19l-39 3v8h291v-8l-52 -3
c-51 -3 -60 -8 -70 -32c-6 -13 -17 -50 -33 -96z" />
    <glyph glyph-name="ugrave" unicode="&#xf9;" horiz-adv-x="490" 
d="M368 524c-27 26 -55 52 -86 78l-52 43c-28 24 -47 36 -47 57c0 23 20 44 44 44c21 0 31 -16 50 -53l33 -63c19 -36 41 -71 62 -103zM344 68c-6 -15 -6 -19 1 -19c25 0 63 50 94 104l8 -4c-39 -68 -87 -153 -165 -153c-22 0 -26 6 -26 15c0 11 3 30 55 153l53 128l-4 2
c-31 -56 -118 -201 -161 -244c-41 -41 -76 -62 -117 -62c-48 0 -63 27 -63 48c0 17 10 50 32 103l103 241c6 15 6 19 -1 19c-25 0 -63 -50 -98 -111l-8 4c43 75 88 161 166 161c22 0 26 -6 26 -15c0 -7 -2 -17 -22 -64l-82 -208c-21 -51 -38 -92 -38 -108
c0 -15 11 -27 35 -27c26 0 44 17 64 37c29 29 169 237 226 379h66z" />
    <glyph glyph-name="Uhungarumlaut" unicode="&#x170;" horiz-adv-x="674" 
d="M425 747l-3 4c27 27 54 54 81 85l43 48c23 26 37 42 57 42c19 0 35 -18 35 -36c0 -22 -17 -33 -58 -55l-52 -28c-35 -19 -70 -40 -103 -60zM584 747l-3 4c27 27 54 54 81 85l43 48c23 26 37 42 57 42c19 0 35 -18 35 -36c0 -22 -17 -33 -58 -55l-52 -28
c-35 -19 -70 -40 -103 -60zM195 265c-20 -59 -24 -90 -24 -120c0 -65 36 -126 145 -126c76 0 129 24 181 102c38 57 79 183 99 254l33 116c16 57 33 123 33 139c0 15 -18 19 -48 25l-49 7v6h252v-6l-29 -5c-70 -12 -73 -16 -106 -111l-61 -178c-12 -35 -26 -74 -56 -155
c-73 -195 -184 -229 -284 -229c-124 0 -197 65 -197 161c0 35 7 68 24 119l89 268c18 53 31 92 31 106c0 12 -10 16 -43 19l-39 3v8h291v-8l-52 -3c-51 -3 -60 -8 -70 -32c-6 -13 -17 -50 -33 -96z" />
    <glyph glyph-name="uhungarumlaut" unicode="&#x171;" horiz-adv-x="490" 
d="M356 610c-31 -25 -58 -54 -85 -81l-4 3c20 32 40 64 59 100l32 56c19 36 29 55 52 55c20 0 36 -16 36 -34c0 -20 -17 -37 -47 -62zM495 610c-31 -25 -58 -54 -85 -81l-4 3c20 32 40 64 59 100l32 56c19 36 29 55 52 55c20 0 36 -16 36 -34c0 -20 -17 -37 -47 -62zM344 68
c-6 -15 -6 -19 1 -19c25 0 63 50 94 104l8 -4c-39 -68 -87 -153 -165 -153c-22 0 -26 6 -26 15c0 11 3 30 55 153l53 128l-4 2c-31 -56 -118 -201 -161 -244c-41 -41 -76 -62 -117 -62c-48 0 -63 27 -63 48c0 17 10 50 32 103l103 241c6 15 6 19 -1 19
c-25 0 -63 -50 -98 -111l-8 4c43 75 88 161 166 161c22 0 26 -6 26 -15c0 -7 -2 -17 -22 -64l-82 -208c-21 -51 -38 -92 -38 -108c0 -15 11 -27 35 -27c26 0 44 17 64 37c29 29 169 237 226 379h66z" />
    <glyph glyph-name="Umacron" unicode="&#x16a;" horiz-adv-x="674" 
d="M687 760h-321l13 38h321zM195 265c-20 -59 -24 -90 -24 -120c0 -65 36 -126 145 -126c76 0 129 24 181 102c38 57 79 183 99 254l33 116c16 57 33 123 33 139c0 15 -18 19 -48 25l-49 7v6h252v-6l-29 -5c-70 -12 -73 -16 -106 -111l-61 -178c-12 -35 -26 -74 -56 -155
c-73 -195 -184 -229 -284 -229c-124 0 -197 65 -197 161c0 35 7 68 24 119l89 268c18 53 31 92 31 106c0 12 -10 16 -43 19l-39 3v8h291v-8l-52 -3c-51 -3 -60 -8 -70 -32c-6 -13 -17 -50 -33 -96z" />
    <glyph glyph-name="umacron" unicode="&#x16b;" horiz-adv-x="490" 
d="M494 540h-281l13 38h281zM344 68c-6 -15 -6 -19 1 -19c25 0 63 50 94 104l8 -4c-39 -68 -87 -153 -165 -153c-22 0 -26 6 -26 15c0 11 3 30 55 153l53 128l-4 2c-31 -56 -118 -201 -161 -244c-41 -41 -76 -62 -117 -62c-48 0 -63 27 -63 48c0 17 10 50 32 103l103 241
c6 15 6 19 -1 19c-25 0 -63 -50 -98 -111l-8 4c43 75 88 161 166 161c22 0 26 -6 26 -15c0 -7 -2 -17 -22 -64l-82 -208c-21 -51 -38 -92 -38 -108c0 -15 11 -27 35 -27c26 0 44 17 64 37c29 29 169 237 226 379h66z" />
    <glyph glyph-name="Uogonek" unicode="&#x172;" horiz-adv-x="674" 
d="M228 -248c-40 0 -72 29 -72 66c0 33 25 63 63 95c35 29 68 54 92 72c-10 -1 -20 -1 -30 -1c-124 0 -197 65 -197 161c0 35 7 68 24 119l89 268c18 53 31 92 31 106c0 12 -10 16 -43 19l-39 3v8h291v-8l-52 -3c-51 -3 -60 -8 -70 -32c-6 -13 -17 -50 -33 -96l-87 -264
c-20 -59 -24 -90 -24 -120c0 -65 36 -126 145 -126c76 0 129 24 181 102c38 57 79 183 99 254l33 116c16 57 33 123 33 139c0 15 -18 19 -48 25l-49 7v6h252v-6l-29 -5c-70 -12 -73 -16 -106 -111l-61 -178c-12 -35 -26 -74 -56 -155c-63 -169 -155 -217 -243 -227
c-81 -73 -109 -108 -109 -146s30 -51 55 -51c26 0 41 12 61 29l3 -3c-23 -25 -55 -63 -104 -63z" />
    <glyph glyph-name="uogonek" unicode="&#x173;" horiz-adv-x="490" 
d="M282 -4c-22 0 -26 6 -26 15c0 11 3 30 55 153l53 128l-4 2c-31 -56 -118 -201 -161 -244c-41 -41 -76 -62 -117 -62c-48 0 -63 27 -63 48c0 17 10 50 32 103l103 241c6 15 6 19 -1 19c-25 0 -63 -50 -98 -111l-8 4c43 75 88 161 166 161c22 0 26 -6 26 -15
c0 -7 -2 -17 -22 -64l-82 -208c-21 -51 -38 -92 -38 -108c0 -15 11 -27 35 -27c26 0 44 17 64 37c29 29 169 237 226 379h66l-144 -379c-6 -15 -6 -19 1 -19c25 0 63 50 94 104l8 -4c-7 -12 -29 -52 -101 -157c-51 -74 -62 -109 -62 -140c0 -42 30 -55 55 -55
c26 0 41 12 61 29l3 -3c-23 -25 -55 -63 -104 -63c-40 0 -72 29 -72 70c0 33 8 53 53 102c45 48 64 73 80 94l-2 1c-15 -14 -42 -31 -76 -31z" />
    <glyph glyph-name="Uring" unicode="&#x16e;" horiz-adv-x="674" 
d="M453 824c0 52 42 94 95 94s95 -42 95 -94c0 -53 -42 -95 -95 -95s-95 42 -95 95zM621 824c0 41 -33 74 -73 74s-73 -33 -73 -74c0 -42 33 -75 73 -75s73 33 73 75zM195 265c-20 -59 -24 -90 -24 -120c0 -65 36 -126 145 -126c76 0 129 24 181 102c38 57 79 183 99 254
l33 116c16 57 33 123 33 139c0 15 -18 19 -48 25l-49 7v6h252v-6l-29 -5c-70 -12 -73 -16 -106 -111l-61 -178c-12 -35 -26 -74 -56 -155c-73 -195 -184 -229 -284 -229c-124 0 -197 65 -197 161c0 35 7 68 24 119l89 268c18 53 31 92 31 106c0 12 -10 16 -43 19l-39 3v8
h291v-8l-52 -3c-51 -3 -60 -8 -70 -32c-6 -13 -17 -50 -33 -96z" />
    <glyph glyph-name="uring" unicode="&#x16f;" horiz-adv-x="490" 
d="M285 619c0 52 42 94 95 94s95 -42 95 -94c0 -53 -42 -95 -95 -95s-95 42 -95 95zM453 619c0 41 -33 74 -73 74s-73 -33 -73 -74c0 -42 33 -75 73 -75s73 33 73 75zM344 68c-6 -15 -6 -19 1 -19c25 0 63 50 94 104l8 -4c-39 -68 -87 -153 -165 -153c-22 0 -26 6 -26 15
c0 11 3 30 55 153l53 128l-4 2c-31 -56 -118 -201 -161 -244c-41 -41 -76 -62 -117 -62c-48 0 -63 27 -63 48c0 17 10 50 32 103l103 241c6 15 6 19 -1 19c-25 0 -63 -50 -98 -111l-8 4c43 75 88 161 166 161c22 0 26 -6 26 -15c0 -7 -2 -17 -22 -64l-82 -208
c-21 -51 -38 -92 -38 -108c0 -15 11 -27 35 -27c26 0 44 17 64 37c29 29 169 237 226 379h66z" />
    <glyph glyph-name="Wacute" unicode="&#x1e82;" horiz-adv-x="929" 
d="M539 744l-3 4c32 26 62 54 93 83l53 49c29 27 49 45 67 45c24 0 38 -20 38 -39c0 -21 -15 -31 -65 -54l-69 -32c-38 -18 -78 -37 -114 -56zM531 -16l7 460l-333 -460h-9l-4 604c0 57 -3 64 -54 69l-38 3v8h289v-8l-45 -3c-41 -4 -55 -7 -63 -23c-5 -10 -5 -30 -5 -43
l-3 -477h4l261 359l2 115c1 55 -1 64 -53 69l-38 3v8h289v-8l-45 -3c-41 -4 -55 -7 -63 -22c-5 -11 -6 -31 -6 -44l-14 -477h4l243 359c89 132 100 153 100 163c0 7 -4 13 -40 19l-45 7v6h247v-6l-30 -5c-68 -11 -71 -16 -119 -82l-430 -591h-9z" />
    <glyph glyph-name="wacute" unicode="&#x1e83;" horiz-adv-x="597" 
d="M464 601c-34 -24 -70 -51 -101 -77l-4 3c26 32 54 70 77 104l42 62c26 38 38 53 59 53c22 0 41 -20 41 -42s-16 -35 -54 -61zM318 153c0 -47 28 -114 78 -114c34 0 74 31 114 114c31 65 46 140 46 178c0 17 -2 23 -21 33l-19 10c-15 8 -20 12 -20 27c0 19 14 58 48 58
c19 0 43 -23 43 -66c0 -34 -19 -157 -68 -254c-48 -96 -103 -155 -166 -155c-49 0 -84 45 -87 108c-42 -64 -87 -108 -135 -108c-57 0 -90 47 -90 108c0 16 4 38 17 66c18 35 69 105 125 181l28 38l-1 2h-94c-38 0 -51 -5 -60 -24c-6 -12 -13 -34 -17 -59l-9 -1
c3 29 14 108 44 138c9 9 13 13 83 13h107l1 -5l-86 -134c-62 -97 -72 -135 -72 -171c0 -56 34 -97 70 -97s84 52 120 127c21 44 37 89 49 170c4 28 9 58 13 88c3 26 11 31 24 31c18 0 32 -10 32 -24s-17 -54 -36 -95c-36 -80 -61 -137 -61 -183z" />
    <glyph glyph-name="Wcircumflex" unicode="&#x174;" horiz-adv-x="929" 
d="M731 746l-2 -2l-108 92l-184 -92l-3 2l203 170h8zM531 -16l7 460l-333 -460h-9l-4 604c0 57 -3 64 -54 69l-38 3v8h289v-8l-45 -3c-41 -4 -55 -7 -63 -23c-5 -10 -5 -30 -5 -43l-3 -477h4l261 359l2 115c1 55 -1 64 -53 69l-38 3v8h289v-8l-45 -3c-41 -4 -55 -7 -63 -22
c-5 -11 -6 -31 -6 -44l-14 -477h4l243 359c89 132 100 153 100 163c0 7 -4 13 -40 19l-45 7v6h247v-6l-30 -5c-68 -11 -71 -16 -119 -82l-430 -591h-9z" />
    <glyph glyph-name="wcircumflex" unicode="&#x175;" horiz-adv-x="597" 
d="M507 526l-4 -2l-75 121l-173 -121l-5 2l200 220h8zM318 153c0 -47 28 -114 78 -114c34 0 74 31 114 114c31 65 46 140 46 178c0 17 -2 23 -21 33l-19 10c-15 8 -20 12 -20 27c0 19 14 58 48 58c19 0 43 -23 43 -66c0 -34 -19 -157 -68 -254c-48 -96 -103 -155 -166 -155
c-49 0 -84 45 -87 108c-42 -64 -87 -108 -135 -108c-57 0 -90 47 -90 108c0 16 4 38 17 66c18 35 69 105 125 181l28 38l-1 2h-94c-38 0 -51 -5 -60 -24c-6 -12 -13 -34 -17 -59l-9 -1c3 29 14 108 44 138c9 9 13 13 83 13h107l1 -5l-86 -134c-62 -97 -72 -135 -72 -171
c0 -56 34 -97 70 -97s84 52 120 127c21 44 37 89 49 170c4 28 9 58 13 88c3 26 11 31 24 31c18 0 32 -10 32 -24s-17 -54 -36 -95c-36 -80 -61 -137 -61 -183z" />
    <glyph glyph-name="Wdieresis" unicode="&#x1e84;" horiz-adv-x="929" 
d="M704 746c-25 0 -40 18 -40 37c0 30 25 51 53 51c25 0 40 -18 40 -37c0 -30 -25 -51 -53 -51zM506 746c-27 0 -41 18 -41 38c0 29 24 50 51 50c26 0 40 -18 40 -39c0 -28 -24 -49 -50 -49zM531 -16l7 460l-333 -460h-9l-4 604c0 57 -3 64 -54 69l-38 3v8h289v-8l-45 -3
c-41 -4 -55 -7 -63 -23c-5 -10 -5 -30 -5 -43l-3 -477h4l261 359l2 115c1 55 -1 64 -53 69l-38 3v8h289v-8l-45 -3c-41 -4 -55 -7 -63 -22c-5 -11 -6 -31 -6 -44l-14 -477h4l243 359c89 132 100 153 100 163c0 7 -4 13 -40 19l-45 7v6h247v-6l-30 -5
c-68 -11 -71 -16 -119 -82l-430 -591h-9z" />
    <glyph glyph-name="wdieresis" unicode="&#x1e85;" horiz-adv-x="597" 
d="M491 526c-25 0 -40 18 -40 37c0 30 25 51 53 51c25 0 40 -18 40 -37c0 -30 -25 -51 -53 -51zM313 526c-27 0 -41 18 -41 38c0 29 24 50 51 50c26 0 40 -18 40 -39c0 -28 -24 -49 -50 -49zM318 153c0 -47 28 -114 78 -114c34 0 74 31 114 114c31 65 46 140 46 178
c0 17 -2 23 -21 33l-19 10c-15 8 -20 12 -20 27c0 19 14 58 48 58c19 0 43 -23 43 -66c0 -34 -19 -157 -68 -254c-48 -96 -103 -155 -166 -155c-49 0 -84 45 -87 108c-42 -64 -87 -108 -135 -108c-57 0 -90 47 -90 108c0 16 4 38 17 66c18 35 69 105 125 181l28 38l-1 2h-94
c-38 0 -51 -5 -60 -24c-6 -12 -13 -34 -17 -59l-9 -1c3 29 14 108 44 138c9 9 13 13 83 13h107l1 -5l-86 -134c-62 -97 -72 -135 -72 -171c0 -56 34 -97 70 -97s84 52 120 127c21 44 37 89 49 170c4 28 9 58 13 88c3 26 11 31 24 31c18 0 32 -10 32 -24s-17 -54 -36 -95
c-36 -80 -61 -137 -61 -183z" />
    <glyph glyph-name="Wgrave" unicode="&#x1e80;" horiz-adv-x="929" 
d="M556 830c29 -31 51 -56 78 -82l-3 -4c-31 19 -62 35 -99 55l-61 32c-48 25 -58 34 -58 55c0 19 14 39 38 39c18 0 33 -17 60 -46zM531 -16l7 460l-333 -460h-9l-4 604c0 57 -3 64 -54 69l-38 3v8h289v-8l-45 -3c-41 -4 -55 -7 -63 -23c-5 -10 -5 -30 -5 -43l-3 -477h4
l261 359l2 115c1 55 -1 64 -53 69l-38 3v8h289v-8l-45 -3c-41 -4 -55 -7 -63 -22c-5 -11 -6 -31 -6 -44l-14 -477h4l243 359c89 132 100 153 100 163c0 7 -4 13 -40 19l-45 7v6h247v-6l-30 -5c-68 -11 -71 -16 -119 -82l-430 -591h-9z" />
    <glyph glyph-name="wgrave" unicode="&#x1e81;" horiz-adv-x="597" 
d="M412 524c-27 26 -55 52 -86 78l-52 43c-28 24 -47 36 -47 57c0 23 20 44 44 44c21 0 31 -16 50 -53l33 -63c19 -36 41 -71 62 -103zM318 153c0 -47 28 -114 78 -114c34 0 74 31 114 114c31 65 46 140 46 178c0 17 -2 23 -21 33l-19 10c-15 8 -20 12 -20 27
c0 19 14 58 48 58c19 0 43 -23 43 -66c0 -34 -19 -157 -68 -254c-48 -96 -103 -155 -166 -155c-49 0 -84 45 -87 108c-42 -64 -87 -108 -135 -108c-57 0 -90 47 -90 108c0 16 4 38 17 66c18 35 69 105 125 181l28 38l-1 2h-94c-38 0 -51 -5 -60 -24c-6 -12 -13 -34 -17 -59
l-9 -1c3 29 14 108 44 138c9 9 13 13 83 13h107l1 -5l-86 -134c-62 -97 -72 -135 -72 -171c0 -56 34 -97 70 -97s84 52 120 127c21 44 37 89 49 170c4 28 9 58 13 88c3 26 11 31 24 31c18 0 32 -10 32 -24s-17 -54 -36 -95c-36 -80 -61 -137 -61 -183z" />
    <glyph glyph-name="Yacute" unicode="&#xdd;" horiz-adv-x="596" 
d="M412 744l-3 4c32 26 62 54 93 83l53 49c29 27 49 45 67 45c24 0 38 -20 38 -39c0 -21 -15 -31 -65 -54l-69 -32c-38 -18 -78 -37 -114 -56zM307 136c-18 -53 -31 -92 -31 -106c0 -12 10 -16 43 -19l39 -3v-8h-264v8l37 3c41 4 50 8 60 32c6 13 17 50 33 96l40 117
c18 53 19 59 10 95l-43 178c-14 57 -21 87 -30 104s-18 20 -55 24l-39 3v8h267v-8l-39 -3c-32 -3 -42 -9 -42 -21c0 -14 9 -49 22 -104l45 -198h4l97 114c112 136 134 168 134 182c0 9 -5 16 -41 24l-42 8v6h251v-6l-28 -5c-61 -14 -71 -20 -122 -75l-246 -269z" />
    <glyph glyph-name="yacute" unicode="&#xfd;" horiz-adv-x="433" 
d="M326 601c-34 -24 -70 -51 -101 -77l-4 3c26 32 54 70 77 104l42 62c26 38 38 53 59 53c22 0 41 -20 41 -42s-16 -35 -54 -61zM252 63c0 -12 0 -24 -1 -44l5 -1c77 120 104 207 104 278c0 65 -14 110 -14 134c0 26 26 34 43 34c16 0 25 -13 25 -42
c1 -183 -126 -414 -239 -531c-88 -88 -173 -125 -240 -125c-45 0 -63 22 -63 46c0 23 19 41 38 41c11 0 15 -5 26 -19l20 -26c12 -16 22 -20 29 -20c29 0 134 47 173 129c24 49 25 82 25 132c0 124 -26 250 -58 317c-16 32 -29 46 -39 46c-12 0 -19 -33 -19 -83
c0 -19 2 -35 4 -61l-9 -2c-4 23 -7 59 -7 71c0 32 2 63 14 86c14 26 44 44 61 44c16 0 37 -23 56 -61c37 -77 66 -197 66 -343z" />
    <glyph glyph-name="Ycircumflex" unicode="&#x176;" horiz-adv-x="596" 
d="M604 746l-2 -2l-108 92l-184 -92l-3 2l203 170h8zM307 136c-18 -53 -31 -92 -31 -106c0 -12 10 -16 43 -19l39 -3v-8h-264v8l37 3c41 4 50 8 60 32c6 13 17 50 33 96l40 117c18 53 19 59 10 95l-43 178c-14 57 -21 87 -30 104s-18 20 -55 24l-39 3v8h267v-8l-39 -3
c-32 -3 -42 -9 -42 -21c0 -14 9 -49 22 -104l45 -198h4l97 114c112 136 134 168 134 182c0 9 -5 16 -41 24l-42 8v6h251v-6l-28 -5c-61 -14 -71 -20 -122 -75l-246 -269z" />
    <glyph glyph-name="ycircumflex" unicode="&#x177;" horiz-adv-x="433" 
d="M369 526l-4 -2l-75 121l-173 -121l-5 2l200 220h8zM252 63c0 -12 0 -24 -1 -44l5 -1c77 120 104 207 104 278c0 65 -14 110 -14 134c0 26 26 34 43 34c16 0 25 -13 25 -42c1 -183 -126 -414 -239 -531c-88 -88 -173 -125 -240 -125c-45 0 -63 22 -63 46c0 23 19 41 38 41
c11 0 15 -5 26 -19l20 -26c12 -16 22 -20 29 -20c29 0 134 47 173 129c24 49 25 82 25 132c0 124 -26 250 -58 317c-16 32 -29 46 -39 46c-12 0 -19 -33 -19 -83c0 -19 2 -35 4 -61l-9 -2c-4 23 -7 59 -7 71c0 32 2 63 14 86c14 26 44 44 61 44c16 0 37 -23 56 -61
c37 -77 66 -197 66 -343z" />
    <glyph glyph-name="Ydieresis" unicode="&#x178;" horiz-adv-x="596" 
d="M577 746c-25 0 -40 18 -40 37c0 30 25 51 53 51c25 0 40 -18 40 -37c0 -30 -25 -51 -53 -51zM379 746c-27 0 -41 18 -41 38c0 29 24 50 51 50c26 0 40 -18 40 -39c0 -28 -24 -49 -50 -49zM307 136c-18 -53 -31 -92 -31 -106c0 -12 10 -16 43 -19l39 -3v-8h-264v8l37 3
c41 4 50 8 60 32c6 13 17 50 33 96l40 117c18 53 19 59 10 95l-43 178c-14 57 -21 87 -30 104s-18 20 -55 24l-39 3v8h267v-8l-39 -3c-32 -3 -42 -9 -42 -21c0 -14 9 -49 22 -104l45 -198h4l97 114c112 136 134 168 134 182c0 9 -5 16 -41 24l-42 8v6h251v-6l-28 -5
c-61 -14 -71 -20 -122 -75l-246 -269z" />
    <glyph glyph-name="ydieresis" unicode="&#xff;" horiz-adv-x="433" 
d="M353 526c-25 0 -40 18 -40 37c0 30 25 51 53 51c25 0 40 -18 40 -37c0 -30 -25 -51 -53 -51zM175 526c-27 0 -41 18 -41 38c0 29 24 50 51 50c26 0 40 -18 40 -39c0 -28 -24 -49 -50 -49zM252 63c0 -12 0 -24 -1 -44l5 -1c77 120 104 207 104 278c0 65 -14 110 -14 134
c0 26 26 34 43 34c16 0 25 -13 25 -42c1 -183 -126 -414 -239 -531c-88 -88 -173 -125 -240 -125c-45 0 -63 22 -63 46c0 23 19 41 38 41c11 0 15 -5 26 -19l20 -26c12 -16 22 -20 29 -20c29 0 134 47 173 129c24 49 25 82 25 132c0 124 -26 250 -58 317
c-16 32 -29 46 -39 46c-12 0 -19 -33 -19 -83c0 -19 2 -35 4 -61l-9 -2c-4 23 -7 59 -7 71c0 32 2 63 14 86c14 26 44 44 61 44c16 0 37 -23 56 -61c37 -77 66 -197 66 -343z" />
    <glyph glyph-name="Ygrave" unicode="&#x1ef2;" horiz-adv-x="596" 
d="M430 830c29 -31 51 -56 78 -82l-3 -4c-31 19 -62 35 -99 55l-61 32c-48 25 -58 34 -58 55c0 19 14 39 38 39c18 0 33 -17 60 -46zM307 136c-18 -53 -31 -92 -31 -106c0 -12 10 -16 43 -19l39 -3v-8h-264v8l37 3c41 4 50 8 60 32c6 13 17 50 33 96l40 117
c18 53 19 59 10 95l-43 178c-14 57 -21 87 -30 104s-18 20 -55 24l-39 3v8h267v-8l-39 -3c-32 -3 -42 -9 -42 -21c0 -14 9 -49 22 -104l45 -198h4l97 114c112 136 134 168 134 182c0 9 -5 16 -41 24l-42 8v6h251v-6l-28 -5c-61 -14 -71 -20 -122 -75l-246 -269z" />
    <glyph glyph-name="ygrave" unicode="&#x1ef3;" horiz-adv-x="433" 
d="M274 524c-27 26 -55 52 -86 78l-52 43c-28 24 -47 36 -47 57c0 23 20 44 44 44c21 0 31 -16 50 -53l33 -63c19 -36 41 -71 62 -103zM252 63c0 -12 0 -24 -1 -44l5 -1c77 120 104 207 104 278c0 65 -14 110 -14 134c0 26 26 34 43 34c16 0 25 -13 25 -42
c1 -183 -126 -414 -239 -531c-88 -88 -173 -125 -240 -125c-45 0 -63 22 -63 46c0 23 19 41 38 41c11 0 15 -5 26 -19l20 -26c12 -16 22 -20 29 -20c29 0 134 47 173 129c24 49 25 82 25 132c0 124 -26 250 -58 317c-16 32 -29 46 -39 46c-12 0 -19 -33 -19 -83
c0 -19 2 -35 4 -61l-9 -2c-4 23 -7 59 -7 71c0 32 2 63 14 86c14 26 44 44 61 44c16 0 37 -23 56 -61c37 -77 66 -197 66 -343z" />
    <glyph glyph-name="Zacute" unicode="&#x179;" horiz-adv-x="599" 
d="M386 744l-3 4c32 26 62 54 93 83l53 49c29 27 49 45 67 45c24 0 38 -20 38 -39c0 -21 -15 -31 -65 -54l-69 -32c-38 -18 -78 -37 -114 -56zM245 599c-24 -27 -63 -76 -92 -116l-7 2l86 221h8l-1 -19c0 -19 4 -23 27 -23h425l1 -6l-597 -642l1 -3l177 5
c87 2 144 11 184 49c35 33 70 77 97 106l6 -4l-76 -169h-504l-1 6l600 642l-1 3l-178 -1c-121 -1 -121 -12 -155 -51z" />
    <glyph glyph-name="zacute" unicode="&#x17a;" horiz-adv-x="411" 
d="M355 601c-34 -24 -70 -51 -101 -77l-4 3c26 32 54 70 77 104l42 62c26 38 38 53 59 53c22 0 41 -20 41 -42s-16 -35 -54 -61zM127 413c-18 0 -29 -11 -29 -16c0 -3 4 -10 7 -15l18 -30c6 -10 7 -13 7 -16c0 -12 -23 -29 -45 -29c-23 0 -32 14 -32 30c0 40 71 122 133 122
c19 0 33 -4 55 -12c28 -11 117 -42 150 -42c4 0 8 1 10 3l42 42l15 -7v-5l-389 -342l1 -4c71 0 163 -59 237 -59c22 0 27 11 27 14c0 4 -3 9 -8 15l-26 29c-9 10 -11 17 -11 21c0 11 20 24 41 24c27 0 39 -17 39 -36c0 -33 -31 -74 -53 -95c-19 -19 -33 -27 -55 -27
c-79 0 -179 62 -252 62c-8 0 -10 -4 -11 -16v-13c0 -8 -4 -11 -10 -11c-8 0 -16 5 -16 12c0 15 28 42 63 72l298 263l-1 4c-83 18 -169 62 -205 62z" />
    <glyph glyph-name="zacute.alt" horiz-adv-x="411" 
d="M354 601c-34 -24 -70 -51 -101 -77l-4 3c26 32 54 70 77 104l42 62c26 38 38 53 59 53c22 0 41 -20 41 -42s-16 -35 -54 -61zM67 89c48 -6 79 -22 119 -42c63 -32 115 -57 154 -57c12 0 22 4 22 11c0 3 -1 6 -6 16l-18 35c-5 10 -6 14 -6 19c0 13 19 25 40 25
c24 0 42 -13 42 -36c0 -19 -15 -54 -76 -93c-28 -18 -45 -25 -64 -25c-65 0 -187 98 -265 98c-8 0 -10 -4 -11 -16v-13c0 -8 -4 -11 -10 -11c-8 0 -16 5 -16 12c0 15 28 42 63 72l298 263l-1 4c-83 18 -169 62 -205 62c-18 0 -29 -11 -29 -16c0 -3 4 -10 7 -15l18 -30
c6 -10 7 -13 7 -16c0 -12 -23 -29 -45 -29c-23 0 -32 14 -32 30c0 40 71 122 133 122c19 0 33 -4 55 -12c28 -11 117 -42 150 -42c4 0 8 1 10 3l42 42l15 -7v-5l-392 -345z" />
    <glyph glyph-name="Zcaron" unicode="&#x17d;" horiz-adv-x="599" 
d="M353 914l2 2l108 -92l184 92l3 -2l-203 -170h-8zM245 599c-24 -27 -63 -76 -92 -116l-7 2l86 221h8l-1 -19c0 -19 4 -23 27 -23h425l1 -6l-597 -642l1 -3l177 5c87 2 144 11 184 49c35 33 70 77 97 106l6 -4l-76 -169h-504l-1 6l600 642l-1 3l-178 -1
c-121 -1 -121 -12 -155 -51z" />
    <glyph glyph-name="zcaron" unicode="&#x17e;" horiz-adv-x="411" 
d="M230 744l4 2l75 -121l173 121l5 -2l-200 -220h-8zM127 413c-18 0 -29 -11 -29 -16c0 -3 4 -10 7 -15l18 -30c6 -10 7 -13 7 -16c0 -12 -23 -29 -45 -29c-23 0 -32 14 -32 30c0 40 71 122 133 122c19 0 33 -4 55 -12c28 -11 117 -42 150 -42c4 0 8 1 10 3l42 42l15 -7v-5
l-389 -342l1 -4c71 0 163 -59 237 -59c22 0 27 11 27 14c0 4 -3 9 -8 15l-26 29c-9 10 -11 17 -11 21c0 11 20 24 41 24c27 0 39 -17 39 -36c0 -33 -31 -74 -53 -95c-19 -19 -33 -27 -55 -27c-79 0 -179 62 -252 62c-8 0 -10 -4 -11 -16v-13c0 -8 -4 -11 -10 -11
c-8 0 -16 5 -16 12c0 15 28 42 63 72l298 263l-1 4c-83 18 -169 62 -205 62z" />
    <glyph glyph-name="zcaron.alt" horiz-adv-x="411" 
d="M230 744l4 2l75 -121l173 121l5 -2l-200 -220h-8zM67 89c48 -6 79 -22 119 -42c63 -32 115 -57 154 -57c12 0 22 4 22 11c0 3 -1 6 -6 16l-18 35c-5 10 -6 14 -6 19c0 13 19 25 40 25c24 0 42 -13 42 -36c0 -19 -15 -54 -76 -93c-28 -18 -45 -25 -64 -25
c-65 0 -187 98 -265 98c-8 0 -10 -4 -11 -16v-13c0 -8 -4 -11 -10 -11c-8 0 -16 5 -16 12c0 15 28 42 63 72l298 263l-1 4c-83 18 -169 62 -205 62c-18 0 -29 -11 -29 -16c0 -3 4 -10 7 -15l18 -30c6 -10 7 -13 7 -16c0 -12 -23 -29 -45 -29c-23 0 -32 14 -32 30
c0 40 71 122 133 122c19 0 33 -4 55 -12c28 -11 117 -42 150 -42c4 0 8 1 10 3l42 42l15 -7v-5l-392 -345z" />
    <glyph glyph-name="Zdotaccent" unicode="&#x17b;" horiz-adv-x="599" 
d="M454 746c-28 0 -42 18 -42 39c0 29 25 51 52 51s41 -18 41 -40c0 -28 -25 -50 -51 -50zM245 599c-24 -27 -63 -76 -92 -116l-7 2l86 221h8l-1 -19c0 -19 4 -23 27 -23h425l1 -6l-597 -642l1 -3l177 5c87 2 144 11 184 49c35 33 70 77 97 106l6 -4l-76 -169h-504l-1 6
l600 642l-1 3l-178 -1c-121 -1 -121 -12 -155 -51z" />
    <glyph glyph-name="zdotaccent" unicode="&#x17c;" horiz-adv-x="411" 
d="M295 526c-28 0 -42 18 -42 39c0 29 25 51 52 51s41 -18 41 -40c0 -28 -25 -50 -51 -50zM127 413c-18 0 -29 -11 -29 -16c0 -3 4 -10 7 -15l18 -30c6 -10 7 -13 7 -16c0 -12 -23 -29 -45 -29c-23 0 -32 14 -32 30c0 40 71 122 133 122c19 0 33 -4 55 -12
c28 -11 117 -42 150 -42c4 0 8 1 10 3l42 42l15 -7v-5l-389 -342l1 -4c71 0 163 -59 237 -59c22 0 27 11 27 14c0 4 -3 9 -8 15l-26 29c-9 10 -11 17 -11 21c0 11 20 24 41 24c27 0 39 -17 39 -36c0 -33 -31 -74 -53 -95c-19 -19 -33 -27 -55 -27c-79 0 -179 62 -252 62
c-8 0 -10 -4 -11 -16v-13c0 -8 -4 -11 -10 -11c-8 0 -16 5 -16 12c0 15 28 42 63 72l298 263l-1 4c-83 18 -169 62 -205 62z" />
    <glyph glyph-name="zdotaccent.alt" horiz-adv-x="411" 
d="M294 526c-28 0 -42 18 -42 39c0 29 25 51 52 51s41 -18 41 -40c0 -28 -25 -50 -51 -50zM67 89c48 -6 79 -22 119 -42c63 -32 115 -57 154 -57c12 0 22 4 22 11c0 3 -1 6 -6 16l-18 35c-5 10 -6 14 -6 19c0 13 19 25 40 25c24 0 42 -13 42 -36c0 -19 -15 -54 -76 -93
c-28 -18 -45 -25 -64 -25c-65 0 -187 98 -265 98c-8 0 -10 -4 -11 -16v-13c0 -8 -4 -11 -10 -11c-8 0 -16 5 -16 12c0 15 28 42 63 72l298 263l-1 4c-83 18 -169 62 -205 62c-18 0 -29 -11 -29 -16c0 -3 4 -10 7 -15l18 -30c6 -10 7 -13 7 -16c0 -12 -23 -29 -45 -29
c-23 0 -32 14 -32 30c0 40 71 122 133 122c19 0 33 -4 55 -12c28 -11 117 -42 150 -42c4 0 8 1 10 3l42 42l15 -7v-5l-392 -345z" />
    <glyph glyph-name="schwa" unicode="&#x259;" horiz-adv-x="356" 
d="M62 -8c-53 0 -78 27 -78 66c0 41 24 85 101 123c38 19 92 38 168 55c12 41 19 82 19 121c0 62 -21 82 -53 82c-66 0 -127 -106 -138 -126l-11 6c8 15 80 148 182 148c69 0 98 -53 98 -120c0 -166 -144 -355 -288 -355zM88 6c54 0 125 103 161 217
c-72 -16 -122 -35 -152 -65c-35 -35 -42 -77 -42 -101c0 -25 7 -51 33 -51z" />
    <glyph glyph-name="germandbls" unicode="&#xdf;" horiz-adv-x="492" 
d="M-78 -234c-42 0 -59 26 -59 48c0 25 21 43 40 43c9 0 14 -3 25 -17l29 -34c8 -9 13 -12 18 -12c11 0 27 20 60 159l69 293c18 75 31 130 42 170h-69l11 28h66c15 54 24 78 33 99c31 76 84 163 187 163c81 0 164 -67 164 -145c0 -55 -38 -89 -111 -143
c-57 -42 -76 -55 -76 -70c0 -12 8 -30 41 -83s53 -92 53 -130c0 -78 -63 -151 -164 -151c-83 0 -89 42 -89 55c0 32 32 46 52 46c18 0 24 -9 27 -29l7 -38c3 -17 4 -18 13 -18c33 0 96 21 96 88c0 44 -27 88 -44 114c-40 61 -51 89 -51 108c0 47 67 71 120 116
c43 36 59 73 59 101c0 65 -45 165 -108 165c-43 0 -88 -30 -161 -329l-70 -288c-22 -91 -31 -116 -55 -163c-25 -51 -48 -84 -77 -113c-20 -20 -45 -33 -78 -33z" />
    <glyph glyph-name="f_h.alt" horiz-adv-x="732" 
d="M248 553l-26 -109h192l57 159c-2 -1 -4 -1 -6 -1c-10 0 -18 1 -35 16l-63 57c-14 13 -21 17 -32 17c-24 0 -61 -30 -87 -139zM-78 -234c-42 0 -59 26 -59 48c0 25 21 43 40 43c9 0 14 -3 25 -17l29 -34c8 -9 13 -12 18 -12c11 0 27 20 60 159l98 416c4 17 8 33 11 47h-67
l11 28h63c16 65 28 105 46 141c29 58 76 121 179 121c44 0 88 -17 106 -42l92 47l3 -2l-195 -539l4 -2c25 41 112 189 163 240c33 33 66 51 107 51c48 0 63 -27 63 -48c0 -17 -10 -50 -32 -103l-99 -243c-6 -14 -6 -19 1 -19c25 0 63 50 94 101l8 -4
c-39 -65 -94 -151 -172 -151c-22 0 -26 6 -26 15c0 7 2 17 22 64l88 210c21 51 38 92 38 108c0 15 -11 27 -35 27c-26 0 -42 -14 -55 -27c-27 -27 -125 -166 -179 -274c-20 -40 -32 -69 -50 -115h-65l147 416h-189l-95 -390c-21 -88 -70 -177 -120 -227
c-20 -20 -45 -33 -78 -33z" />
    <glyph glyph-name="f_f_h.alt" horiz-adv-x="978" 
d="M494 553l-27 -109h193l57 159c-2 -1 -4 -1 -6 -1c-10 0 -18 1 -35 16l-63 57c-14 13 -21 17 -32 17c-24 0 -60 -30 -87 -139zM243 532l-21 -88h175c16 65 28 105 46 141c-3 -1 -6 -2 -9 -2c-16 0 -27 13 -40 26l-43 45c-13 13 -16 17 -26 17c-24 0 -56 -30 -82 -139z
M-78 -234c-42 0 -59 26 -59 48c0 25 21 43 40 43c9 0 14 -3 25 -17l29 -34c8 -9 13 -12 18 -12c11 0 27 20 60 159l93 395c6 25 11 48 16 68h-67l11 28h63c14 53 25 88 41 120c29 58 76 121 161 121c57 0 115 -27 115 -58c30 43 76 79 154 79c44 0 88 -17 106 -42l92 47
l3 -2l-195 -539l4 -2c25 41 112 189 163 240c33 33 66 51 107 51c48 0 63 -27 63 -48c0 -17 -10 -50 -32 -103l-99 -243c-6 -14 -6 -19 1 -19c25 0 63 50 94 101l8 -4c-39 -65 -94 -151 -172 -151c-22 0 -26 6 -26 15c0 7 2 17 22 64l88 210c21 51 38 92 38 108
c0 15 -11 27 -35 27c-26 0 -42 -14 -55 -27c-27 -27 -125 -166 -179 -274c-20 -40 -32 -69 -50 -115h-65l147 416h-189l-89 -363c-21 -88 -70 -177 -120 -227c-20 -20 -45 -33 -78 -33c-42 0 -59 26 -59 48c0 25 21 43 40 43c9 0 14 -3 25 -17l29 -34c8 -9 13 -12 18 -12
c11 0 27 20 60 159l92 389c4 17 8 33 11 47h-175l-95 -390c-21 -88 -70 -177 -120 -227c-20 -20 -45 -33 -78 -33z" />
    <glyph glyph-name="zero" unicode="0" horiz-adv-x="475" 
d="M449 288c0 -131 -102 -304 -268 -304c-88 0 -154 64 -154 175c0 131 102 304 268 304c88 0 154 -64 154 -175zM99 112c0 -75 25 -115 79 -115c116 0 199 204 199 338c0 75 -25 115 -79 115c-116 0 -199 -204 -199 -338z" />
    <glyph glyph-name="one" unicode="1" horiz-adv-x="329" 
d="M231 0h-269v8l48 3c40 2 47 8 56 31c5 13 17 49 33 95l61 177c18 52 31 94 31 108c0 11 -14 13 -57 16l-34 2v8h269v-8l-48 -3c-40 -2 -47 -8 -56 -31c-5 -13 -17 -49 -33 -95l-61 -177c-18 -52 -31 -94 -31 -108c0 -11 14 -13 57 -16l34 -2v-8z" />
    <glyph glyph-name="two" unicode="2" horiz-adv-x="381" 
d="M79 347l-5 4c43 62 103 112 171 112c54 0 114 -33 114 -111c0 -45 -22 -85 -67 -126c-43 -38 -174 -126 -223 -159v-3h183c32 0 38 1 54 23l14 19l5 -2l-55 -104h-304v7c110 73 188 138 232 177c62 56 87 99 87 148c0 51 -37 81 -83 81c-61 0 -104 -44 -123 -66z" />
    <glyph glyph-name="three" unicode="3" horiz-adv-x="358" 
d="M-96 -177l3 8c15 -5 53 -11 82 -11c140 0 208 97 208 194c0 76 -51 126 -114 141v7c5 1 24 3 55 16c56 24 121 72 121 152c0 64 -45 90 -89 90c-48 0 -79 -25 -106 -48l-4 4c24 26 83 87 153 87c73 0 122 -46 122 -114c0 -89 -109 -139 -160 -165c25 -14 95 -60 95 -149
c0 -128 -120 -227 -269 -227c-40 0 -77 8 -97 15z" />
    <glyph glyph-name="four" unicode="4" horiz-adv-x="428" 
d="M118 -182l76 224h-242l-2 6l429 409h20l-121 -364h104l-19 -51h-102l-75 -224h-68zM23 93h188l89 263l-3 1l-274 -261v-3z" />
    <glyph glyph-name="five" unicode="5" horiz-adv-x="372" 
d="M168 448h194c14 0 21 5 31 25l6 12l9 -2l-41 -96c-7 -15 -11 -18 -29 -18h-189l-55 -116c108 -41 181 -98 181 -196c0 -135 -123 -246 -277 -246c-24 0 -51 4 -69 9l2 8c21 -4 39 -6 60 -6c115 0 220 65 220 195c0 82 -49 133 -165 171l-1 4z" />
    <glyph glyph-name="six" unicode="6" horiz-adv-x="457" 
d="M194 -11c-91 0 -150 73 -150 191c0 247 197 412 488 464l1 -8c-155 -37 -287 -126 -360 -260c12 3 41 8 76 8c75 0 160 -38 160 -157c0 -123 -105 -238 -215 -238zM185 1c74 0 144 111 144 228c0 101 -59 141 -128 141c-16 0 -27 -1 -33 -3c-36 -70 -57 -152 -57 -246
c0 -82 27 -120 74 -120z" />
    <glyph glyph-name="seven" unicode="7" horiz-adv-x="382" 
d="M149 50c-61 -88 -68 -108 -68 -119c0 -8 4 -15 17 -29l23 -26c10 -11 15 -16 15 -24c0 -20 -26 -40 -52 -40c-34 0 -54 26 -54 57c0 34 18 62 42 100c40 62 135 193 201 281l94 125h-206c-40 0 -46 -1 -59 -16c-11 -10 -26 -32 -36 -48l-12 -20l-6 4c34 73 54 124 81 193
l7 -1l-7 -26c-3 -9 -3 -13 6 -13h302l2 -4c-56 -76 -202 -267 -290 -394z" />
    <glyph glyph-name="eight" unicode="8" horiz-adv-x="452" 
d="M205 -16c-84 0 -174 56 -174 152c0 123 125 166 188 185c-52 63 -80 118 -80 166c0 111 97 165 177 165c99 0 158 -67 158 -139c0 -94 -89 -153 -172 -178c59 -71 94 -124 94 -176c0 -115 -110 -175 -191 -175zM290 350l7 -8c71 30 117 110 117 187c0 57 -29 108 -98 108
c-77 0 -108 -61 -108 -113c0 -44 16 -95 82 -174zM210 -1c66 0 117 52 117 124c0 46 -16 92 -96 184l-6 7c-52 -20 -129 -68 -129 -180c0 -65 35 -135 114 -135z" />
    <glyph glyph-name="nine" unicode="9" horiz-adv-x="457" 
d="M-74 -196l-1 8c155 37 287 126 360 260c-12 -3 -41 -8 -76 -8c-75 0 -160 38 -160 157c0 123 105 238 215 238c91 0 150 -73 150 -191c0 -247 -197 -412 -488 -464zM257 78c16 0 27 1 33 3c36 70 57 152 57 246c0 82 -27 120 -74 120c-74 0 -144 -111 -144 -228
c0 -101 59 -141 128 -141z" />
    <glyph glyph-name="zero.lin" horiz-adv-x="577" 
d="M583 458c0 -202 -150 -474 -349 -474c-77 0 -166 56 -166 226c0 202 150 474 349 474c77 0 166 -56 166 -226zM145 137c0 -115 47 -136 88 -136c137 0 273 307 273 531c0 114 -48 135 -88 135c-137 0 -273 -307 -273 -530z" />
    <glyph glyph-name="one.lin" horiz-adv-x="403" 
d="M144 139l118 356c26 79 32 101 24 109c-6 6 -26 7 -73 3l-64 -6v6c122 30 212 59 264 77l1 -4c-11 -19 -21 -36 -57 -145l-133 -399c-18 -53 -31 -92 -31 -106c0 -12 14 -18 47 -19l75 -3v-8h-340v8l72 3c41 2 54 8 64 32c6 13 18 50 33 96z" />
    <glyph glyph-name="two.lin" horiz-adv-x="477" 
d="M74 81l1 -5l253 2c45 0 51 2 73 33l25 35l7 -3l-73 -143h-396v7c163 131 246 206 285 245c96 94 166 164 166 258c0 74 -48 113 -118 113c-89 0 -152 -68 -175 -90l-6 4c59 75 124 147 230 147c74 0 160 -44 160 -148c0 -61 -34 -116 -95 -179
c-59 -60 -155 -139 -337 -276z" />
    <glyph glyph-name="three.lin" horiz-adv-x="492" 
d="M438 198c0 -106 -98 -214 -264 -214c-84 0 -161 31 -161 91c0 34 30 60 62 60c19 0 27 -8 31 -32l13 -77c4 -23 9 -29 51 -29c102 0 187 75 187 177c0 103 -87 158 -188 171v5c16 1 44 6 66 12c97 26 192 68 192 173c0 61 -43 103 -115 103c-69 0 -117 -36 -151 -64l-5 6
c27 27 99 104 204 104c99 0 151 -58 151 -130c0 -105 -96 -145 -212 -184c36 -12 139 -55 139 -172z" />
    <glyph glyph-name="four.lin" horiz-adv-x="554" 
d="M84 240h239l113 331l-3 1l-350 -329zM420 8v-8h-263v8l39 3c43 3 50 8 60 32c6 13 17 50 33 96l18 52h-302l-1 6l520 483h27l-149 -440h147l-28 -49h-135l-19 -55c-18 -53 -31 -92 -31 -106c0 -12 11 -17 43 -19z" />
    <glyph glyph-name="five.lin" horiz-adv-x="495" 
d="M190 -16c-88 0 -159 39 -159 89c0 36 32 60 64 60c19 0 27 -7 31 -33l14 -80c3 -19 15 -22 48 -22c97 0 185 59 185 171c0 102 -92 147 -252 171l-5 5l136 323h253c14 0 19 6 23 15l15 34l8 -4l-43 -110c-6 -16 -15 -20 -35 -20h-238l-70 -164c186 -30 277 -94 277 -210
c0 -131 -109 -225 -252 -225z" />
    <glyph glyph-name="six.lin" horiz-adv-x="545" 
d="M262 -16c-97 0 -190 74 -190 238c0 235 210 457 529 458l1 -8c-196 -11 -329 -135 -397 -282c33 15 81 30 130 30c109 0 171 -65 171 -165c0 -145 -120 -271 -244 -271zM261 -3c94 0 157 122 157 241c0 101 -56 148 -146 148c-28 0 -54 -4 -73 -10
c-31 -72 -47 -150 -47 -222c0 -125 54 -157 109 -157z" />
    <glyph glyph-name="seven.lin" horiz-adv-x="469" 
d="M503 586h-274c-43 0 -52 -1 -64 -16c-8 -11 -26 -36 -36 -51l-10 -15l-7 5c34 68 57 130 82 194l9 -1l-5 -20c-3 -9 -2 -14 8 -14h357l2 -4l-405 -673l-97 6l-2 4z" />
    <glyph glyph-name="eight.lin" horiz-adv-x="530" 
d="M256 -16c-106 0 -205 59 -205 162c0 110 92 159 209 193c-57 63 -92 118 -92 176c0 112 113 169 204 169c108 0 181 -61 181 -143c0 -100 -102 -158 -195 -188c69 -74 113 -127 113 -190c0 -122 -131 -179 -215 -179zM341 371c3 -4 7 -7 10 -10c94 36 134 112 134 189
c0 56 -28 118 -111 118c-90 0 -128 -59 -128 -117c0 -45 18 -98 95 -180zM255 0c75 0 138 52 138 137c0 44 -23 86 -114 182c-4 4 -7 8 -11 11c-98 -31 -146 -99 -146 -192c0 -62 29 -138 133 -138z" />
    <glyph glyph-name="nine.lin" horiz-adv-x="545" 
d="M20 -11l-1 8c196 11 329 135 397 282c-33 -15 -81 -30 -130 -30c-109 0 -171 65 -171 165c0 145 120 271 244 271c97 0 190 -74 190 -238c0 -235 -210 -457 -529 -458zM349 283c28 0 54 4 73 10c31 72 47 150 47 222c0 125 -54 157 -109 157c-94 0 -157 -122 -157 -241
c0 -101 56 -148 146 -148z" />
    <glyph glyph-name="period" unicode="." horiz-adv-x="212" 
d="M43 99c33 0 56 -24 56 -53c0 -32 -23 -54 -54 -54s-54 21 -54 53c0 29 23 54 52 54z" />
    <glyph glyph-name="comma" unicode="," horiz-adv-x="208" 
d="M-88 -143c92 28 145 83 145 127c0 12 -3 12 -19 15l-16 3c-28 5 -36 19 -36 34c0 30 22 57 58 57c29 0 63 -20 63 -73c0 -80 -73 -144 -193 -172z" />
    <glyph glyph-name="colon" unicode=":" horiz-adv-x="233" 
d="M173 452c33 0 56 -24 56 -53c0 -32 -23 -54 -54 -54s-54 21 -54 53c0 29 23 54 52 54zM53 99c33 0 56 -24 56 -53c0 -32 -23 -54 -54 -54s-54 21 -54 53c0 29 23 54 52 54z" />
    <glyph glyph-name="colon.alt" horiz-adv-x="260" 
d="M218 557c33 0 56 -24 56 -53c0 -32 -23 -54 -54 -54s-54 21 -54 53c0 29 23 54 52 54zM103 218c33 0 56 -24 56 -53c0 -32 -23 -54 -54 -54s-54 21 -54 53c0 29 23 54 52 54z" />
    <glyph glyph-name="semicolon" unicode=";" horiz-adv-x="232" 
d="M171 452c33 0 56 -24 56 -53c0 -32 -23 -54 -54 -54s-54 21 -54 53c0 29 23 54 52 54zM-78 -143c92 28 145 83 145 127c0 12 -3 12 -19 15l-16 3c-28 5 -36 19 -36 34c0 30 22 57 58 57c29 0 63 -20 63 -73c0 -80 -73 -144 -193 -172z" />
    <glyph glyph-name="ellipsis" unicode="&#x2026;" horiz-adv-x="636" 
d="M43 99c33 0 56 -24 56 -53c0 -32 -23 -54 -54 -54s-54 21 -54 53c0 29 23 54 52 54zM255 99c33 0 56 -24 56 -53c0 -32 -23 -54 -54 -54s-54 21 -54 53c0 29 23 54 52 54zM523 46c0 -32 -23 -54 -54 -54s-54 21 -54 53c0 29 23 54 52 54c33 0 56 -24 56 -53z" />
    <glyph glyph-name="periodcentered" unicode="&#xb7;" horiz-adv-x="212" 
d="M109 294c33 0 56 -24 56 -53c0 -32 -23 -54 -54 -54s-54 21 -54 53c0 29 23 54 52 54z" />
    <glyph glyph-name="periodcentered.cap" horiz-adv-x="212" 
d="M141 387c33 0 56 -24 56 -53c0 -32 -23 -54 -54 -54s-54 21 -54 53c0 29 23 54 52 54z" />
    <glyph glyph-name="bullet" unicode="&#x2022;" horiz-adv-x="427" 
d="M240 413c65 0 115 -49 115 -114s-50 -114 -115 -114s-116 49 -116 114s51 114 116 114z" />
    <glyph glyph-name="ampersand" unicode="&#x26;" horiz-adv-x="668" 
d="M261 -16c-117 0 -218 78 -218 217c0 128 90 258 213 258c28 0 47 -6 59 -14c29 47 51 95 51 123c0 12 -4 17 -21 22c-12 4 -25 7 -40 10c4 37 17 64 45 64c26 0 43 -25 43 -63c0 -72 -79 -201 -150 -280c-68 -77 -107 -113 -143 -145c26 -71 88 -119 179 -119
c175 0 244 173 258 291c-8 3 -16 7 -25 11c-55 25 -78 35 -92 35c-7 0 -10 -2 -10 -5c0 -2 2 -5 9 -14l20 -26c4 -5 5 -8 5 -10c0 -9 -12 -21 -32 -21s-31 12 -31 30c0 7 1 20 19 46c11 16 30 41 61 41c18 0 37 -5 78 -22c67 -27 98 -33 114 -33c11 0 14 4 14 6
c0 3 -2 5 -12 18l-18 22c-7 9 -9 12 -9 17c0 10 17 24 40 24c21 0 32 -13 32 -32c0 -8 -1 -25 -23 -56c-11 -16 -34 -49 -68 -49c-13 0 -27 1 -62 14c-16 -138 -73 -360 -286 -360zM86 257c0 -23 3 -46 9 -67c36 33 89 88 136 140c15 17 32 37 48 60c-8 23 -32 44 -68 44
c-61 0 -125 -74 -125 -177z" />
    <glyph glyph-name="exclam" unicode="!" horiz-adv-x="267" 
d="M161 276l-31 -80l-10 2l23 75c16 53 24 93 37 150c19 86 33 165 38 191c10 51 36 62 59 62c27 0 49 -18 49 -47s-17 -60 -40 -102c-25 -44 -57 -106 -64 -119c-26 -52 -41 -82 -61 -132zM77 100c30 0 54 -24 54 -54s-24 -54 -54 -54s-54 24 -54 54s24 54 54 54z" />
    <glyph glyph-name="exclamdown" unicode="&#xa1;" horiz-adv-x="264" 
d="M268 568c-30 0 -54 24 -54 54s24 54 54 54s54 -24 54 -54s-24 -54 -54 -54zM184 392l31 80l10 -2l-23 -75c-16 -53 -24 -93 -37 -150c-19 -86 -33 -165 -38 -191c-10 -51 -36 -62 -59 -62c-27 0 -49 18 -49 47s17 60 40 102c25 44 57 106 64 119c26 52 41 82 61 132z" />
    <glyph glyph-name="question" unicode="?" horiz-adv-x="340" 
d="M324 633c-4 0 -11 -4 -24 -12l-41 -24c-11 -6 -19 -11 -30 -11c-19 0 -32 19 -32 40c0 26 24 50 70 50c65 0 117 -66 117 -167c0 -100 -33 -146 -166 -183l-43 -12c-50 -14 -57 -20 -57 -30c0 -28 43 -73 64 -89l-7 -9c-26 20 -46 41 -54 51c-20 26 -30 47 -30 78
c0 35 20 52 77 73l51 18c100 37 142 58 142 135c0 48 -22 92 -37 92zM70 100c30 0 54 -24 54 -54s-24 -54 -54 -54s-54 24 -54 54s24 54 54 54z" />
    <glyph glyph-name="questiondown" unicode="&#xbf;" horiz-adv-x="340" 
d="M333 568c-30 0 -54 24 -54 54s24 54 54 54s54 -24 54 -54s-24 -54 -54 -54zM79 35c4 0 11 4 24 12l41 24c11 6 19 11 30 11c19 0 32 -19 32 -40c0 -26 -24 -50 -70 -50c-65 0 -117 66 -117 167c0 100 33 146 166 183l43 12c50 14 57 20 57 30c0 28 -43 73 -64 89l7 9
c26 -20 46 -41 54 -51c20 -26 30 -47 30 -78c0 -35 -20 -52 -77 -73l-51 -18c-100 -37 -142 -58 -142 -135c0 -48 22 -92 37 -92z" />
    <glyph glyph-name="quotedblleft" unicode="&#x201c;" horiz-adv-x="380" 
d="M485 666c-85 -20 -125 -65 -125 -109c0 -11 4 -11 19 -14l15 -3c27 -6 33 -17 33 -31c0 -28 -20 -52 -53 -52c-26 0 -58 19 -58 70c0 77 68 131 167 147zM326 666c-85 -20 -125 -65 -125 -109c0 -11 4 -11 19 -14l15 -3c27 -6 33 -17 33 -31c0 -28 -20 -52 -53 -52
c-26 0 -58 19 -58 70c0 77 68 131 167 147z" />
    <glyph glyph-name="quotedblright" unicode="&#x201d;" horiz-adv-x="380" 
d="M126 467c85 20 125 65 125 109c0 11 -4 11 -19 14l-15 3c-27 6 -33 17 -33 31c0 28 20 52 53 52c26 0 58 -19 58 -70c0 -77 -68 -131 -167 -147zM285 467c85 20 125 65 125 109c0 11 -4 11 -19 14l-15 3c-27 6 -33 17 -33 31c0 28 20 52 53 52c26 0 58 -19 58 -70
c0 -77 -68 -131 -167 -147z" />
    <glyph glyph-name="quoteleft" unicode="&#x2018;" horiz-adv-x="221" 
d="M326 666c-85 -20 -125 -65 -125 -109c0 -11 4 -11 19 -14l15 -3c27 -6 33 -17 33 -31c0 -28 -20 -52 -53 -52c-26 0 -58 19 -58 70c0 77 68 131 167 147z" />
    <glyph glyph-name="quoteright" unicode="&#x2019;" horiz-adv-x="221" 
d="M126 467c85 20 125 65 125 109c0 11 -4 11 -19 14l-15 3c-27 6 -33 17 -33 31c0 28 20 52 53 52c26 0 58 -19 58 -70c0 -77 -68 -131 -167 -147z" />
    <glyph glyph-name="quotedblbase" unicode="&#x201e;" horiz-adv-x="380" 
d="M-58 -98c85 20 125 65 125 109c0 11 -4 11 -19 14l-15 3c-27 6 -33 17 -33 31c0 28 20 52 53 52c26 0 58 -19 58 -70c0 -77 -68 -131 -167 -147zM101 -98c85 20 125 65 125 109c0 11 -4 11 -19 14l-15 3c-27 6 -33 17 -33 31c0 28 20 52 53 52c26 0 58 -19 58 -70
c0 -77 -68 -131 -167 -147z" />
    <glyph glyph-name="quotesinglbase" unicode="&#x201a;" horiz-adv-x="221" 
d="M-58 -98c85 20 125 65 125 109c0 11 -4 11 -19 14l-15 3c-27 6 -33 17 -33 31c0 28 20 52 53 52c26 0 58 -19 58 -70c0 -77 -68 -131 -167 -147z" />
    <glyph glyph-name="guillemotleft" unicode="&#xab;" horiz-adv-x="461" 
d="M201 227l271 181l5 -5l-196 -193l73 -167l-7 -5l-149 181zM28 227l271 181l5 -5l-196 -193l73 -167l-7 -5l-149 181z" />
    <glyph glyph-name="guillemotleft.cap" horiz-adv-x="461" 
d="M238 339l271 181l5 -5l-196 -193l73 -167l-7 -5l-149 181zM65 339l271 181l5 -5l-196 -193l73 -167l-7 -5l-149 181z" />
    <glyph glyph-name="guillemotright" unicode="&#xbb;" horiz-adv-x="461" 
d="M433 219l-271 -181l-5 5l196 193l-73 167l7 5l149 -181zM260 219l-271 -181l-5 5l196 193l-73 167l7 5l149 -181z" />
    <glyph glyph-name="guillemotright.cap" horiz-adv-x="461" 
d="M469 331l-271 -181l-5 5l196 193l-73 167l7 5l149 -181zM296 331l-271 -181l-5 5l196 193l-73 167l7 5l149 -181z" />
    <glyph glyph-name="guilsinglleft" unicode="&#x2039;" horiz-adv-x="288" 
d="M28 227l271 181l5 -5l-196 -193l73 -167l-7 -5l-149 181z" />
    <glyph glyph-name="guilsinglleft.cap" horiz-adv-x="288" 
d="M65 339l271 181l5 -5l-196 -193l73 -167l-7 -5l-149 181z" />
    <glyph glyph-name="guilsinglright" unicode="&#x203a;" horiz-adv-x="288" 
d="M260 219l-271 -181l-5 5l196 193l-73 167l7 5l149 -181z" />
    <glyph glyph-name="guilsinglright.cap" horiz-adv-x="288" 
d="M296 331l-271 -181l-5 5l196 193l-73 167l7 5l149 -181z" />
    <glyph glyph-name="hyphen" unicode="-" horiz-adv-x="330" 
d="M276 213h-230l23 68h230z" />
    <glyph glyph-name="hyphen.cap" horiz-adv-x="330" 
d="M305 300h-230l23 68h230z" />
    <glyph glyph-name="endash" unicode="&#x2013;" horiz-adv-x="536" 
d="M487 235h-429l8 24h429z" />
    <glyph glyph-name="endash.cap" horiz-adv-x="536" 
d="M516 322h-429l8 24h429z" />
    <glyph glyph-name="emdash" unicode="&#x2014;" horiz-adv-x="786" 
d="M737 235h-679l8 24h679z" />
    <glyph glyph-name="emdash.cap" horiz-adv-x="786" 
d="M767 322h-679l8 24h679z" />
    <glyph glyph-name="underscore" unicode="_" horiz-adv-x="419" 
d="M300 -124h-418l8 24h418z" />
    <glyph glyph-name="slash" unicode="/" horiz-adv-x="413" 
d="M-168 -230l729 1036l18 -13l-729 -1036z" />
    <glyph glyph-name="slash.cap" horiz-adv-x="413" 
d="M-130 -175l715 1016l18 -13l-715 -1016z" />
    <glyph glyph-name="backslash" unicode="\" horiz-adv-x="413" 
d="M196 802l111 -1036l-22 -5l-111 1036z" />
    <glyph glyph-name="backslash.cap" horiz-adv-x="413" 
d="M192 834l109 -1016l-22 -5l-109 1016z" />
    <glyph glyph-name="bar" unicode="|" horiz-adv-x="300" 
d="M-17 -234l348 1030h24l-348 -1030h-24z" />
    <glyph glyph-name="bar.cap" horiz-adv-x="300" 
d="M-1 -183l342 1010h24l-342 -1010h-24z" />
    <glyph glyph-name="parenleft" unicode="(" horiz-adv-x="351" 
d="M538 763c-253 -78 -408 -346 -408 -627c0 -150 42 -271 196 -335l-4 -7c-131 47 -274 159 -274 377c0 302 227 523 487 600z" />
    <glyph glyph-name="parenleft.cap" horiz-adv-x="351" 
d="M548 793c-253 -78 -405 -346 -405 -617c0 -140 45 -261 199 -325l-4 -7c-131 47 -277 159 -277 367c0 292 224 513 484 590z" />
    <glyph glyph-name="parenright" unicode=")" horiz-adv-x="351" 
d="M-161 -198c253 78 408 346 408 627c0 150 -42 271 -196 335l4 7c131 -47 274 -159 274 -377c0 -302 -227 -523 -487 -600z" />
    <glyph glyph-name="parenright.cap" horiz-adv-x="351" 
d="M-143 -148c253 78 405 346 405 617c0 140 -45 261 -199 325l4 7c131 -47 277 -159 277 -367c0 -292 -224 -513 -484 -590z" />
    <glyph glyph-name="bracketleft" unicode="[" horiz-adv-x="372" 
d="M303 766c66 -2 184 -6 275 -1l-2 -7c-52 -5 -145 -8 -195 -9c-37 -104 -60 -172 -161 -468c-100 -295 -121 -363 -154 -467c48 -1 139 -4 189 -9l-6 -7c-87 5 -207 1 -274 -1c19 49 27 70 64 184l205 601c38 114 44 135 59 184z" />
    <glyph glyph-name="bracketleft.cap" horiz-adv-x="372" 
d="M313 796c66 -2 184 -6 275 -1l-2 -7c-52 -5 -145 -8 -195 -9c-37 -104 -57 -162 -158 -458c-100 -295 -119 -353 -152 -457c48 -1 139 -4 189 -9l-6 -7c-87 5 -207 1 -274 -1c19 49 27 70 64 184l200 581c38 114 44 135 59 184z" />
    <glyph glyph-name="bracketright" unicode="]" horiz-adv-x="372" 
d="M99 -203c-66 2 -184 6 -275 1l2 7c52 5 145 8 195 9c37 104 60 172 161 468c100 295 121 363 154 467c-48 1 -139 4 -189 9l6 7c87 -5 207 -1 274 1c-19 -49 -27 -70 -64 -184l-205 -601c-38 -114 -44 -135 -59 -184z" />
    <glyph glyph-name="bracketright.cap" horiz-adv-x="372" 
d="M127 -152c-66 2 -184 6 -275 1l2 7c52 5 145 8 195 9c37 104 57 162 158 458c100 295 119 353 152 457c-48 1 -139 4 -189 9l6 7c87 -5 207 -1 274 1c-19 -49 -27 -70 -64 -184l-200 -581c-38 -114 -44 -135 -59 -184z" />
    <glyph glyph-name="braceleft" unicode="{" horiz-adv-x="392" 
d="M72 275l-21 1l3 10l23 1c78 4 164 46 185 115c20 66 0 179 21 247c37 121 167 132 339 132l-2 -8c-132 -7 -222 -15 -247 -120c-19 -80 -12 -146 -33 -225c-29 -108 -162 -136 -235 -145l-1 -4c59 -8 148 -37 148 -113c0 -75 -110 -217 -110 -297c0 -58 85 -72 188 -80
l-2 -8c-139 8 -268 29 -268 111c0 48 37 105 69 164c28 52 59 100 59 135c0 52 -52 81 -116 84z" />
    <glyph glyph-name="braceleft.cap" horiz-adv-x="392" 
d="M85 316l-21 1l3 10l23 1c78 4 163 46 185 115c20 63 -2 171 18 237c38 121 167 131 339 131l-2 -8c-132 -7 -222 -15 -247 -120c-18 -75 -10 -140 -30 -214c-29 -108 -162 -136 -235 -145l-1 -4c59 -8 148 -37 148 -113c0 -71 -108 -213 -108 -288c0 -58 85 -72 188 -80
l-2 -8c-139 8 -268 29 -268 111c0 43 35 99 69 160c29 52 57 99 57 130c0 52 -52 81 -116 84z" />
    <glyph glyph-name="braceright" unicode="}" horiz-adv-x="392" 
d="M358 287l21 -1l-3 -10l-23 -1c-78 -4 -164 -46 -185 -115c-20 -66 0 -179 -21 -247c-37 -121 -167 -132 -339 -132l2 8c132 7 222 15 247 120c19 80 12 146 33 225c29 108 162 136 235 145l1 4c-59 8 -148 37 -148 113c0 75 110 217 110 297c0 58 -85 72 -188 80l2 8
c139 -8 268 -29 268 -111c0 -48 -37 -105 -69 -164c-28 -52 -59 -100 -59 -135c0 -52 52 -81 116 -84z" />
    <glyph glyph-name="braceright.cap" horiz-adv-x="392" 
d="M374 326l21 -1l-3 -10l-23 -1c-78 -4 -163 -46 -185 -115c-20 -63 2 -171 -18 -237c-38 -121 -167 -131 -339 -131l2 8c132 7 222 15 247 120c18 75 10 140 30 214c29 108 162 136 235 145l1 4c-59 8 -148 37 -148 113c0 71 108 213 108 288c0 58 -85 72 -188 80l2 8
c139 -8 268 -29 268 -111c0 -43 -35 -99 -69 -160c-29 -52 -57 -99 -57 -130c0 -52 52 -81 116 -84z" />
    <glyph glyph-name="at" unicode="@" horiz-adv-x="865" 
d="M476 48c-20 0 -30 3 -30 14c0 5 2 12 7 25l63 160l-4 2c-62 -119 -151 -200 -212 -200c-25 0 -56 11 -56 62c0 133 148 320 258 320c32 0 54 -19 58 -55h3l27 66h61l2 -4l-119 -302c-6 -15 -19 -45 -19 -55c0 -5 2 -8 13 -8c78 0 307 86 307 300c0 139 -112 246 -296 246
c-272 0 -479 -239 -479 -479c0 -199 140 -302 321 -302c132 0 251 56 320 123l13 -13c-72 -70 -195 -128 -333 -128c-193 0 -341 110 -341 320c0 249 215 497 499 497c199 0 316 -117 316 -264c0 -211 -219 -325 -379 -325zM543 369c0 33 -17 46 -37 46
c-79 0 -190 -203 -190 -301c0 -9 3 -31 25 -31c37 0 98 66 145 143c36 60 57 111 57 143z" />
    <glyph glyph-name="at.cap" horiz-adv-x="865" 
d="M512 154c-20 0 -30 3 -30 14c0 5 2 12 7 25l63 160l-4 2c-62 -119 -151 -200 -212 -200c-25 0 -56 11 -56 62c0 133 148 320 258 320c32 0 54 -19 58 -55h3l27 66h61l2 -4l-119 -302c-6 -15 -19 -45 -19 -55c0 -5 2 -8 13 -8c78 0 307 86 307 300
c0 139 -112 246 -296 246c-272 0 -479 -239 -479 -479c0 -199 140 -302 321 -302c132 0 251 56 320 123l13 -13c-72 -70 -195 -128 -333 -128c-193 0 -341 110 -341 320c0 249 215 497 499 497c199 0 316 -117 316 -264c0 -211 -219 -325 -379 -325zM579 475
c0 33 -17 46 -37 46c-79 0 -190 -203 -190 -301c0 -9 3 -31 25 -31c37 0 98 66 145 143c36 60 57 111 57 143z" />
    <glyph glyph-name="copyright" unicode="&#xa9;" horiz-adv-x="798" 
d="M78 339c0 195 154 361 355 361c239 0 363 -180 363 -372c0 -194 -154 -360 -356 -360c-239 0 -362 180 -362 371zM444 -13c159 0 330 133 330 343c0 215 -146 352 -344 352c-159 0 -330 -133 -330 -345c0 -214 146 -350 344 -350zM455 514c29 0 51 -4 83 -10
c15 -3 17 -3 19 4l3 5h4c4 -30 9 -82 10 -111l-6 -1c-23 66 -47 102 -114 102c-69 0 -124 -47 -124 -153c0 -94 51 -169 122 -169c74 0 109 62 127 117l6 -3c-4 -33 -11 -83 -16 -96c-42 -20 -80 -29 -119 -29c-94 0 -184 62 -184 168c0 96 80 176 189 176z" />
    <glyph glyph-name="published" unicode="&#x2117;" horiz-adv-x="798" 
d="M78 339c0 195 154 361 355 361c239 0 363 -180 363 -372c0 -194 -154 -360 -356 -360c-239 0 -362 180 -362 371zM444 -13c159 0 330 133 330 343c0 215 -146 352 -344 352c-159 0 -330 -133 -330 -345c0 -214 146 -350 344 -350zM296 500v7c40 2 87 4 120 4
c119 0 173 -39 173 -97c0 -59 -69 -99 -166 -98v7c90 7 105 44 105 91c0 56 -35 87 -127 87c-1 -12 -1 -36 -1 -55v-200c0 -23 0 -40 1 -49c1 -10 5 -14 27 -15l30 -2v-7h-162v7l22 2c21 2 25 5 26 15c1 8 2 25 2 48v189c0 23 -1 40 -2 49c-1 10 -6 15 -32 16z" />
    <glyph glyph-name="registered.alt" horiz-adv-x="798" 
d="M78 339c0 195 154 361 355 361c239 0 363 -180 363 -372c0 -194 -154 -360 -356 -360c-239 0 -362 180 -362 371zM444 -13c159 0 330 133 330 343c0 215 -146 352 -344 352c-159 0 -330 -133 -330 -345c0 -214 146 -350 344 -350zM573 170c-32 0 -39 12 -61 46l-61 93
c-12 20 -13 21 -25 21h-45v-84c0 -23 0 -40 1 -49c1 -10 7 -14 29 -15l32 -2v-7h-166v7l22 2c21 2 25 5 26 15c1 8 2 25 2 48v193c0 23 -1 40 -2 49c-1 10 -6 15 -32 16l-17 1v7c45 -1 95 0 132 -1c126 -2 157 -46 157 -85s-35 -64 -74 -78c9 -13 50 -79 90 -133
c22 -30 26 -31 59 -35v-6h-6c-14 0 -52 -3 -61 -3zM382 500c-1 -12 -1 -36 -1 -56v-105c79 0 125 24 125 84c0 41 -25 77 -124 77z" />
    <glyph glyph-name="registered" unicode="&#xae;" horiz-adv-x="370" 
d="M299 382c-86 0 -151 65 -151 151s65 151 151 151s151 -65 151 -151s-65 -151 -151 -151zM299 395c78 0 135 58 135 138s-57 138 -135 138s-135 -58 -135 -138s57 -138 135 -138zM353 459c-15 0 -19 9 -29 26l-20 36c-7 12 -8 12 -15 12h-14v-46c0 -18 0 -19 27 -21v-5
h-76v5c21 2 21 3 21 21v110c0 15 -1 16 -21 19v5c23 -1 38 -1 55 -1c63 0 78 -20 78 -40c0 -17 -14 -30 -37 -37c5 -7 20 -36 37 -61c9 -13 11 -14 30 -17v-4c-12 0 -24 -2 -36 -2zM276 613c-1 -6 -1 -20 -1 -25v-49c32 -1 53 11 53 39c0 21 -9 35 -52 35z" />
    <glyph glyph-name="servicemark" unicode="&#x2120;" horiz-adv-x="511" 
d="M400 473v-5h-84v5l13 2c21 3 25 11 26 39l7 128c-6 12 -13 15 -26 19l-9 3v4h65c2 -9 6 -21 11 -31l56 -122l50 107c7 14 13 29 15 46h74v-4l-9 -2c-27 -6 -28 -11 -27 -40l4 -117c1 -27 5 -29 20 -30l12 -1v-6h-99v6l11 1c19 2 20 5 19 28l-4 129l-77 -164h-4l-75 158
l-2 -113c-1 -30 0 -34 21 -38zM280 662c1 -9 3 -33 4 -47h-5c-16 42 -40 49 -55 49c-19 0 -33 -10 -33 -26c0 -18 16 -30 43 -49c36 -25 57 -42 57 -70c0 -31 -30 -54 -72 -54c-17 0 -38 3 -62 13c-3 14 -7 43 -7 54l6 1c17 -48 38 -61 63 -61c21 0 40 12 40 32
c0 17 -12 30 -48 55c-26 18 -51 34 -51 62c0 26 28 50 68 50c19 0 41 -4 52 -9z" />
    <glyph glyph-name="trademark" unicode="&#x2122;" horiz-adv-x="565" 
d="M146 678h3l1 -5c1 -6 3 -6 9 -6h169c10 0 12 2 13 7l1 4h4l1 -72h-3c-10 26 -15 45 -29 49c-8 3 -14 4 -35 4h-20v-144c0 -14 0 -23 1 -29c1 -8 6 -10 20 -11l16 -1v-6h-112v6l16 1c13 1 19 3 20 11c1 6 1 15 1 29v144h-17c-16 0 -28 -1 -36 -6c-13 -9 -19 -24 -36 -47
l-3 2zM451 473v-5h-84v5l13 2c21 3 25 11 26 39l7 128c-6 12 -13 15 -26 19l-9 3v4h65c2 -9 6 -21 11 -31l56 -122l50 107c7 14 13 29 15 46h74v-4l-9 -2c-27 -6 -28 -11 -27 -40l4 -117c1 -27 5 -29 20 -30l12 -1v-6h-99v6l11 1c19 2 20 5 19 28l-4 129l-77 -164h-4
l-75 158l-2 -113c-1 -30 0 -34 21 -38z" />
    <glyph glyph-name="asterisk" unicode="*" horiz-adv-x="360" 
d="M276 422c-6 -15 -20 -23 -37 -17c-17 7 -23 22 -18 37c7 17 39 44 62 95l4 9l-10 -1c-54 -15 -86 -41 -105 -45c-16 -3 -29 6 -32 24c-4 18 7 31 22 34c19 3 58 -12 113 -6l10 1l-6 8c-39 40 -79 54 -91 68c-10 12 -9 29 5 41c13 11 30 9 40 -3c12 -15 19 -56 51 -102
l7 -8l3 10c15 54 8 95 14 113c6 15 20 23 37 17c17 -7 23 -22 18 -37c-7 -17 -39 -44 -62 -95l-4 -10l10 2c54 15 86 41 105 45c16 3 29 -6 33 -24c3 -18 -8 -31 -23 -34c-19 -3 -58 12 -113 6l-10 -2l6 -7c39 -40 79 -54 91 -68c10 -12 9 -29 -4 -40c-14 -12 -31 -10 -41 2
c-12 15 -19 56 -51 102l-7 7l-3 -9c-15 -54 -8 -95 -14 -113z" />
    <glyph glyph-name="dagger" unicode="&#x2020;" horiz-adv-x="352" 
d="M274 416l-130 -294h-6l73 304c15 65 46 57 56 82l11 26l-15 -2c-34 -4 -69 -26 -96 -26c-14 0 -24 9 -24 26c0 23 13 41 32 41c22 0 45 -20 88 -31l16 -4c12 73 8 118 16 144c4 13 13 24 31 24c21 0 33 -12 33 -27c0 -20 -22 -51 -40 -81c-14 -23 -26 -44 -33 -61l14 2
c34 4 69 26 96 26c14 0 24 -9 24 -26c0 -23 -13 -41 -32 -41c-22 0 -45 20 -88 31l-15 4l-7 -23c-7 -23 7 -27 7 -53c0 -12 -6 -29 -11 -41z" />
    <glyph glyph-name="daggerdbl" unicode="&#x2021;" horiz-adv-x="352" 
d="M189 146c-4 -13 -13 -24 -31 -24c-21 0 -33 12 -33 27c0 20 22 51 40 81c14 23 26 44 33 61l-14 -2c-34 -4 -69 -26 -96 -26c-14 0 -24 9 -24 26c0 23 13 41 32 41c22 0 45 -20 88 -31l15 -4l6 18c13 42 4 72 13 104c8 28 35 56 50 93l10 24l-15 -2
c-34 -4 -69 -26 -96 -26c-14 0 -24 9 -24 26c0 23 13 41 32 41c22 0 45 -20 88 -31l16 -4c12 73 8 118 16 144c4 13 13 24 31 24c21 0 33 -12 33 -27c0 -20 -22 -51 -40 -81c-14 -23 -26 -44 -33 -61l14 2c34 4 69 26 96 26c14 0 24 -9 24 -26c0 -23 -13 -41 -32 -41
c-22 0 -45 20 -88 31l-15 4l-6 -18c-13 -42 -4 -72 -13 -104c-8 -28 -35 -56 -50 -93l-10 -24l15 2c34 4 69 26 96 26c14 0 24 -9 24 -26c0 -23 -13 -41 -32 -41c-22 0 -45 20 -88 31l-16 4c-12 -73 -8 -118 -16 -144z" />
    <glyph glyph-name="asciicircum" unicode="^" horiz-adv-x="494" 
d="M386 652h12l67 -372l-18 -5l-62 346l-297 -346l-15 12z" />
    <glyph glyph-name="asciicircum.lin" horiz-adv-x="494" 
d="M419 750h12l67 -372l-18 -5l-62 346l-297 -346l-15 12z" />
    <glyph glyph-name="asciitilde" unicode="~" horiz-adv-x="648" 
d="M429 123c-98 0 -120 186 -205 186c-58 0 -123 -78 -188 -191l-18 8c72 122 136 203 208 203c98 0 120 -186 205 -186c58 0 123 78 188 191l18 -8c-72 -122 -136 -203 -208 -203z" />
    <glyph glyph-name="asciitilde.lin" horiz-adv-x="648" 
d="M466 231c-98 0 -120 186 -205 186c-58 0 -123 -78 -188 -191l-18 8c72 122 136 203 208 203c98 0 120 -186 205 -186c58 0 123 78 188 191l18 -8c-72 -122 -136 -203 -208 -203z" />
    <glyph glyph-name="dollar" unicode="$" horiz-adv-x="447" 
d="M203 464c0 -37 22 -76 63 -121l80 215c-7 1 -15 1 -22 1c-76 0 -121 -37 -121 -95zM177 8c80 0 142 38 142 104c0 41 -27 81 -75 133l-88 -236c6 -1 14 -1 21 -1zM186 -8c-10 0 -22 1 -36 2l-36 -96l-14 3l36 95c-37 6 -81 17 -123 37c4 42 11 112 18 152h9
c4 -118 42 -163 101 -174l92 246c-3 4 -7 8 -11 12c-51 53 -88 100 -88 152c0 73 61 154 201 154c6 0 11 0 17 -1l35 94l14 -3l-34 -92c36 -5 71 -18 103 -30c-2 -26 -6 -83 -14 -133h-9c-5 111 -41 139 -87 147l-84 -225l6 -6c60 -61 108 -113 108 -172
c0 -100 -81 -162 -204 -162z" />
    <glyph glyph-name="dollar.lin" horiz-adv-x="536" 
d="M250 553c0 -49 30 -95 70 -148l93 250c-13 3 -26 5 -40 5c-80 0 -123 -40 -123 -107zM223 8c84 0 147 39 147 115c0 55 -32 103 -79 167l-104 -278c11 -3 23 -4 36 -4zM223 -8c-12 0 -26 1 -43 3l-36 -97h-14l37 99c-38 7 -84 20 -127 44c4 49 21 148 32 193h8
c2 -135 36 -198 94 -218l107 287c-4 6 -8 11 -12 17c-49 65 -94 117 -94 190c0 75 68 166 213 166c10 0 21 -1 32 -2l34 91l15 -1l-35 -93c36 -6 72 -19 101 -33c-2 -31 -16 -112 -27 -170h-9c-2 112 -32 162 -73 182l-97 -258c3 -3 5 -7 8 -10c59 -77 107 -135 107 -214
c0 -98 -95 -176 -221 -176z" />
    <glyph glyph-name="sterling" unicode="&#xa3;" horiz-adv-x="527" 
d="M95 53c-35 -50 -52 -63 -64 -63c-14 0 -29 15 -29 34c0 20 24 26 82 44c54 46 79 107 83 214h-95v14h95v5c1 184 98 277 231 277c60 0 131 -25 131 -75c0 -33 -30 -52 -54 -52c-13 0 -23 7 -26 25l-10 64c-3 19 -20 21 -43 21c-57 0 -121 -17 -137 -177
c-3 -34 -7 -63 -11 -88h147v-14h-150c-19 -97 -55 -139 -153 -218l2 -2c42 16 70 28 108 28c49 0 117 -24 159 -24c31 0 46 -2 64 58l12 41l8 -1l-11 -50c-19 -90 -47 -122 -96 -122c-67 0 -171 61 -243 61z" />
    <glyph glyph-name="sterling.lin" horiz-adv-x="574" 
d="M118 74c-46 -67 -68 -84 -85 -84c-20 0 -38 18 -38 45c0 26 31 34 108 58c50 63 74 123 77 242h-103v14h103v29c-3 197 102 306 273 306c69 0 145 -29 145 -88c0 -39 -31 -62 -60 -62c-18 0 -28 9 -31 30l-14 80c-4 25 -20 26 -47 26c-37 0 -152 -8 -172 -221
c-4 -38 -7 -71 -12 -100h185v-14h-187c-20 -108 -56 -159 -148 -247l4 -5c43 14 83 23 116 23c64 0 144 -32 186 -32c24 0 40 11 61 73l7 21l9 -1l-8 -28c-29 -101 -61 -147 -119 -147c-78 0 -170 82 -250 82z" />
    <glyph glyph-name="Euro" unicode="&#x20ac;" horiz-adv-x="564" 
d="M459 103c-22 -30 -84 -119 -192 -119c-113 0 -162 85 -162 188c0 20 2 41 5 61h-76v14h78c5 27 13 54 23 80h-69v14h75c56 131 172 237 311 237c98 0 126 -44 126 -72c0 -31 -29 -55 -57 -55c-22 0 -27 10 -31 34l-10 55c-4 20 -13 22 -30 22c-104 0 -186 -102 -227 -221
h247v-14h-252c-8 -26 -15 -53 -19 -80h240v-14h-242c-3 -20 -4 -40 -4 -59c0 -100 42 -155 114 -155c76 0 130 71 145 90z" />
    <glyph glyph-name="Euro.lin" horiz-adv-x="612" 
d="M507 119c-23 -35 -92 -135 -213 -135c-142 0 -189 112 -189 220c0 23 2 46 6 70h-68v14h70c7 34 17 69 31 102h-62v14h68c67 151 204 280 372 280c112 0 140 -46 140 -80c0 -37 -33 -60 -63 -60c-22 0 -27 10 -32 35l-13 67c-3 18 -17 23 -41 23
c-130 0 -227 -125 -277 -265h294v-14h-299c-11 -34 -20 -68 -26 -102h286v-14h-288c-4 -27 -6 -54 -6 -79c0 -118 38 -176 129 -176c98 0 157 83 173 106z" />
    <glyph glyph-name="yen" unicode="&#xa5;" horiz-adv-x="572" 
d="M331 7v-7h-222v7l32 2c34 4 41 7 50 28c5 10 14 41 28 80l27 81h-186v14h191l1 3c15 46 12 47 5 76v2h-164v14h160l-32 134c-12 49 -18 77 -26 92c-7 14 -14 18 -58 21l-30 2v7h239v-7l-39 -3c-26 -2 -34 -7 -34 -17c0 -12 8 -45 19 -94l37 -165h3l86 100
c98 113 113 141 113 153c0 8 -4 14 -37 21l-34 7v5h231v-5l-24 -5c-63 -13 -71 -18 -114 -63l-171 -183h143v-14h-156l-32 -34l-16 -47h171v-14h-175l-28 -84c-15 -44 -27 -76 -27 -88c0 -11 9 -14 37 -17z" />
    <glyph glyph-name="yen.lin" horiz-adv-x="631" 
d="M380 8v-8h-251v8l37 3c41 4 50 8 60 32c6 13 17 50 33 96l36 103v1h-213v14h218c10 26 13 40 5 82h-190v14h188l-37 178c-9 48 -17 82 -23 99c-7 20 -11 23 -61 27l-36 3v8h253v-8l-30 -2c-37 -2 -47 -7 -47 -19c0 -14 9 -54 19 -109l40 -207h4l110 133
c63 76 134 166 134 185c0 6 -9 12 -49 17l-30 4v6h250v-6l-35 -6c-65 -11 -69 -16 -123 -74l-210 -229h143v-14h-156l-34 -37l-15 -45h172v-14h-177l-36 -107c-18 -53 -31 -92 -31 -106c0 -12 10 -16 43 -19z" />
    <glyph glyph-name="cent" unicode="&#xa2;" horiz-adv-x="393" 
d="M112 119c0 -37 6 -70 28 -88l154 412c-106 -10 -182 -189 -182 -324zM151 -16c-5 0 -10 0 -15 1l-33 -87l-13 1l33 89c-52 13 -85 67 -85 136c0 149 107 319 262 334l32 86h15l-32 -85h7c64 0 85 -32 85 -54c0 -30 -29 -47 -50 -47c-14 0 -20 6 -23 29l-4 40
c-2 17 -12 16 -21 16l-158 -419c8 -4 19 -6 31 -6c61 0 108 75 130 117l8 -4c-8 -16 -65 -147 -169 -147z" />
    <glyph glyph-name="cent.lin" horiz-adv-x="425" 
d="M128 119c0 -37 6 -70 28 -88l154 412c-106 -10 -182 -189 -182 -324zM167 -16c-5 0 -10 0 -15 1l-33 -87l-13 1l33 89c-52 13 -85 67 -85 136c0 149 107 319 262 334l32 86h15l-32 -85h7c64 0 85 -32 85 -54c0 -30 -29 -47 -50 -47c-14 0 -20 6 -23 29l-4 40
c-2 17 -12 16 -21 16l-158 -419c8 -4 19 -6 31 -6c61 0 108 75 130 117l8 -4c-8 -16 -65 -147 -169 -147z" />
    <glyph glyph-name="numbersign" unicode="#" horiz-adv-x="664" 
d="M402 223l92 176h-172l-92 -176h172zM283 -8l110 213h-172l-110 -213h-20l110 213h-161l3 18h167l92 176h-172l3 18h178l110 213h20l-110 -213h172l110 213h20l-110 -213h161l-3 -18h-167l-92 -176h172l-3 -18h-178l-110 -213h-20z" />
    <glyph glyph-name="paragraph" unicode="&#xb6;" horiz-adv-x="595" 
d="M352 244l7 19h-20c-177 0 -235 76 -235 156c0 150 162 225 351 225c96 0 174 -4 250 -9v-8h-30c-40 -2 -54 -7 -67 -31c-11 -21 -23 -52 -38 -98l-170 -499h-18l213 628h-95l-146 -431c-40 -116 -77 -196 -120 -246c-26 -30 -57 -46 -84 -46c-30 0 -44 20 -44 45
c0 36 28 71 64 87c15 -50 38 -66 48 -66c3 0 8 1 15 9c38 45 85 162 119 265z" />
    <glyph glyph-name="paragraph.lin" horiz-adv-x="595" 
d="M352 244l17 47h-20c-177 0 -235 76 -235 156c0 150 162 225 351 225c96 0 174 -4 250 -9v-8h-30c-40 -2 -54 -7 -67 -31c-11 -21 -23 -52 -38 -98l-180 -527h-18l223 656h-95l-156 -459c-40 -116 -77 -196 -120 -246c-26 -30 -57 -46 -84 -46c-30 0 -44 20 -44 45
c0 36 28 71 64 87c15 -50 38 -66 48 -66c3 0 8 1 15 9c38 45 85 162 119 265z" />
    <glyph glyph-name="section" unicode="&#xa7;" horiz-adv-x="444" 
d="M140 279c0 -106 50 -213 58 -295l2 -1c53 53 122 130 122 238c0 106 -50 213 -58 295l-2 1c-53 -53 -122 -130 -122 -238zM387 269c0 -97 -62 -181 -141 -260c-99 -98 -175 -152 -226 -152c-27 0 -44 18 -44 41c0 30 22 59 46 59c9 0 19 -7 33 -19l27 -22
c10 -8 13 -12 18 -12c7 0 35 17 35 49c0 55 -60 169 -60 278c0 97 62 181 141 260c99 98 175 152 226 152c27 0 44 -18 44 -41c0 -30 -22 -59 -46 -59c-9 0 -19 7 -33 19l-27 22c-10 8 -13 12 -18 12c-7 0 -35 -17 -35 -49c0 -55 60 -169 60 -278z" />
    <glyph glyph-name="section.lin" horiz-adv-x="499" 
d="M382 273c0 126 -60 227 -61 328l-2 1c-72 -67 -148 -142 -148 -263c0 -126 60 -227 61 -328l2 -1c72 67 148 142 148 263zM455 325c0 -104 -69 -194 -161 -278c-117 -106 -200 -164 -257 -164c-35 0 -53 20 -53 45c0 31 26 64 52 64c11 0 21 -8 35 -22l24 -25
c11 -12 17 -15 22 -15c9 0 46 20 46 56c0 67 -65 203 -65 301c0 104 69 194 161 278c117 106 200 164 257 164c35 0 53 -20 53 -45c0 -31 -26 -64 -52 -64c-11 0 -21 8 -35 22l-24 25c-11 12 -17 15 -22 15c-9 0 -46 -20 -46 -56c0 -67 65 -203 65 -301z" />
    <glyph glyph-name="ordfeminine" unicode="&#xaa;" horiz-adv-x="366" 
d="M284 332c-14 0 -15 4 -15 9c0 7 3 15 45 118l14 35l-3 2c-24 -44 -70 -99 -92 -120c-26 -24 -53 -41 -83 -41c-20 0 -47 10 -47 53c0 108 128 268 223 268c28 0 47 -16 49 -39h2l21 49h51l2 -3l-106 -256c-5 -13 -11 -27 -11 -31c0 -1 0 -2 2 -2c16 0 54 40 73 71l6 -3
c-25 -44 -88 -110 -131 -110zM360 615c0 19 -12 29 -26 29c-62 0 -169 -164 -169 -245c0 -15 2 -35 21 -35c14 0 26 10 40 22c83 79 134 187 134 229z" />
    <glyph glyph-name="ordmasculine" unicode="&#xba;" horiz-adv-x="348" 
d="M213 334c-55 0 -88 32 -88 93c0 101 82 241 195 241c54 0 87 -39 87 -93c0 -101 -82 -241 -194 -241zM322 657c-58 0 -144 -153 -144 -266c0 -38 15 -46 32 -46c58 0 144 153 144 266c0 38 -15 46 -32 46z" />
    <glyph glyph-name="degree" unicode="&#xb0;" horiz-adv-x="370" 
d="M286 644c69 0 125 -54 125 -123s-56 -123 -125 -123s-125 54 -125 123s56 123 125 123zM286 418c58 0 102 44 102 103c0 58 -46 103 -102 103c-58 0 -102 -44 -102 -103c0 -58 46 -103 102 -103z" />
    <glyph glyph-name="degree.lin" horiz-adv-x="370" 
d="M297 676c69 0 125 -54 125 -123s-56 -123 -125 -123s-125 54 -125 123s56 123 125 123zM297 450c58 0 102 44 102 103c0 58 -46 103 -102 103c-58 0 -102 -44 -102 -103c0 -58 46 -103 102 -103z" />
    <glyph glyph-name="percent" unicode="%" horiz-adv-x="826" 
d="M101 -13l-15 12l691 618l15 -12zM259 315c-58 0 -103 40 -103 110c0 81 70 191 178 191c58 0 103 -39 103 -109c0 -82 -72 -192 -178 -192zM335 605c-73 0 -126 -133 -126 -214c0 -46 16 -65 48 -65c73 0 126 133 126 213c0 45 -17 66 -48 66zM619 289
c59 0 103 -40 103 -110c0 -81 -70 -191 -178 -191c-58 0 -102 39 -102 109c0 82 71 192 177 192zM543 -1c73 0 126 133 126 214c0 46 -16 65 -48 65c-73 0 -126 -133 -126 -213c0 -45 17 -66 48 -66z" />
    <glyph glyph-name="percent.lin" horiz-adv-x="820" 
d="M87 -13l-15 12l735 682l15 -12zM147 476c0 95 74 204 180 204c62 0 112 -41 112 -125c0 -95 -74 -204 -180 -204c-62 0 -112 41 -112 125zM203 440c0 -55 20 -78 52 -78c76 0 128 130 128 229c0 55 -20 78 -52 78c-76 0 -128 -130 -128 -229zM747 192
c0 -95 -74 -204 -180 -204c-62 0 -112 41 -112 125c0 95 74 204 180 204c62 0 112 -41 112 -125zM691 228c0 55 -20 78 -52 78c-76 0 -128 -130 -128 -229c0 -55 20 -78 52 -78c76 0 128 130 128 229z" />
    <glyph glyph-name="quotedbl" unicode="&#x22;" horiz-adv-x="384" 
d="M356 492c-27 -34 -55 -70 -78 -104l-5 2c17 39 34 81 51 132l23 69c13 38 25 58 52 58c18 0 39 -13 39 -36c0 -18 -14 -35 -36 -63zM216 492c-27 -34 -55 -70 -78 -104l-5 2c17 39 34 81 51 132l23 69c13 38 25 58 52 58c18 0 39 -13 39 -36c0 -18 -14 -35 -36 -63z" />
    <glyph glyph-name="quotedbl.lin" horiz-adv-x="408" 
d="M378 498c-29 -39 -55 -76 -78 -110l-5 2c17 39 34 81 53 138l27 81c15 44 27 64 54 64c18 0 39 -13 39 -36c0 -18 -12 -35 -37 -69zM226 498c-29 -39 -55 -76 -78 -110l-5 2c17 39 34 81 53 138l27 81c15 44 27 64 54 64c18 0 39 -13 39 -36c0 -18 -12 -35 -37 -69z" />
    <glyph glyph-name="quotesingle" unicode="'" horiz-adv-x="244" 
d="M214 492c-27 -34 -55 -70 -78 -104l-5 2c17 39 34 81 51 132l23 69c13 38 25 58 52 58c18 0 39 -13 39 -36c0 -18 -14 -35 -36 -63z" />
    <glyph glyph-name="quotesingle.lin" horiz-adv-x="256" 
d="M226 498c-29 -39 -55 -76 -78 -110l-5 2c17 39 34 81 53 138l27 81c15 44 27 64 54 64c18 0 39 -13 39 -36c0 -18 -12 -35 -37 -69z" />
    <glyph glyph-name="plus" unicode="+" horiz-adv-x="484" 
d="M431 212h-181l-62 -182h-22l62 182h-181l7 20h181l62 182h22l-62 -182h181z" />
    <glyph glyph-name="plus.lin" horiz-adv-x="524" 
d="M508 324h-201l-69 -202h-22l69 202h-201l7 20h200l69 202h22l-69 -202h202z" />
    <glyph glyph-name="minus" unicode="&#x2212;" horiz-adv-x="484" 
d="M47 212l7 20h384l-7 -20h-384z" />
    <glyph glyph-name="minus.lin" horiz-adv-x="524" 
d="M84 324l7 20h424l-7 -20h-424z" />
    <glyph glyph-name="divide" unicode="&#xf7;" horiz-adv-x="504" 
d="M346 357c0 -28 -22 -50 -47 -50c-29 0 -49 21 -49 44c0 27 21 51 49 51c26 0 47 -19 47 -45zM47 212l7 20h404l-7 -20h-404zM257 93c0 -28 -22 -50 -47 -50c-29 0 -49 21 -49 44c0 29 21 51 49 51c26 0 47 -19 47 -45z" />
    <glyph glyph-name="divide.lin" horiz-adv-x="544" 
d="M406 477c0 -28 -22 -50 -47 -50c-29 0 -49 21 -49 44c0 27 21 51 49 51c26 0 47 -19 47 -45zM535 344l-7 -20h-444l7 20h444zM213 191c0 28 22 50 47 50c29 0 49 -21 49 -44c0 -27 -21 -51 -49 -51c-26 0 -47 19 -47 45z" />
    <glyph glyph-name="equal" unicode="=" horiz-adv-x="484" 
d="M73 292l7 20h384l-7 -20h-384zM19 132l7 20h384l-7 -20h-384z" />
    <glyph glyph-name="equal.lin" horiz-adv-x="524" 
d="M111 404l7 20h424l-7 -20h-424zM57 244l7 20h424l-7 -20h-424z" />
    <glyph glyph-name="multiply" unicode="&#xd7;" horiz-adv-x="524" 
d="M366 46l-107 163l-221 -165l-10 15l221 165l-109 164l16 11l108 -164l221 165l10 -15l-221 -165l108 -163z" />
    <glyph glyph-name="multiply.lin" horiz-adv-x="552" 
d="M427 144l-116 177l-240 -179l-10 15l240 179l-117 177l16 11l116 -177l240 179l10 -15l-240 -179l117 -177z" />
    <glyph glyph-name="less" unicode="&#x3c;" horiz-adv-x="506" 
d="M39 235l439 190l5 -19l-425 -184l300 -184l-12 -17l-314 192z" />
    <glyph glyph-name="less.lin" horiz-adv-x="526" 
d="M73 347l459 200l5 -19l-445 -194l320 -194l-12 -17l-334 202z" />
    <glyph glyph-name="greater" unicode="&#x3e;" horiz-adv-x="506" 
d="M467 213l-439 -190l-5 19l425 184l-300 184l12 17l314 -192z" />
    <glyph glyph-name="greater.lin" horiz-adv-x="526" 
d="M527 323l-459 -200l-5 19l445 194l-320 194l12 17l334 -202z" />
    <glyph glyph-name="plusminus" unicode="&#xb1;" horiz-adv-x="484" 
d="M427 262h-161l-55 -162h-22l55 162h-161l7 20h161l55 162h22l-55 -162h161zM-6 0l7 20h344l-7 -20h-344z" />
    <glyph glyph-name="plusminus.lin" horiz-adv-x="484" 
d="M498 413h-181l-62 -182h-22l62 182h-181l7 20h181l62 182h22l-62 -182h181zM13 116l7 20h384l-7 -20h-384z" />
    <glyph glyph-name="space" unicode=" " horiz-adv-x="140" 
 />
    <glyph glyph-name="uni00A0" unicode="&#xa0;" horiz-adv-x="140" 
 />
    <glyph glyph-name="emspace" unicode="&#x2003;" horiz-adv-x="1000" 
 />
    <glyph glyph-name="enspace" unicode="&#x2002;" 
 />
    <glyph glyph-name="threeperemspace" unicode="&#x2004;" horiz-adv-x="333" 
 />
    <glyph glyph-name="fourperemspace" unicode="&#x2005;" horiz-adv-x="250" 
 />
    <glyph glyph-name="thinspace" unicode="&#x2009;" horiz-adv-x="133" 
 />
    <glyph glyph-name="hairspace" unicode="&#x200a;" horiz-adv-x="75" 
 />
    <glyph glyph-name="NUL" horiz-adv-x="0" 
 />
    <glyph glyph-name="hcoslug" horiz-adv-x="694" 
d="M644 700v-800h-594v800h594zM247 428c0 17 11 29 27 29c17 0 29 -15 29 -38c0 -17 -7 -33 -18 -50c-23 22 -38 36 -38 59zM312 342c19 13 33 24 42 34c23 -23 18 -47 -1 -80c-13 15 -25 30 -41 46zM261 219c-30 0 -52 23 -52 54c0 15 5 29 16 40c18 -17 46 -47 74 -82
c-11 -9 -23 -12 -38 -12zM382 264c15 20 31 33 46 42c9 -15 25 -25 43 -25c28 0 50 23 50 54s-22 52 -50 52c-25 0 -44 -14 -60 -38c-2 27 -22 38 -49 37c6 10 9 21 9 34c0 35 -33 74 -95 74c-67 0 -109 -42 -109 -85c0 -29 10 -47 31 -69c-53 -18 -82 -49 -82 -91
c0 -53 49 -93 109 -93c42 0 76 14 104 45c33 -34 55 -45 85 -45c43 0 78 36 80 94l-7 2c-10 -17 -22 -29 -43 -29c-20 0 -37 12 -62 41zM286 124l-12 -2v-9h-7v-7h7v-20c0 -8 4 -13 12 -13s12 4 14 13l-5 2c-1 -5 -3 -7 -5 -7c-3 0 -4 2 -4 5v20h13v7h-13v11zM174 94
c0 -13 9 -21 21 -21s21 9 21 21s-9 20 -21 20s-21 -8 -21 -20zM203 94c0 -12 -3 -16 -8 -16s-8 4 -8 16c0 11 3 15 8 15s8 -4 8 -15zM219 81v-7h22v7h-4v15c0 6 3 10 7 10s6 -3 6 -7v-18h-4v-7h22v7h-6v19c0 8 -3 14 -12 14c-7 0 -11 -4 -14 -11v10h-17v-7h6v-25h-6zM379 93
c0 -8 -2 -13 -7 -13c-6 0 -8 5 -8 13c0 7 2 13 8 13c5 0 7 -5 7 -13zM125 81v-7h30v7h-10v16h4c5 0 5 -1 6 -8h7v23h-7c-1 -7 -1 -8 -6 -8h-4v18h12c7 0 9 -2 11 -13h8v20h-51v-7h7v-41h-7zM302 88v-14h7l1 4c3 -2 6 -5 13 -5c9 0 14 6 14 13c0 16 -24 10 -24 18
c0 2 2 4 5 4c4 0 7 -3 10 -7h7v13h-6l-2 -5c-2 3 -6 5 -11 5c-9 0 -14 -6 -14 -12c0 -16 24 -11 24 -19c0 -2 -2 -4 -5 -4c-5 0 -8 3 -12 9h-7zM352 125v-52h6l4 8c3 -5 7 -8 14 -8c12 0 16 12 16 21c0 12 -6 20 -15 20c-6 0 -11 -3 -13 -9v27h-18v-7h6zM405 65
c3 3 2 10 -5 10c-4 0 -7 -3 -7 -7c0 -5 4 -9 11 -9c9 0 14 6 18 16l13 31h5v7h-17v-7h5l-8 -20l-9 20h6v7h-25v-7h5s12 -23 16 -33c-1 -5 -4 -8 -8 -8zM294 39v3c0 10 3 12 6 12c2 0 3 -1 3 -1s-1 -1 -1 -3c0 -4 3 -6 6 -6v-5h-14zM464 33h-18v-7h6c-1 -3 -4 -7 -6 -9
c-4 4 -7 8 -12 13c7 3 11 6 11 12s-5 12 -14 12c-10 0 -17 -7 -17 -14c0 -5 2 -8 6 -12c-7 -2 -13 -7 -13 -15s6 -14 18 -14c6 0 11 2 15 6c4 -5 7 -6 12 -6c8 0 11 5 13 12l-5 1c-1 -4 -2 -5 -4 -5s-4 2 -6 5c3 4 6 8 9 14h5v7zM469 27c0 -17 11 -28 29 -28
c15 0 23 9 24 23h-8c-1 -9 -6 -16 -14 -16c-10 0 -16 7 -16 22c0 16 6 22 14 22s11 -4 15 -16h8v22h-8l-1 -6c-4 4 -9 7 -16 7c-14 0 -27 -12 -27 -30zM431 33c-4 4 -6 7 -6 10s2 5 5 5c4 0 6 -3 6 -6c0 -4 -2 -7 -5 -9zM340 18h26c1 13 -5 22 -19 22c-11 0 -20 -9 -20 -21
s8 -20 21 -20c11 0 16 6 18 14h-7c-1 -5 -4 -7 -9 -7c-7 0 -10 3 -10 12zM525 20c0 -13 9 -21 21 -21s21 9 21 21s-9 20 -21 20s-21 -8 -21 -20zM189 20c0 -13 9 -21 21 -21s21 9 21 21s-9 20 -21 20s-21 -8 -21 -20zM247 18h26c1 13 -5 22 -19 22c-11 0 -20 -9 -20 -21
s8 -20 21 -20c11 0 16 6 18 14h-7c-1 -5 -4 -7 -9 -7c-7 0 -10 3 -10 12zM340 23c0 9 3 12 7 12c5 0 7 -4 7 -12h-14zM554 20c0 -12 -3 -16 -8 -16s-8 4 -8 16c0 11 3 15 8 15s8 -4 8 -15zM218 20c0 -12 -3 -16 -8 -16s-8 4 -8 16c0 11 3 15 8 15s8 -4 8 -15zM247 23
c0 9 3 12 7 12c5 0 7 -4 7 -12h-14zM368 7v-7h26v7h-8v16c2 5 5 9 7 9v-1c0 -4 3 -6 6 -6c4 0 7 3 7 7c0 5 -3 8 -8 8s-9 -3 -12 -11v10h-18v-7h6v-25h-6zM276 7v-7h23v7h-5v25h14v-25h-5v-7h23v7h-6v52l-10 -2c-2 1 -6 2 -9 2c-10 0 -19 -6 -19 -19v-1h-7v-7h7v-25h-6z
M124 7v-7h29v7h-8v18h22v-18h-8v-7h29v7h-8v41h8v7h-29v-7h8v-16h-22v16h8v7h-29v-7h8v-41h-8zM437 9c-3 -2 -6 -3 -8 -3c-6 0 -10 4 -10 10c0 4 2 7 4 9c5 -5 9 -10 14 -16zM583 6c0 4 -3 7 -7 7s-7 -3 -7 -7s3 -7 7 -7s7 3 7 7z" />
    <glyph glyph-name="i.dot" horiz-adv-x="254" 
d="M252 583c-29 0 -45 19 -45 41c0 31 26 53 55 53c28 0 44 -19 44 -42c0 -29 -26 -52 -54 -52zM99 68c-6 -15 -6 -19 1 -19c27 0 64 50 95 104l8 -4c-39 -68 -88 -153 -166 -153c-22 0 -26 7 -26 16c0 7 3 17 16 49l130 319c6 15 6 19 -1 19c-25 0 -63 -50 -98 -111l-8 4
c43 75 92 161 170 161c22 0 26 -6 26 -15c0 -7 -4 -16 -22 -64z" />
    <glyph glyph-name="acute" unicode="&#xb4;" 
d="M379 601c-34 -24 -70 -51 -101 -77l-4 3c26 32 54 70 77 104l42 62c26 38 38 53 59 53c22 0 41 -20 41 -42s-16 -35 -54 -61z" />
    <glyph glyph-name="hungarumlaut" unicode="&#x2dd;" 
d="M316 610c-31 -25 -58 -54 -85 -81l-4 3c20 32 40 64 59 100l32 56c19 36 29 55 52 55c20 0 36 -16 36 -34c0 -20 -17 -37 -47 -62zM455 610c-31 -25 -58 -54 -85 -81l-4 3c20 32 40 64 59 100l32 56c19 36 29 55 52 55c20 0 36 -16 36 -34c0 -20 -17 -37 -47 -62z" />
    <glyph glyph-name="caron.alt" 
d="M378 591c-23 -30 -43 -61 -62 -90l-3 1c10 33 21 71 30 105l18 66c10 35 24 54 44 54s39 -14 39 -32c0 -17 -13 -36 -31 -59z" />
    <glyph glyph-name="grave" unicode="`" 
d="M476 524c-27 26 -55 52 -86 78l-52 43c-28 24 -47 36 -47 57c0 23 20 44 44 44c21 0 31 -16 50 -53l33 -63c19 -36 41 -71 62 -103z" />
    <glyph glyph-name="circumflex" unicode="&#x2c6;" 
d="M483 526l-4 -2l-75 121l-173 -121l-5 2l200 220h8z" />
    <glyph glyph-name="caron" unicode="&#x2c7;" 
d="M300 744l4 2l75 -121l173 121l5 -2l-200 -220h-8z" />
    <glyph glyph-name="breve" unicode="&#x2d8;" 
d="M544 710l3 -1c-33 -107 -90 -177 -179 -177c-86 0 -114 71 -83 177l3 1c-8 -87 41 -112 93 -112c53 0 122 21 163 112z" />
    <glyph glyph-name="tilde" unicode="&#x2dc;" 
d="M226 524l-5 1c36 88 58 131 100 131c24 0 47 -16 74 -32c36 -21 53 -31 69 -31c19 0 32 14 64 72l5 -1c-36 -88 -58 -131 -100 -131c-24 0 -47 16 -74 32c-36 21 -53 31 -69 31c-19 0 -32 -14 -64 -72z" />
    <glyph glyph-name="macron" unicode="&#xaf;" horiz-adv-x="357" 
d="M499 540h-281l13 38h281z" />
    <glyph glyph-name="dieresis" unicode="&#xa8;" 
d="M452 526c-25 0 -40 18 -40 37c0 30 25 51 53 51c25 0 40 -18 40 -37c0 -30 -25 -51 -53 -51zM274 526c-27 0 -41 18 -41 38c0 29 24 50 51 50c26 0 40 -18 40 -39c0 -28 -24 -49 -50 -49z" />
    <glyph glyph-name="dotaccent" unicode="&#x2d9;" 
d="M365 526c-28 0 -42 18 -42 39c0 29 25 51 52 51s41 -18 41 -40c0 -28 -25 -50 -51 -50z" />
    <glyph glyph-name="ring" unicode="&#x2da;" 
d="M291 619c0 52 42 94 95 94s95 -42 95 -94c0 -53 -42 -95 -95 -95s-95 42 -95 95zM459 619c0 41 -33 74 -73 74s-73 -33 -73 -74c0 -42 33 -75 73 -75s73 33 73 75z" />
    <glyph glyph-name="commaaccent" unicode="&#x326;" 
d="M30 -263c71 11 108 51 108 86c0 10 -3 13 -19 16l-12 3c-22 5 -28 13 -28 28c0 27 20 50 50 50c25 0 54 -17 54 -64c0 -68 -55 -118 -153 -126v7z" />
    <glyph glyph-name="commaaccent.rot" 
d="M471 707c-71 -11 -108 -51 -108 -86c0 -10 3 -13 19 -16l12 -3c22 -5 28 -13 28 -28c0 -27 -20 -50 -50 -50c-25 0 -54 17 -54 64c0 68 55 118 153 126v-7z" />
    <glyph glyph-name="cedilla" unicode="&#xb8;" 
d="M-16 -231c17 -5 44 -8 70 -8c78 0 116 39 116 76c0 30 -22 54 -97 64v3l89 95h14l-52 -57c85 -14 102 -49 102 -81c0 -63 -63 -113 -161 -113c-29 0 -63 5 -85 13z" />
    <glyph glyph-name="ogonek" unicode="&#x2db;" 
d="M203 -174l3 -3c-23 -25 -55 -63 -104 -63c-40 0 -72 29 -72 70c0 37 24 66 63 97c47 37 93 68 120 87l4 -3c-98 -78 -130 -115 -130 -159c0 -42 30 -55 55 -55c26 0 41 12 61 29z" />
    <glyph glyph-name="acute.cap" 
d="M327 744l-3 4c32 26 62 54 93 83l53 49c29 27 49 45 67 45c24 0 38 -20 38 -39c0 -21 -15 -31 -65 -54l-69 -32c-38 -18 -78 -37 -114 -56z" />
    <glyph glyph-name="hungarumlaut.cap" 
d="M266 747l-3 4c27 27 54 54 81 85l43 48c23 26 37 42 57 42c19 0 35 -18 35 -36c0 -22 -17 -33 -58 -55l-52 -28c-35 -19 -70 -40 -103 -60zM425 747l-3 4c27 27 54 54 81 85l43 48c23 26 37 42 57 42c19 0 35 -18 35 -36c0 -22 -17 -33 -58 -55l-52 -28
c-35 -19 -70 -40 -103 -60z" />
    <glyph glyph-name="caron.alt.cap" 
d="M365 557c-23 -30 -43 -61 -62 -90l-3 1c10 33 21 71 30 105l18 66c10 35 24 54 44 54s39 -14 39 -32c0 -17 -13 -36 -31 -59z" />
    <glyph glyph-name="grave.cap" 
d="M484 830c29 -31 51 -56 78 -82l-3 -4c-31 19 -62 35 -99 55l-61 32c-48 25 -58 34 -58 55c0 19 14 39 38 39c18 0 33 -17 60 -46z" />
    <glyph glyph-name="circumflex.cap" 
d="M575 746l-2 -2l-108 92l-184 -92l-3 2l203 170h8z" />
    <glyph glyph-name="caron.cap" 
d="M335 914l2 2l108 -92l184 92l3 -2l-203 -170h-8z" />
    <glyph glyph-name="breve.cap" 
d="M617 906l4 -1c-31 -88 -86 -153 -182 -153c-93 0 -123 66 -100 153l4 1c-1 -69 60 -88 109 -88c50 0 127 15 165 88z" />
    <glyph glyph-name="tilde.cap" 
d="M278 744l-5 1c44 88 68 131 114 131c24 0 48 -16 80 -32c40 -20 56 -31 72 -31c23 0 41 14 81 72l5 -1c-44 -88 -68 -131 -114 -131c-24 0 -48 16 -80 32c-40 20 -57 31 -73 31c-23 0 -40 -14 -80 -72z" />
    <glyph glyph-name="macron.cap" 
d="M591 760h-321l13 38h321z" />
    <glyph glyph-name="dieresis.cap" 
d="M534 746c-25 0 -40 18 -40 37c0 30 25 51 53 51c25 0 40 -18 40 -37c0 -30 -25 -51 -53 -51zM336 746c-27 0 -41 18 -41 38c0 29 24 50 51 50c26 0 40 -18 40 -39c0 -28 -24 -49 -50 -49z" />
    <glyph glyph-name="dotaccent.cap" 
d="M436 746c-28 0 -42 18 -42 39c0 29 25 51 52 51s41 -18 41 -40c0 -28 -25 -50 -51 -50z" />
    <glyph glyph-name="ring.cap" 
d="M358 824c0 52 42 94 95 94s95 -42 95 -94c0 -53 -42 -95 -95 -95s-95 42 -95 95zM526 824c0 41 -33 74 -73 74s-73 -33 -73 -74c0 -42 33 -75 73 -75s73 33 73 75z" />
    <glyph glyph-name="commaaccent.cap" 
d="M30 -263c71 11 108 51 108 86c0 10 -3 13 -19 16l-12 3c-22 5 -28 13 -28 28c0 27 20 50 50 50c25 0 54 -17 54 -64c0 -68 -55 -118 -153 -126v7z" />
    <glyph glyph-name="cedilla.cap" 
d="M-16 -231c17 -5 44 -8 70 -8c78 0 116 39 116 76c0 30 -22 54 -97 64v3l89 95h14l-52 -57c85 -14 102 -49 102 -81c0 -63 -63 -113 -161 -113c-29 0 -63 5 -85 13z" />
    <glyph glyph-name="ogonek.cap" 
d="M203 -174l3 -3c-23 -25 -55 -63 -104 -63c-40 0 -72 29 -72 70c0 37 24 66 63 97c47 37 93 68 120 87l4 -3c-98 -78 -130 -115 -130 -159c0 -42 30 -55 55 -55c26 0 41 12 61 29z" />
    </font>
</defs>
</svg>
