<svg width="18" height="18" viewBox="0 0 18 18" xmlns="http://www.w3.org/2000/svg" xmlns:xlink="http://www.w3.org/1999/xlink">
    <defs>
        <path id="dat8w5up9a" d="M.34.245h10.787v10.882H.341z"/>
        <path id="d6nm7gozqc" d="M0 .318h3.971v3.67H0z"/>
    </defs>
    <g fill="none" fill-rule="evenodd" opacity=".696">
        <path fill="#FFF" d="M.204 16.167h3.541V5.532H.204z"/>
        <g transform="translate(5.358 5.04)">
            <mask id="xxltl4531b" fill="#fff">
                <use xlink:href="#dat8w5up9a"/>
            </mask>
            <path d="M7.06.245C6.609.245 6.2.3 5.83.41c-.368.111-.679.267-.933.467s-.456.386-.606.558a4.587 4.587 0 0 0-.419.568V.492H.341l.011.515c.007.343.01 1.402.01 3.177 0 1.774-.007 4.089-.021 6.943h3.531V5.192c0-.364.04-.654.118-.87.15-.364.377-.67.682-.917.304-.247.681-.37 1.132-.37.615 0 1.068.213 1.358.638.29.426.434 1.015.434 1.766v5.688h3.531V5.03c0-1.567-.372-2.756-1.116-3.568C9.267.651 8.283.245 7.06.245z" fill="#FFF" mask="url(#xxltl4531b)"/>
        </g>
        <g transform="translate(0 .094)">
            <mask id="0ddw3oy8ed" fill="#fff">
                <use xlink:href="#d6nm7gozqc"/>
            </mask>
            <path d="M1.996.318C1.402.318.922.49.553.838.184 1.185 0 1.623 0 2.153c0 .522.179.958.537 1.31.357.35.83.525 1.416.525h.021c.602 0 1.086-.175 1.455-.526.368-.35.55-.787.542-1.31-.007-.529-.19-.967-.548-1.314-.357-.347-.833-.52-1.427-.52" fill="#FFF" mask="url(#0ddw3oy8ed)"/>
        </g>
    </g>
</svg>
